<svg width="1150" height="616" viewBox="0 0 1150 616" fill="none" xmlns="http://www.w3.org/2000/svg">
<rect width="1150" height="616" fill="#FCFCFC"/>
<rect x="105" y="63" width="451" height="271" stroke="#404040" stroke-width="6"/>
<path d="M167.489 158H159.818L168.46 131.818H178.176L186.818 158H179.148L173.42 139.028H173.216L167.489 158ZM166.057 147.67H180.477V152.989H166.057V147.67ZM189.34 158V131.818H200.641C202.584 131.818 204.284 132.172 205.742 132.879C207.199 133.587 208.333 134.605 209.142 135.935C209.952 137.264 210.357 138.858 210.357 140.716C210.357 142.591 209.939 144.172 209.104 145.459C208.277 146.746 207.114 147.717 205.614 148.374C204.123 149.03 202.38 149.358 200.385 149.358H193.635V143.835H198.953C199.789 143.835 200.5 143.733 201.088 143.528C201.685 143.315 202.141 142.979 202.456 142.518C202.78 142.058 202.942 141.457 202.942 140.716C202.942 139.966 202.78 139.357 202.456 138.888C202.141 138.411 201.685 138.061 201.088 137.839C200.5 137.609 199.789 137.494 198.953 137.494H196.448V158H189.34ZM204.681 145.983L211.226 158H203.505L197.113 145.983H204.681ZM223.461 158H213.387V131.818H223.358C226.051 131.818 228.378 132.342 230.338 133.391C232.307 134.43 233.824 135.93 234.89 137.891C235.963 139.842 236.5 142.182 236.5 144.909C236.5 147.636 235.968 149.98 234.902 151.94C233.837 153.892 232.328 155.392 230.377 156.44C228.425 157.48 226.12 158 223.461 158ZM220.495 151.966H223.205C224.5 151.966 225.604 151.757 226.516 151.339C227.436 150.922 228.135 150.202 228.613 149.179C229.098 148.156 229.341 146.733 229.341 144.909C229.341 143.085 229.094 141.662 228.6 140.639C228.114 139.616 227.398 138.896 226.452 138.479C225.515 138.061 224.364 137.852 223 137.852H220.495V151.966ZM255.283 131.818H262.391V148.591C262.391 150.585 261.914 152.311 260.96 153.768C260.013 155.217 258.692 156.338 256.996 157.131C255.3 157.915 253.332 158.307 251.09 158.307C248.832 158.307 246.854 157.915 245.158 157.131C243.462 156.338 242.141 155.217 241.195 153.768C240.258 152.311 239.789 150.585 239.789 148.591V131.818H246.897V147.977C246.897 148.787 247.076 149.511 247.434 150.151C247.792 150.781 248.286 151.276 248.917 151.634C249.556 151.991 250.281 152.17 251.09 152.17C251.908 152.17 252.633 151.991 253.263 151.634C253.894 151.276 254.388 150.781 254.746 150.151C255.104 149.511 255.283 148.787 255.283 147.977V131.818ZM272.877 131.818V158H265.77V131.818H272.877ZM298.9 131.818V158H292.968L283.507 144.244H283.354V158H276.246V131.818H282.28L291.587 145.523H291.792V131.818H298.9ZM327.625 144.909C327.625 147.824 327.059 150.283 325.925 152.286C324.792 154.28 323.262 155.793 321.336 156.824C319.409 157.847 317.262 158.358 314.892 158.358C312.506 158.358 310.35 157.842 308.424 156.811C306.506 155.771 304.98 154.254 303.847 152.26C302.722 150.257 302.159 147.807 302.159 144.909C302.159 141.994 302.722 139.54 303.847 137.545C304.98 135.543 306.506 134.03 308.424 133.007C310.35 131.976 312.506 131.46 314.892 131.46C317.262 131.46 319.409 131.976 321.336 133.007C323.262 134.03 324.792 135.543 325.925 137.545C327.059 139.54 327.625 141.994 327.625 144.909ZM320.313 144.909C320.313 143.341 320.104 142.02 319.686 140.946C319.277 139.864 318.668 139.045 317.858 138.491C317.057 137.929 316.069 137.648 314.892 137.648C313.716 137.648 312.723 137.929 311.914 138.491C311.113 139.045 310.503 139.864 310.086 140.946C309.676 142.02 309.472 143.341 309.472 144.909C309.472 146.477 309.676 147.803 310.086 148.885C310.503 149.959 311.113 150.777 311.914 151.339C312.723 151.893 313.716 152.17 314.892 152.17C316.069 152.17 317.057 151.893 317.858 151.339C318.668 150.777 319.277 149.959 319.686 148.885C320.104 147.803 320.313 146.477 320.313 144.909ZM353.58 131.818H360.688V148.591C360.688 150.585 360.211 152.311 359.256 153.768C358.31 155.217 356.989 156.338 355.293 157.131C353.597 157.915 351.629 158.307 349.387 158.307C347.129 158.307 345.151 157.915 343.455 157.131C341.759 156.338 340.438 155.217 339.492 153.768C338.555 152.311 338.086 150.585 338.086 148.591V131.818H345.194V147.977C345.194 148.787 345.373 149.511 345.731 150.151C346.089 150.781 346.583 151.276 347.214 151.634C347.853 151.991 348.577 152.17 349.387 152.17C350.205 152.17 350.93 151.991 351.56 151.634C352.191 151.276 352.685 150.781 353.043 150.151C353.401 149.511 353.58 148.787 353.58 147.977V131.818ZM386.72 131.818V158H380.788L371.328 144.244H371.174V158H364.066V131.818H370.1L379.407 145.523H379.612V131.818H386.72ZM415.446 144.909C415.446 147.824 414.879 150.283 413.745 152.286C412.612 154.28 411.082 155.793 409.156 156.824C407.23 157.847 405.082 158.358 402.713 158.358C400.326 158.358 398.17 157.842 396.244 156.811C394.326 155.771 392.801 154.254 391.667 152.26C390.542 150.257 389.98 147.807 389.98 144.909C389.98 141.994 390.542 139.54 391.667 137.545C392.801 135.543 394.326 134.03 396.244 133.007C398.17 131.976 400.326 131.46 402.713 131.46C405.082 131.46 407.23 131.976 409.156 133.007C411.082 134.03 412.612 135.543 413.745 137.545C414.879 139.54 415.446 141.994 415.446 144.909ZM408.133 144.909C408.133 143.341 407.924 142.02 407.507 140.946C407.098 139.864 406.488 139.045 405.679 138.491C404.877 137.929 403.889 137.648 402.713 137.648C401.537 137.648 400.544 137.929 399.734 138.491C398.933 139.045 398.324 139.864 397.906 140.946C397.497 142.02 397.292 143.341 397.292 144.909C397.292 146.477 397.497 147.803 397.906 148.885C398.324 149.959 398.933 150.777 399.734 151.339C400.544 151.893 401.537 152.17 402.713 152.17C403.889 152.17 404.877 151.893 405.679 151.339C406.488 150.777 407.098 149.959 407.507 148.885C407.924 147.803 408.133 146.477 408.133 144.909ZM425.906 158V131.818H437.207C439.151 131.818 440.851 132.172 442.308 132.879C443.766 133.587 444.899 134.605 445.709 135.935C446.518 137.264 446.923 138.858 446.923 140.716C446.923 142.591 446.506 144.172 445.67 145.459C444.844 146.746 443.68 147.717 442.18 148.374C440.689 149.03 438.946 149.358 436.952 149.358H430.202V143.835H435.52C436.355 143.835 437.067 143.733 437.655 143.528C438.251 143.315 438.707 142.979 439.023 142.518C439.347 142.058 439.509 141.457 439.509 140.716C439.509 139.966 439.347 139.357 439.023 138.888C438.707 138.411 438.251 138.061 437.655 137.839C437.067 137.609 436.355 137.494 435.52 137.494H433.014V158H425.906ZM441.247 145.983L447.793 158H440.071L433.679 145.983H441.247ZM460.232 158.358C458.169 158.358 456.337 158.004 454.734 157.297C453.141 156.581 451.888 155.597 450.976 154.344C450.064 153.091 449.604 151.651 449.595 150.023H456.754C456.763 150.526 456.916 150.977 457.214 151.378C457.521 151.77 457.939 152.077 458.467 152.298C458.996 152.52 459.601 152.631 460.283 152.631C460.939 152.631 461.518 152.516 462.021 152.286C462.524 152.047 462.916 151.719 463.197 151.301C463.479 150.884 463.615 150.406 463.607 149.869C463.615 149.341 463.453 148.872 463.121 148.463C462.797 148.054 462.341 147.734 461.753 147.504C461.165 147.274 460.487 147.159 459.72 147.159H457.061V142.25H459.72C460.428 142.25 461.05 142.135 461.587 141.905C462.132 141.675 462.554 141.355 462.852 140.946C463.159 140.537 463.308 140.068 463.3 139.54C463.308 139.028 463.185 138.577 462.929 138.185C462.673 137.793 462.315 137.486 461.855 137.264C461.403 137.043 460.879 136.932 460.283 136.932C459.635 136.932 459.055 137.047 458.544 137.277C458.041 137.507 457.645 137.827 457.355 138.236C457.065 138.645 456.916 139.114 456.908 139.642H450.107C450.115 138.04 450.554 136.625 451.423 135.398C452.301 134.17 453.503 133.207 455.028 132.509C456.554 131.81 458.305 131.46 460.283 131.46C462.217 131.46 463.926 131.788 465.409 132.445C466.901 133.101 468.064 134.004 468.899 135.155C469.743 136.297 470.161 137.605 470.152 139.08C470.169 140.545 469.666 141.747 468.643 142.685C467.629 143.622 466.342 144.176 464.783 144.347V144.551C466.896 144.781 468.486 145.429 469.551 146.494C470.616 147.551 471.141 148.881 471.124 150.483C471.132 152.017 470.672 153.376 469.743 154.561C468.822 155.746 467.54 156.675 465.895 157.348C464.259 158.021 462.371 158.358 460.232 158.358Z" fill="#404040"/>
<path d="M142.711 280.641C142.677 280.503 142.624 280.382 142.551 280.277C142.478 280.171 142.387 280.081 142.277 280.008C142.171 279.932 142.046 279.876 141.902 279.84C141.762 279.801 141.607 279.781 141.438 279.781C141.073 279.781 140.762 279.868 140.504 280.043C140.249 280.217 140.053 280.469 139.918 280.797C139.785 281.125 139.719 281.521 139.719 281.984C139.719 282.453 139.783 282.854 139.91 283.188C140.038 283.521 140.228 283.776 140.48 283.953C140.733 284.13 141.047 284.219 141.422 284.219C141.753 284.219 142.027 284.171 142.246 284.074C142.467 283.978 142.633 283.841 142.742 283.664C142.852 283.487 142.906 283.279 142.906 283.039L143.281 283.078H141.453V281.531H145V282.641C145 283.37 144.845 283.993 144.535 284.512C144.228 285.027 143.803 285.423 143.262 285.699C142.723 285.973 142.104 286.109 141.406 286.109C140.628 286.109 139.944 285.944 139.355 285.613C138.767 285.283 138.307 284.811 137.977 284.199C137.648 283.587 137.484 282.859 137.484 282.016C137.484 281.354 137.585 280.768 137.785 280.258C137.988 279.747 138.27 279.316 138.629 278.965C138.988 278.611 139.404 278.344 139.875 278.164C140.346 277.982 140.852 277.891 141.391 277.891C141.865 277.891 142.305 277.958 142.711 278.094C143.12 278.227 143.48 278.417 143.793 278.664C144.108 278.909 144.362 279.199 144.555 279.535C144.747 279.871 144.865 280.24 144.906 280.641H142.711ZM152.935 278V286H151.122L148.231 281.797H148.185V286H146.013V278H147.856L150.7 282.188H150.763V278H152.935ZM157.04 286H153.962V278H157.009C157.832 278 158.543 278.16 159.142 278.48C159.743 278.798 160.207 279.257 160.532 279.855C160.86 280.452 161.024 281.167 161.024 282C161.024 282.833 160.862 283.549 160.536 284.148C160.211 284.745 159.75 285.203 159.153 285.523C158.557 285.841 157.853 286 157.04 286ZM156.134 284.156H156.962C157.358 284.156 157.695 284.092 157.974 283.965C158.255 283.837 158.468 283.617 158.614 283.305C158.763 282.992 158.837 282.557 158.837 282C158.837 281.443 158.761 281.008 158.61 280.695C158.462 280.383 158.243 280.163 157.954 280.035C157.668 279.908 157.316 279.844 156.899 279.844H156.134V284.156Z" fill="#404040"/>
<path d="M497.199 286H494.855L497.496 278H500.464L503.105 286H500.761L499.011 280.203H498.949L497.199 286ZM496.761 282.844H501.167V284.469H496.761V282.844ZM507.375 286.219C506.649 286.216 506.021 286.048 505.493 285.715C504.964 285.382 504.556 284.901 504.27 284.273C503.984 283.646 503.842 282.893 503.844 282.016C503.847 281.135 503.99 280.388 504.274 279.773C504.56 279.159 504.967 278.691 505.493 278.371C506.021 278.051 506.649 277.891 507.375 277.891C508.102 277.891 508.73 278.052 509.258 278.375C509.787 278.695 510.194 279.163 510.481 279.777C510.767 280.392 510.909 281.138 510.907 282.016C510.907 282.898 510.764 283.654 510.477 284.281C510.191 284.909 509.783 285.389 509.254 285.723C508.728 286.053 508.102 286.219 507.375 286.219ZM507.375 284.453C507.75 284.453 508.058 284.258 508.297 283.867C508.54 283.474 508.659 282.857 508.657 282.016C508.657 281.466 508.602 281.017 508.493 280.668C508.383 280.319 508.232 280.061 508.04 279.895C507.847 279.725 507.625 279.641 507.375 279.641C507 279.641 506.694 279.831 506.458 280.211C506.221 280.591 506.099 281.193 506.094 282.016C506.092 282.576 506.145 283.036 506.254 283.398C506.364 283.758 506.515 284.023 506.708 284.195C506.903 284.367 507.125 284.453 507.375 284.453Z" fill="#404040"/>
<path d="M402.891 277.891C403.357 277.891 403.799 277.965 404.215 278.113C404.632 278.259 405 278.49 405.321 278.805C405.644 279.12 405.896 279.531 406.079 280.039C406.264 280.544 406.357 281.156 406.36 281.875C406.362 282.531 406.28 283.121 406.114 283.645C405.95 284.165 405.714 284.609 405.407 284.977C405.102 285.344 404.735 285.625 404.305 285.82C403.878 286.013 403.402 286.109 402.875 286.109C402.284 286.109 401.765 285.996 401.317 285.77C400.869 285.543 400.512 285.238 400.247 284.855C399.981 284.473 399.826 284.047 399.782 283.578H401.922C401.974 283.82 402.089 283.996 402.266 284.105C402.443 284.212 402.646 284.266 402.875 284.266C403.334 284.266 403.668 284.068 403.879 283.672C404.093 283.273 404.201 282.742 404.204 282.078H404.157C404.055 282.323 403.902 282.533 403.696 282.707C403.49 282.882 403.25 283.016 402.977 283.109C402.704 283.203 402.415 283.25 402.11 283.25C401.628 283.25 401.206 283.142 400.844 282.926C400.482 282.707 400.2 282.409 399.997 282.031C399.793 281.651 399.691 281.219 399.688 280.734C399.685 280.167 399.819 279.669 400.09 279.242C400.361 278.815 400.737 278.483 401.219 278.246C401.701 278.009 402.258 277.891 402.891 277.891ZM402.907 279.531C402.691 279.531 402.498 279.581 402.329 279.68C402.162 279.779 402.03 279.913 401.934 280.082C401.84 280.251 401.795 280.443 401.797 280.656C401.8 280.87 401.848 281.061 401.942 281.23C402.038 281.4 402.168 281.534 402.333 281.633C402.499 281.732 402.691 281.781 402.907 281.781C403.066 281.781 403.213 281.754 403.348 281.699C403.484 281.642 403.601 281.562 403.7 281.461C403.801 281.357 403.879 281.237 403.934 281.102C403.991 280.964 404.019 280.815 404.016 280.656C404.014 280.443 403.964 280.251 403.868 280.082C403.771 279.913 403.64 279.779 403.473 279.68C403.306 279.581 403.118 279.531 402.907 279.531Z" fill="#404040"/>
<rect x="138" y="298" width="22" height="22" stroke="#404040" stroke-width="4"/>
<path d="M514.109 243.322C514.109 243.937 514.001 244.482 513.785 244.959C513.566 245.433 513.266 245.807 512.883 246.08C512.5 246.351 512.06 246.489 511.562 246.494V244.385C511.839 244.377 512.059 244.27 512.223 244.064C512.387 243.856 512.469 243.609 512.469 243.322C512.469 243.101 512.422 242.906 512.328 242.736C512.232 242.567 512.096 242.434 511.922 242.338C511.747 242.242 511.544 242.195 511.312 242.197C511.078 242.195 510.875 242.242 510.703 242.338C510.529 242.434 510.395 242.567 510.301 242.736C510.204 242.906 510.156 243.101 510.156 243.322C510.156 243.551 510.212 243.764 510.324 243.959C510.434 244.152 510.586 244.294 510.781 244.385L510.406 246.291L506 245.979V240.604H507.734V244.197L509.5 244.354V244.307C509.258 244.182 509.057 243.965 508.898 243.658C508.737 243.351 508.656 242.994 508.656 242.588C508.656 242.111 508.767 241.687 508.988 241.314C509.21 240.939 509.516 240.644 509.906 240.428C510.294 240.209 510.742 240.101 511.25 240.104C511.807 240.101 512.302 240.234 512.734 240.502C513.164 240.768 513.501 241.141 513.746 241.623C513.988 242.105 514.109 242.671 514.109 243.322ZM506 236.995L511.641 235.354V235.292L506 233.651V231.198L514 233.839V236.808L506 239.448V236.995Z" fill="#404040"/>
<rect x="524" y="228" width="22" height="22" stroke="#404040" stroke-width="4"/>
<rect x="492" y="298" width="22" height="22" stroke="#404040" stroke-width="4"/>
<rect x="392" y="298" width="22" height="22" stroke="#404040" stroke-width="4"/>
<rect x="138" y="298" width="22" height="22" stroke="#404040" stroke-width="4"/>
<rect x="142" y="302" width="14" height="14" fill="#404040"/>
<rect x="150" y="556" width="6" height="255" transform="rotate(-90 150 556)" fill="#404040"/>
<rect x="146" y="309" width="6" height="247" fill="#404040"/>
<rect x="695" y="387" width="6" height="169" fill="#404040"/>
<rect x="403" y="556" width="6" height="298" transform="rotate(-90 403 556)" fill="#404040"/>
<rect x="400" y="309.891" width="6" height="86.8" fill="#27AE60"/>
<rect x="396" y="302" width="14" height="14" fill="#27AE60"/>
<rect x="400" y="394" width="6" height="156" fill="#27AE60"/>
<rect x="535" y="242" width="6" height="52" transform="rotate(-90 535 242)" fill="#EB5757"/>
<rect x="581" y="242" width="6" height="157" fill="#EB5757"/>
<rect x="581" y="405" width="6" height="65" transform="rotate(-90 581 405)" fill="#EB5757"/>
<rect x="640" y="386" width="6" height="19" fill="#EB5757"/>
<rect x="528" y="246" width="14" height="14" transform="rotate(-90 528 246)" fill="#EB5757"/>
<rect x="500" y="307.937" width="6" height="128.063" fill="#E857EB"/>
<rect x="506" y="436" width="6" height="174" transform="rotate(-90 506 436)" fill="#E857EB"/>
<rect x="674" y="384" width="6" height="50" fill="#E857EB"/>
<rect x="496" y="302" width="14" height="13" fill="#E857EB"/>
<path d="M696.091 136.727H702.318V152.682C702.311 154.197 701.928 155.53 701.17 156.682C700.42 157.826 699.383 158.72 698.057 159.364C696.739 160 695.22 160.318 693.5 160.318C692.008 160.318 690.644 160.061 689.409 159.545C688.174 159.023 687.189 158.205 686.455 157.091C685.72 155.97 685.356 154.515 685.364 152.727H691.682C691.705 153.311 691.803 153.803 691.977 154.205C692.159 154.606 692.409 154.909 692.727 155.114C693.053 155.311 693.447 155.409 693.909 155.409C694.379 155.409 694.773 155.307 695.091 155.102C695.417 154.898 695.663 154.595 695.83 154.193C695.996 153.784 696.083 153.28 696.091 152.682V136.727ZM727.858 148.364C727.858 150.955 727.354 153.14 726.347 154.92C725.339 156.693 723.979 158.038 722.267 158.955C720.555 159.864 718.646 160.318 716.54 160.318C714.419 160.318 712.502 159.86 710.79 158.943C709.085 158.019 707.729 156.67 706.722 154.898C705.722 153.117 705.222 150.939 705.222 148.364C705.222 145.773 705.722 143.591 706.722 141.818C707.729 140.038 709.085 138.693 710.79 137.784C712.502 136.867 714.419 136.409 716.54 136.409C718.646 136.409 720.555 136.867 722.267 137.784C723.979 138.693 725.339 140.038 726.347 141.818C727.354 143.591 727.858 145.773 727.858 148.364ZM721.358 148.364C721.358 146.97 721.172 145.795 720.801 144.841C720.438 143.879 719.896 143.152 719.176 142.659C718.464 142.159 717.585 141.909 716.54 141.909C715.494 141.909 714.612 142.159 713.892 142.659C713.18 143.152 712.638 143.879 712.267 144.841C711.903 145.795 711.722 146.97 711.722 148.364C711.722 149.758 711.903 150.936 712.267 151.898C712.638 152.852 713.18 153.58 713.892 154.08C714.612 154.572 715.494 154.818 716.54 154.818C717.585 154.818 718.464 154.572 719.176 154.08C719.896 153.58 720.438 152.852 720.801 151.898C721.172 150.936 721.358 149.758 721.358 148.364ZM728.202 136.727H735.247L739.793 146.182H739.974L744.52 136.727H751.565L743.02 152.682V160H736.747V152.682L728.202 136.727ZM766.17 144C766.11 143.242 765.826 142.652 765.318 142.227C764.818 141.803 764.057 141.591 763.034 141.591C762.383 141.591 761.848 141.67 761.432 141.83C761.023 141.981 760.72 142.189 760.523 142.455C760.326 142.72 760.223 143.023 760.216 143.364C760.201 143.644 760.25 143.898 760.364 144.125C760.485 144.345 760.674 144.545 760.932 144.727C761.189 144.902 761.519 145.061 761.92 145.205C762.322 145.348 762.799 145.477 763.352 145.591L765.261 146C766.549 146.273 767.652 146.633 768.568 147.08C769.485 147.527 770.235 148.053 770.818 148.659C771.402 149.258 771.83 149.932 772.102 150.682C772.383 151.432 772.527 152.25 772.534 153.136C772.527 154.667 772.144 155.962 771.386 157.023C770.629 158.083 769.545 158.89 768.136 159.443C766.735 159.996 765.049 160.273 763.08 160.273C761.057 160.273 759.292 159.973 757.784 159.375C756.284 158.777 755.117 157.856 754.284 156.614C753.458 155.364 753.042 153.765 753.034 151.818H759.034C759.072 152.53 759.25 153.129 759.568 153.614C759.886 154.098 760.333 154.466 760.909 154.716C761.492 154.966 762.186 155.091 762.989 155.091C763.663 155.091 764.227 155.008 764.682 154.841C765.136 154.674 765.481 154.443 765.716 154.148C765.951 153.852 766.072 153.515 766.08 153.136C766.072 152.78 765.955 152.47 765.727 152.205C765.508 151.932 765.144 151.689 764.636 151.477C764.129 151.258 763.443 151.053 762.58 150.864L760.261 150.364C758.201 149.917 756.576 149.17 755.386 148.125C754.205 147.072 753.617 145.636 753.625 143.818C753.617 142.341 754.011 141.049 754.807 139.943C755.61 138.83 756.72 137.962 758.136 137.341C759.561 136.72 761.193 136.409 763.034 136.409C764.913 136.409 766.538 136.723 767.909 137.352C769.28 137.981 770.337 138.867 771.08 140.011C771.83 141.148 772.208 142.477 772.216 144H766.17ZM774.301 141.818V136.727H794.528V141.818H787.528V160H781.301V141.818H774.301ZM803.224 136.727V160H796.906V136.727H803.224ZM827.946 145.455H821.537C821.491 144.924 821.37 144.443 821.173 144.011C820.984 143.58 820.719 143.208 820.378 142.898C820.045 142.58 819.639 142.337 819.162 142.17C818.685 141.996 818.143 141.909 817.537 141.909C816.476 141.909 815.579 142.167 814.844 142.682C814.116 143.197 813.563 143.936 813.185 144.898C812.813 145.86 812.628 147.015 812.628 148.364C812.628 149.788 812.817 150.981 813.196 151.943C813.582 152.898 814.139 153.617 814.866 154.102C815.594 154.58 816.469 154.818 817.491 154.818C818.075 154.818 818.598 154.746 819.06 154.602C819.522 154.451 819.923 154.235 820.264 153.955C820.605 153.674 820.882 153.337 821.094 152.943C821.313 152.542 821.461 152.091 821.537 151.591L827.946 151.636C827.87 152.621 827.594 153.625 827.116 154.648C826.639 155.663 825.961 156.602 825.082 157.466C824.211 158.322 823.132 159.011 821.844 159.534C820.556 160.057 819.06 160.318 817.355 160.318C815.219 160.318 813.302 159.86 811.605 158.943C809.916 158.027 808.579 156.678 807.594 154.898C806.616 153.117 806.128 150.939 806.128 148.364C806.128 145.773 806.628 143.591 807.628 141.818C808.628 140.038 809.976 138.693 811.673 137.784C813.37 136.867 815.264 136.409 817.355 136.409C818.825 136.409 820.177 136.61 821.412 137.011C822.647 137.413 823.73 138 824.662 138.773C825.594 139.538 826.344 140.481 826.912 141.602C827.48 142.723 827.825 144.008 827.946 145.455ZM830.812 160V136.727H837.131V146.136H837.449L844.449 136.727H851.812L843.949 147.091L851.994 160H844.449L839.222 151.273L837.131 154V160H830.812ZM881.79 145.455H875.381C875.335 144.924 875.214 144.443 875.017 144.011C874.828 143.58 874.563 143.208 874.222 142.898C873.888 142.58 873.483 142.337 873.006 142.17C872.528 141.996 871.987 141.909 871.381 141.909C870.32 141.909 869.422 142.167 868.688 142.682C867.96 143.197 867.407 143.936 867.028 144.898C866.657 145.86 866.472 147.015 866.472 148.364C866.472 149.788 866.661 150.981 867.04 151.943C867.426 152.898 867.983 153.617 868.71 154.102C869.438 154.58 870.313 154.818 871.335 154.818C871.919 154.818 872.441 154.746 872.903 154.602C873.366 154.451 873.767 154.235 874.108 153.955C874.449 153.674 874.725 153.337 874.938 152.943C875.157 152.542 875.305 152.091 875.381 151.591L881.79 151.636C881.714 152.621 881.438 153.625 880.96 154.648C880.483 155.663 879.805 156.602 878.926 157.466C878.055 158.322 876.975 159.011 875.688 159.534C874.4 160.057 872.903 160.318 871.199 160.318C869.062 160.318 867.146 159.86 865.449 158.943C863.759 158.027 862.422 156.678 861.438 154.898C860.46 153.117 859.972 150.939 859.972 148.364C859.972 145.773 860.472 143.591 861.472 141.818C862.472 140.038 863.82 138.693 865.517 137.784C867.214 136.867 869.108 136.409 871.199 136.409C872.669 136.409 874.021 136.61 875.256 137.011C876.491 137.413 877.574 138 878.506 138.773C879.438 139.538 880.188 140.481 880.756 141.602C881.324 142.723 881.669 144.008 881.79 145.455ZM907.202 148.364C907.202 150.955 906.698 153.14 905.69 154.92C904.683 156.693 903.323 158.038 901.611 158.955C899.899 159.864 897.99 160.318 895.884 160.318C893.762 160.318 891.846 159.86 890.134 158.943C888.429 158.019 887.073 156.67 886.065 154.898C885.065 153.117 884.565 150.939 884.565 148.364C884.565 145.773 885.065 143.591 886.065 141.818C887.073 140.038 888.429 138.693 890.134 137.784C891.846 136.867 893.762 136.409 895.884 136.409C897.99 136.409 899.899 136.867 901.611 137.784C903.323 138.693 904.683 140.038 905.69 141.818C906.698 143.591 907.202 145.773 907.202 148.364ZM900.702 148.364C900.702 146.97 900.516 145.795 900.145 144.841C899.781 143.879 899.24 143.152 898.52 142.659C897.808 142.159 896.929 141.909 895.884 141.909C894.838 141.909 893.955 142.159 893.236 142.659C892.524 143.152 891.982 143.879 891.611 144.841C891.247 145.795 891.065 146.97 891.065 148.364C891.065 149.758 891.247 150.936 891.611 151.898C891.982 152.852 892.524 153.58 893.236 154.08C893.955 154.572 894.838 154.818 895.884 154.818C896.929 154.818 897.808 154.572 898.52 154.08C899.24 153.58 899.781 152.852 900.145 151.898C900.516 150.936 900.702 149.758 900.702 148.364ZM930.261 136.727V160H924.989L916.58 147.773H916.443V160H910.125V136.727H915.489L923.761 148.909H923.943V136.727H930.261ZM932.614 141.818V136.727H952.841V141.818H945.841V160H939.614V141.818H932.614ZM955.219 160V136.727H965.264C966.991 136.727 968.503 137.042 969.798 137.67C971.094 138.299 972.101 139.205 972.821 140.386C973.541 141.568 973.901 142.985 973.901 144.636C973.901 146.303 973.529 147.708 972.787 148.852C972.052 149.996 971.018 150.86 969.685 151.443C968.359 152.027 966.81 152.318 965.037 152.318H959.037V147.409H963.764C964.507 147.409 965.139 147.318 965.662 147.136C966.192 146.947 966.598 146.648 966.878 146.239C967.166 145.83 967.31 145.295 967.31 144.636C967.31 143.97 967.166 143.428 966.878 143.011C966.598 142.587 966.192 142.277 965.662 142.08C965.139 141.875 964.507 141.773 963.764 141.773H961.537V160H955.219ZM968.855 149.318L974.673 160H967.81L962.128 149.318H968.855ZM999.139 148.364C999.139 150.955 998.635 153.14 997.628 154.92C996.62 156.693 995.26 158.038 993.548 158.955C991.836 159.864 989.927 160.318 987.821 160.318C985.7 160.318 983.783 159.86 982.071 158.943C980.366 158.019 979.01 156.67 978.003 154.898C977.003 153.117 976.503 150.939 976.503 148.364C976.503 145.773 977.003 143.591 978.003 141.818C979.01 140.038 980.366 138.693 982.071 137.784C983.783 136.867 985.7 136.409 987.821 136.409C989.927 136.409 991.836 136.867 993.548 137.784C995.26 138.693 996.62 140.038 997.628 141.818C998.635 143.591 999.139 145.773 999.139 148.364ZM992.639 148.364C992.639 146.97 992.454 145.795 992.082 144.841C991.719 143.879 991.177 143.152 990.457 142.659C989.745 142.159 988.866 141.909 987.821 141.909C986.776 141.909 985.893 142.159 985.173 142.659C984.461 143.152 983.92 143.879 983.548 144.841C983.185 145.795 983.003 146.97 983.003 148.364C983.003 149.758 983.185 150.936 983.548 151.898C983.92 152.852 984.461 153.58 985.173 154.08C985.893 154.572 986.776 154.818 987.821 154.818C988.866 154.818 989.745 154.572 990.457 154.08C991.177 153.58 991.719 152.852 992.082 151.898C992.454 150.936 992.639 149.758 992.639 148.364ZM1002.06 160V136.727H1008.38V154.909H1017.79V160H1002.06ZM1020.34 160V136.727H1026.66V154.909H1036.07V160H1020.34ZM1038.62 160V136.727H1055.4V141.818H1044.94V145.818H1054.53V150.909H1044.94V154.909H1055.35V160H1038.62ZM1067.49 160H1058.53V136.727H1067.39C1069.79 136.727 1071.86 137.193 1073.6 138.125C1075.35 139.049 1076.7 140.383 1077.64 142.125C1078.6 143.86 1079.08 145.939 1079.08 148.364C1079.08 150.788 1078.6 152.871 1077.66 154.614C1076.71 156.348 1075.37 157.682 1073.63 158.614C1071.9 159.538 1069.85 160 1067.49 160ZM1064.85 154.636H1067.26C1068.41 154.636 1069.39 154.451 1070.2 154.08C1071.02 153.708 1071.64 153.068 1072.07 152.159C1072.5 151.25 1072.71 149.985 1072.71 148.364C1072.71 146.742 1072.49 145.477 1072.05 144.568C1071.62 143.659 1070.99 143.019 1070.14 142.648C1069.31 142.277 1068.29 142.091 1067.08 142.091H1064.85V154.636ZM686.5 199V175.727H692.818V193.909H702.227V199H686.5ZM704.781 199V175.727H721.554V180.818H711.099V184.818H720.69V189.909H711.099V193.909H721.509V199H704.781ZM733.642 199H724.688V175.727H733.551C735.945 175.727 738.013 176.193 739.756 177.125C741.506 178.049 742.854 179.383 743.801 181.125C744.756 182.86 745.233 184.939 745.233 187.364C745.233 189.788 744.759 191.871 743.812 193.614C742.866 195.348 741.525 196.682 739.79 197.614C738.055 198.538 736.006 199 733.642 199ZM731.006 193.636H733.415C734.566 193.636 735.547 193.451 736.358 193.08C737.176 192.708 737.797 192.068 738.222 191.159C738.653 190.25 738.869 188.985 738.869 187.364C738.869 185.742 738.65 184.477 738.21 183.568C737.778 182.659 737.142 182.019 736.301 181.648C735.468 181.277 734.445 181.091 733.233 181.091H731.006V193.636ZM760.702 183C760.641 182.242 760.357 181.652 759.849 181.227C759.349 180.803 758.588 180.591 757.565 180.591C756.914 180.591 756.38 180.67 755.963 180.83C755.554 180.981 755.251 181.189 755.054 181.455C754.857 181.72 754.755 182.023 754.747 182.364C754.732 182.644 754.781 182.898 754.895 183.125C755.016 183.345 755.205 183.545 755.463 183.727C755.721 183.902 756.05 184.061 756.452 184.205C756.853 184.348 757.33 184.477 757.884 184.591L759.793 185C761.08 185.273 762.183 185.633 763.099 186.08C764.016 186.527 764.766 187.053 765.349 187.659C765.933 188.258 766.361 188.932 766.634 189.682C766.914 190.432 767.058 191.25 767.065 192.136C767.058 193.667 766.675 194.962 765.918 196.023C765.16 197.083 764.077 197.89 762.668 198.443C761.266 198.996 759.58 199.273 757.611 199.273C755.588 199.273 753.823 198.973 752.315 198.375C750.815 197.777 749.649 196.856 748.815 195.614C747.99 194.364 747.573 192.765 747.565 190.818H753.565C753.603 191.53 753.781 192.129 754.099 192.614C754.418 193.098 754.865 193.466 755.44 193.716C756.024 193.966 756.717 194.091 757.52 194.091C758.194 194.091 758.759 194.008 759.213 193.841C759.668 193.674 760.012 193.443 760.247 193.148C760.482 192.852 760.603 192.515 760.611 192.136C760.603 191.78 760.486 191.47 760.259 191.205C760.039 190.932 759.675 190.689 759.168 190.477C758.66 190.258 757.974 190.053 757.111 189.864L754.793 189.364C752.732 188.917 751.107 188.17 749.918 187.125C748.736 186.072 748.149 184.636 748.156 182.818C748.149 181.341 748.543 180.049 749.338 178.943C750.141 177.83 751.251 176.962 752.668 176.341C754.092 175.72 755.724 175.409 757.565 175.409C759.444 175.409 761.069 175.723 762.44 176.352C763.812 176.981 764.868 177.867 765.611 179.011C766.361 180.148 766.74 181.477 766.747 183H760.702Z" fill="#4F4F4F"/>
<rect x="676" y="167" width="420" height="3" rx="1.5" fill="#404040"/>
<rect x="627" y="379" width="80" height="9" fill="#404040"/>
<rect x="661" y="369" width="11" height="12" fill="#404040"/>
<path d="M695 343.5C695 359.24 682.24 372 666.5 372C650.76 372 638 359.24 638 343.5C638 327.76 650.76 315 666.5 315C682.24 315 695 327.76 695 343.5ZM645.094 343.5C645.094 355.322 654.678 364.906 666.5 364.906C678.322 364.906 687.906 355.322 687.906 343.5C687.906 331.678 678.322 322.094 666.5 322.094C654.678 322.094 645.094 331.678 645.094 343.5Z" fill="#404040"/>
<circle cx="688" cy="341" r="12" fill="#404040"/>
<rect x="386" y="421" width="34" height="34" rx="4" fill="#626262"/>
<rect x="392" y="430" width="24" height="11" rx="1" fill="#FCFCFC"/>
<path d="M395.975 435C395.964 434.858 395.91 434.747 395.815 434.668C395.721 434.588 395.579 434.548 395.387 434.548C395.265 434.548 395.165 434.563 395.087 434.593C395.01 434.621 394.953 434.661 394.916 434.71C394.879 434.76 394.86 434.817 394.859 434.881C394.856 434.933 394.865 434.981 394.886 435.023C394.909 435.065 394.945 435.102 394.993 435.136C395.041 435.169 395.103 435.199 395.178 435.226C395.253 435.253 395.343 435.277 395.447 435.298L395.805 435.375C396.046 435.426 396.253 435.494 396.425 435.577C396.596 435.661 396.737 435.76 396.846 435.874C396.956 435.986 397.036 436.112 397.087 436.253C397.14 436.393 397.167 436.547 397.168 436.713C397.167 437 397.095 437.243 396.953 437.442C396.811 437.641 396.608 437.792 396.344 437.896C396.081 437.999 395.765 438.051 395.396 438.051C395.016 438.051 394.685 437.995 394.403 437.883C394.121 437.771 393.903 437.598 393.746 437.365C393.592 437.131 393.513 436.831 393.512 436.466H394.637C394.644 436.599 394.677 436.712 394.737 436.803C394.797 436.893 394.881 436.962 394.989 437.009C395.098 437.056 395.228 437.08 395.378 437.08C395.505 437.08 395.611 437.064 395.696 437.033C395.781 437.001 395.846 436.958 395.89 436.903C395.934 436.847 395.957 436.784 395.958 436.713C395.957 436.646 395.935 436.588 395.892 436.538C395.851 436.487 395.783 436.442 395.687 436.402C395.592 436.361 395.464 436.322 395.302 436.287L394.867 436.193C394.481 436.109 394.176 435.969 393.953 435.773C393.731 435.576 393.621 435.307 393.623 434.966C393.621 434.689 393.695 434.447 393.844 434.239C393.995 434.031 394.203 433.868 394.469 433.751C394.736 433.635 395.042 433.577 395.387 433.577C395.739 433.577 396.044 433.636 396.301 433.754C396.558 433.871 396.756 434.038 396.896 434.252C397.036 434.465 397.107 434.714 397.109 435H395.975ZM397.229 438V433.636H400.374V434.591H398.414V435.341H400.212V436.295H398.414V437.045H400.365V438H397.229ZM400.571 438V433.636H402.455C402.779 433.636 403.062 433.695 403.305 433.813C403.548 433.931 403.737 434.101 403.872 434.322C404.007 434.544 404.074 434.81 404.074 435.119C404.074 435.432 404.005 435.695 403.865 435.91C403.728 436.124 403.534 436.286 403.284 436.396C403.035 436.505 402.745 436.56 402.412 436.56H401.287V435.639H402.174C402.313 435.639 402.431 435.622 402.529 435.588C402.629 435.553 402.705 435.496 402.757 435.42C402.811 435.343 402.838 435.243 402.838 435.119C402.838 434.994 402.811 434.893 402.757 434.815C402.705 434.735 402.629 434.677 402.529 434.64C402.431 434.602 402.313 434.582 402.174 434.582H401.756V438H400.571ZM403.128 435.997L404.219 438H402.932L401.867 435.997H403.128ZM405.248 433.636L406.142 436.713H406.176L407.071 433.636H408.409L406.969 438H405.35L403.909 433.636H405.248ZM412.392 435.818C412.392 436.304 412.297 436.714 412.108 437.048C411.919 437.38 411.664 437.632 411.343 437.804C411.022 437.974 410.664 438.06 410.269 438.06C409.872 438.06 409.512 437.974 409.191 437.802C408.872 437.629 408.617 437.376 408.429 437.043C408.241 436.71 408.147 436.301 408.147 435.818C408.147 435.332 408.241 434.923 408.429 434.591C408.617 434.257 408.872 434.005 409.191 433.835C409.512 433.663 409.872 433.577 410.269 433.577C410.664 433.577 411.022 433.663 411.343 433.835C411.664 434.005 411.919 434.257 412.108 434.591C412.297 434.923 412.392 435.332 412.392 435.818ZM411.173 435.818C411.173 435.557 411.138 435.337 411.068 435.158C411 434.977 410.899 434.841 410.764 434.749C410.63 434.655 410.465 434.608 410.269 434.608C410.073 434.608 409.908 434.655 409.773 434.749C409.639 434.841 409.538 434.977 409.468 435.158C409.4 435.337 409.366 435.557 409.366 435.818C409.366 436.08 409.4 436.3 409.468 436.481C409.538 436.66 409.639 436.796 409.773 436.89C409.908 436.982 410.073 437.028 410.269 437.028C410.465 437.028 410.63 436.982 410.764 436.89C410.899 436.796 411 436.66 411.068 436.481C411.138 436.3 411.173 436.08 411.173 435.818Z" fill="#626262"/>
<path d="M406.838 431.033C405.837 429.55 406.349 427.526 407.934 426.697L431.565 414.339C434.233 412.943 437.063 415.908 435.546 418.509L420.722 443.921C419.608 445.831 416.88 445.92 415.644 444.087L406.838 431.033Z" fill="#404040"/>
<path d="M420.313 424.807C423.521 425.637 425.449 428.91 424.62 432.118C423.79 435.327 420.517 437.255 417.308 436.425C414.1 435.595 412.172 432.322 413.002 429.114C413.831 425.906 417.105 423.978 420.313 424.807ZM417.932 434.014C419.809 434.5 421.723 433.372 422.209 431.495C422.694 429.618 421.566 427.703 419.689 427.218C417.813 426.733 415.898 427.861 415.413 429.737C414.927 431.614 416.055 433.529 417.932 434.014Z" fill="#FCFCFC"/>
</svg>
