<svg width="1150" height="616" viewBox="0 0 1150 616" fill="none" xmlns="http://www.w3.org/2000/svg">
<rect width="1150" height="616" fill="#FCFCFC"/>
<rect x="104" y="63" width="451" height="271" stroke="#404040" stroke-width="6"/>
<path d="M166.489 158H158.818L167.46 131.818H177.176L185.818 158H178.148L172.42 139.028H172.216L166.489 158ZM165.057 147.67H179.477V152.989H165.057V147.67ZM188.34 158V131.818H199.641C201.584 131.818 203.284 132.172 204.742 132.879C206.199 133.587 207.333 134.605 208.142 135.935C208.952 137.264 209.357 138.858 209.357 140.716C209.357 142.591 208.939 144.172 208.104 145.459C207.277 146.746 206.114 147.717 204.614 148.374C203.123 149.03 201.38 149.358 199.385 149.358H192.635V143.835H197.953C198.789 143.835 199.5 143.733 200.088 143.528C200.685 143.315 201.141 142.979 201.456 142.518C201.78 142.058 201.942 141.457 201.942 140.716C201.942 139.966 201.78 139.357 201.456 138.888C201.141 138.411 200.685 138.061 200.088 137.839C199.5 137.609 198.789 137.494 197.953 137.494H195.448V158H188.34ZM203.681 145.983L210.226 158H202.505L196.113 145.983H203.681ZM222.461 158H212.387V131.818H222.358C225.051 131.818 227.378 132.342 229.338 133.391C231.307 134.43 232.824 135.93 233.89 137.891C234.963 139.842 235.5 142.182 235.5 144.909C235.5 147.636 234.968 149.98 233.902 151.94C232.837 153.892 231.328 155.392 229.377 156.44C227.425 157.48 225.12 158 222.461 158ZM219.495 151.966H222.205C223.5 151.966 224.604 151.757 225.516 151.339C226.436 150.922 227.135 150.202 227.613 149.179C228.098 148.156 228.341 146.733 228.341 144.909C228.341 143.085 228.094 141.662 227.6 140.639C227.114 139.616 226.398 138.896 225.452 138.479C224.515 138.061 223.364 137.852 222 137.852H219.495V151.966ZM254.283 131.818H261.391V148.591C261.391 150.585 260.914 152.311 259.96 153.768C259.013 155.217 257.692 156.338 255.996 157.131C254.3 157.915 252.332 158.307 250.09 158.307C247.832 158.307 245.854 157.915 244.158 157.131C242.462 156.338 241.141 155.217 240.195 153.768C239.258 152.311 238.789 150.585 238.789 148.591V131.818H245.897V147.977C245.897 148.787 246.076 149.511 246.434 150.151C246.792 150.781 247.286 151.276 247.917 151.634C248.556 151.991 249.281 152.17 250.09 152.17C250.908 152.17 251.633 151.991 252.263 151.634C252.894 151.276 253.388 150.781 253.746 150.151C254.104 149.511 254.283 148.787 254.283 147.977V131.818ZM271.877 131.818V158H264.77V131.818H271.877ZM297.9 131.818V158H291.968L282.507 144.244H282.354V158H275.246V131.818H281.28L290.587 145.523H290.792V131.818H297.9ZM326.625 144.909C326.625 147.824 326.059 150.283 324.925 152.286C323.792 154.28 322.262 155.793 320.336 156.824C318.409 157.847 316.262 158.358 313.892 158.358C311.506 158.358 309.35 157.842 307.424 156.811C305.506 155.771 303.98 154.254 302.847 152.26C301.722 150.257 301.159 147.807 301.159 144.909C301.159 141.994 301.722 139.54 302.847 137.545C303.98 135.543 305.506 134.03 307.424 133.007C309.35 131.976 311.506 131.46 313.892 131.46C316.262 131.46 318.409 131.976 320.336 133.007C322.262 134.03 323.792 135.543 324.925 137.545C326.059 139.54 326.625 141.994 326.625 144.909ZM319.313 144.909C319.313 143.341 319.104 142.02 318.686 140.946C318.277 139.864 317.668 139.045 316.858 138.491C316.057 137.929 315.069 137.648 313.892 137.648C312.716 137.648 311.723 137.929 310.914 138.491C310.113 139.045 309.503 139.864 309.086 140.946C308.676 142.02 308.472 143.341 308.472 144.909C308.472 146.477 308.676 147.803 309.086 148.885C309.503 149.959 310.113 150.777 310.914 151.339C311.723 151.893 312.716 152.17 313.892 152.17C315.069 152.17 316.057 151.893 316.858 151.339C317.668 150.777 318.277 149.959 318.686 148.885C319.104 147.803 319.313 146.477 319.313 144.909ZM352.58 131.818H359.688V148.591C359.688 150.585 359.211 152.311 358.256 153.768C357.31 155.217 355.989 156.338 354.293 157.131C352.597 157.915 350.629 158.307 348.387 158.307C346.129 158.307 344.151 157.915 342.455 157.131C340.759 156.338 339.438 155.217 338.492 153.768C337.555 152.311 337.086 150.585 337.086 148.591V131.818H344.194V147.977C344.194 148.787 344.373 149.511 344.731 150.151C345.089 150.781 345.583 151.276 346.214 151.634C346.853 151.991 347.577 152.17 348.387 152.17C349.205 152.17 349.93 151.991 350.56 151.634C351.191 151.276 351.685 150.781 352.043 150.151C352.401 149.511 352.58 148.787 352.58 147.977V131.818ZM385.72 131.818V158H379.788L370.328 144.244H370.174V158H363.066V131.818H369.1L378.407 145.523H378.612V131.818H385.72ZM414.446 144.909C414.446 147.824 413.879 150.283 412.745 152.286C411.612 154.28 410.082 155.793 408.156 156.824C406.23 157.847 404.082 158.358 401.713 158.358C399.326 158.358 397.17 157.842 395.244 156.811C393.326 155.771 391.801 154.254 390.667 152.26C389.542 150.257 388.98 147.807 388.98 144.909C388.98 141.994 389.542 139.54 390.667 137.545C391.801 135.543 393.326 134.03 395.244 133.007C397.17 131.976 399.326 131.46 401.713 131.46C404.082 131.46 406.23 131.976 408.156 133.007C410.082 134.03 411.612 135.543 412.745 137.545C413.879 139.54 414.446 141.994 414.446 144.909ZM407.133 144.909C407.133 143.341 406.924 142.02 406.507 140.946C406.098 139.864 405.488 139.045 404.679 138.491C403.877 137.929 402.889 137.648 401.713 137.648C400.537 137.648 399.544 137.929 398.734 138.491C397.933 139.045 397.324 139.864 396.906 140.946C396.497 142.02 396.292 143.341 396.292 144.909C396.292 146.477 396.497 147.803 396.906 148.885C397.324 149.959 397.933 150.777 398.734 151.339C399.544 151.893 400.537 152.17 401.713 152.17C402.889 152.17 403.877 151.893 404.679 151.339C405.488 150.777 406.098 149.959 406.507 148.885C406.924 147.803 407.133 146.477 407.133 144.909ZM424.906 158V131.818H436.207C438.151 131.818 439.851 132.172 441.308 132.879C442.766 133.587 443.899 134.605 444.709 135.935C445.518 137.264 445.923 138.858 445.923 140.716C445.923 142.591 445.506 144.172 444.67 145.459C443.844 146.746 442.68 147.717 441.18 148.374C439.689 149.03 437.946 149.358 435.952 149.358H429.202V143.835H434.52C435.355 143.835 436.067 143.733 436.655 143.528C437.251 143.315 437.707 142.979 438.023 142.518C438.347 142.058 438.509 141.457 438.509 140.716C438.509 139.966 438.347 139.357 438.023 138.888C437.707 138.411 437.251 138.061 436.655 137.839C436.067 137.609 435.355 137.494 434.52 137.494H432.014V158H424.906ZM440.247 145.983L446.793 158H439.071L432.679 145.983H440.247ZM459.232 158.358C457.169 158.358 455.337 158.004 453.734 157.297C452.141 156.581 450.888 155.597 449.976 154.344C449.064 153.091 448.604 151.651 448.595 150.023H455.754C455.763 150.526 455.916 150.977 456.214 151.378C456.521 151.77 456.939 152.077 457.467 152.298C457.996 152.52 458.601 152.631 459.283 152.631C459.939 152.631 460.518 152.516 461.021 152.286C461.524 152.047 461.916 151.719 462.197 151.301C462.479 150.884 462.615 150.406 462.607 149.869C462.615 149.341 462.453 148.872 462.121 148.463C461.797 148.054 461.341 147.734 460.753 147.504C460.165 147.274 459.487 147.159 458.72 147.159H456.061V142.25H458.72C459.428 142.25 460.05 142.135 460.587 141.905C461.132 141.675 461.554 141.355 461.852 140.946C462.159 140.537 462.308 140.068 462.3 139.54C462.308 139.028 462.185 138.577 461.929 138.185C461.673 137.793 461.315 137.486 460.855 137.264C460.403 137.043 459.879 136.932 459.283 136.932C458.635 136.932 458.055 137.047 457.544 137.277C457.041 137.507 456.645 137.827 456.355 138.236C456.065 138.645 455.916 139.114 455.908 139.642H449.107C449.115 138.04 449.554 136.625 450.423 135.398C451.301 134.17 452.503 133.207 454.028 132.509C455.554 131.81 457.305 131.46 459.283 131.46C461.217 131.46 462.926 131.788 464.409 132.445C465.901 133.101 467.064 134.004 467.899 135.155C468.743 136.297 469.161 137.605 469.152 139.08C469.169 140.545 468.666 141.747 467.643 142.685C466.629 143.622 465.342 144.176 463.783 144.347V144.551C465.896 144.781 467.486 145.429 468.551 146.494C469.616 147.551 470.141 148.881 470.124 150.483C470.132 152.017 469.672 153.376 468.743 154.561C467.822 155.746 466.54 156.675 464.895 157.348C463.259 158.021 461.371 158.358 459.232 158.358Z" fill="#404040"/>
<path d="M141.711 280.641C141.677 280.503 141.624 280.382 141.551 280.277C141.478 280.171 141.387 280.081 141.277 280.008C141.171 279.932 141.046 279.876 140.902 279.84C140.762 279.801 140.607 279.781 140.438 279.781C140.073 279.781 139.762 279.868 139.504 280.043C139.249 280.217 139.053 280.469 138.918 280.797C138.785 281.125 138.719 281.521 138.719 281.984C138.719 282.453 138.783 282.854 138.91 283.188C139.038 283.521 139.228 283.776 139.48 283.953C139.733 284.13 140.047 284.219 140.422 284.219C140.753 284.219 141.027 284.171 141.246 284.074C141.467 283.978 141.633 283.841 141.742 283.664C141.852 283.487 141.906 283.279 141.906 283.039L142.281 283.078H140.453V281.531H144V282.641C144 283.37 143.845 283.993 143.535 284.512C143.228 285.027 142.803 285.423 142.262 285.699C141.723 285.973 141.104 286.109 140.406 286.109C139.628 286.109 138.944 285.944 138.355 285.613C137.767 285.283 137.307 284.811 136.977 284.199C136.648 283.587 136.484 282.859 136.484 282.016C136.484 281.354 136.585 280.768 136.785 280.258C136.988 279.747 137.27 279.316 137.629 278.965C137.988 278.611 138.404 278.344 138.875 278.164C139.346 277.982 139.852 277.891 140.391 277.891C140.865 277.891 141.305 277.958 141.711 278.094C142.12 278.227 142.48 278.417 142.793 278.664C143.108 278.909 143.362 279.199 143.555 279.535C143.747 279.871 143.865 280.24 143.906 280.641H141.711ZM151.935 278V286H150.122L147.231 281.797H147.185V286H145.013V278H146.856L149.7 282.188H149.763V278H151.935ZM156.04 286H152.962V278H156.009C156.832 278 157.543 278.16 158.142 278.48C158.743 278.798 159.207 279.257 159.532 279.855C159.86 280.452 160.024 281.167 160.024 282C160.024 282.833 159.862 283.549 159.536 284.148C159.211 284.745 158.75 285.203 158.153 285.523C157.557 285.841 156.853 286 156.04 286ZM155.134 284.156H155.962C156.358 284.156 156.695 284.092 156.974 283.965C157.255 283.837 157.468 283.617 157.614 283.305C157.763 282.992 157.837 282.557 157.837 282C157.837 281.443 157.761 281.008 157.61 280.695C157.462 280.383 157.243 280.163 156.954 280.035C156.668 279.908 156.316 279.844 155.899 279.844H155.134V284.156Z" fill="#404040"/>
<path d="M434.163 281.188V282.812H430.413V281.188H434.163ZM438.555 286.109C437.925 286.109 437.365 286.001 436.875 285.785C436.389 285.566 436.006 285.266 435.727 284.883C435.448 284.5 435.308 284.06 435.305 283.562H437.493C437.495 283.716 437.542 283.854 437.633 283.977C437.727 284.096 437.855 284.19 438.016 284.258C438.178 284.326 438.362 284.359 438.571 284.359C438.771 284.359 438.948 284.324 439.102 284.254C439.256 284.181 439.375 284.081 439.461 283.953C439.547 283.826 439.589 283.68 439.586 283.516C439.589 283.354 439.54 283.211 439.438 283.086C439.339 282.961 439.2 282.863 439.02 282.793C438.84 282.723 438.633 282.687 438.399 282.687H437.586V281.188H438.399C438.615 281.188 438.805 281.152 438.969 281.082C439.136 281.012 439.265 280.914 439.356 280.789C439.45 280.664 439.495 280.521 439.493 280.359C439.495 280.203 439.458 280.065 439.379 279.945C439.301 279.826 439.192 279.732 439.051 279.664C438.913 279.596 438.753 279.562 438.571 279.562C438.373 279.562 438.196 279.598 438.04 279.668C437.886 279.738 437.765 279.836 437.676 279.961C437.588 280.086 437.542 280.229 437.54 280.391H435.461C435.464 279.901 435.598 279.469 435.864 279.094C436.132 278.719 436.499 278.424 436.965 278.211C437.431 277.997 437.967 277.891 438.571 277.891C439.162 277.891 439.684 277.991 440.137 278.191C440.593 278.392 440.948 278.668 441.204 279.02C441.461 279.368 441.589 279.768 441.586 280.219C441.592 280.667 441.438 281.034 441.125 281.32C440.816 281.607 440.422 281.776 439.946 281.828V281.891C440.592 281.961 441.077 282.159 441.403 282.484C441.728 282.807 441.889 283.214 441.883 283.703C441.886 284.172 441.745 284.587 441.461 284.949C441.18 285.311 440.788 285.595 440.286 285.801C439.786 286.007 439.209 286.109 438.555 286.109Z" fill="#404040"/>
<path d="M529.622 286H527.278L529.919 278H532.888L535.528 286H533.185L531.435 280.203H531.372L529.622 286ZM529.185 282.844H533.591V284.469H529.185V282.844ZM539.86 278V286H537.688V280H537.642L535.892 281.047V279.203L537.86 278H539.86Z" fill="#404040"/>
<path d="M496.199 286H493.855L496.496 278H499.464L502.105 286H499.761L498.011 280.203H497.949L496.199 286ZM495.761 282.844H500.167V284.469H495.761V282.844ZM506.375 286.219C505.649 286.216 505.021 286.048 504.493 285.715C503.964 285.382 503.556 284.901 503.27 284.273C502.984 283.646 502.842 282.893 502.844 282.016C502.847 281.135 502.99 280.388 503.274 279.773C503.56 279.159 503.967 278.691 504.493 278.371C505.021 278.051 505.649 277.891 506.375 277.891C507.102 277.891 507.73 278.052 508.258 278.375C508.787 278.695 509.194 279.163 509.481 279.777C509.767 280.392 509.909 281.138 509.907 282.016C509.907 282.898 509.764 283.654 509.477 284.281C509.191 284.909 508.783 285.389 508.254 285.723C507.728 286.053 507.102 286.219 506.375 286.219ZM506.375 284.453C506.75 284.453 507.058 284.258 507.297 283.867C507.54 283.474 507.659 282.857 507.657 282.016C507.657 281.466 507.602 281.017 507.493 280.668C507.383 280.319 507.232 280.061 507.04 279.895C506.847 279.725 506.625 279.641 506.375 279.641C506 279.641 505.694 279.831 505.458 280.211C505.221 280.591 505.099 281.193 505.094 282.016C505.092 282.576 505.145 283.036 505.254 283.398C505.364 283.758 505.515 284.023 505.708 284.195C505.903 284.367 506.125 284.453 506.375 284.453Z" fill="#404040"/>
<path d="M468.976 286V284.438L471.96 281.969C472.158 281.805 472.327 281.651 472.468 281.508C472.611 281.362 472.72 281.212 472.796 281.059C472.874 280.905 472.913 280.734 472.913 280.547C472.913 280.341 472.869 280.165 472.78 280.02C472.694 279.874 472.575 279.762 472.421 279.684C472.267 279.603 472.09 279.562 471.89 279.562C471.689 279.562 471.512 279.603 471.358 279.684C471.207 279.764 471.09 279.883 471.007 280.039C470.924 280.195 470.882 280.385 470.882 280.609H468.819C468.819 280.047 468.946 279.562 469.198 279.156C469.451 278.75 469.808 278.438 470.269 278.219C470.729 278 471.27 277.891 471.89 277.891C472.53 277.891 473.085 277.993 473.554 278.199C474.025 278.402 474.388 278.689 474.644 279.059C474.901 279.428 475.03 279.862 475.03 280.359C475.03 280.667 474.966 280.973 474.839 281.277C474.711 281.579 474.482 281.914 474.151 282.281C473.821 282.648 473.351 283.086 472.741 283.594L471.991 284.219V284.266H475.116V286H468.976Z" fill="#404040"/>
<path d="M332.109 281.188V282.812H328.359V281.188H332.109ZM336.72 286.109C336.254 286.109 335.811 286.036 335.392 285.891C334.975 285.742 334.606 285.509 334.283 285.191C333.96 284.874 333.706 284.46 333.521 283.949C333.339 283.439 333.249 282.82 333.251 282.094C333.254 281.445 333.337 280.862 333.501 280.344C333.668 279.826 333.904 279.384 334.208 279.02C334.516 278.655 334.883 278.376 335.31 278.184C335.737 277.988 336.212 277.891 336.736 277.891C337.324 277.891 337.843 278.004 338.291 278.23C338.738 278.457 339.095 278.76 339.361 279.141C339.629 279.518 339.785 279.935 339.83 280.391H337.689C337.639 280.164 337.525 279.999 337.345 279.895C337.168 279.788 336.965 279.734 336.736 279.734C336.28 279.734 335.945 279.932 335.732 280.328C335.521 280.724 335.413 281.245 335.408 281.891H335.455C335.556 281.646 335.71 281.436 335.916 281.262C336.121 281.087 336.361 280.953 336.634 280.859C336.908 280.766 337.197 280.719 337.501 280.719C337.986 280.719 338.409 280.828 338.771 281.047C339.136 281.266 339.419 281.565 339.623 281.945C339.826 282.326 339.926 282.76 339.923 283.25C339.926 283.823 339.791 284.324 339.517 284.754C339.246 285.184 338.87 285.517 338.388 285.754C337.906 285.991 337.35 286.109 336.72 286.109ZM336.705 284.469C336.921 284.469 337.112 284.419 337.279 284.32C337.448 284.221 337.58 284.086 337.673 283.914C337.77 283.742 337.817 283.547 337.814 283.328C337.817 283.107 337.77 282.911 337.673 282.742C337.58 282.57 337.448 282.435 337.279 282.336C337.112 282.237 336.921 282.188 336.705 282.188C336.546 282.188 336.399 282.216 336.263 282.273C336.13 282.328 336.014 282.408 335.916 282.512C335.817 282.613 335.738 282.734 335.681 282.875C335.626 283.013 335.598 283.164 335.595 283.328C335.598 283.547 335.647 283.742 335.744 283.914C335.84 284.086 335.972 284.221 336.138 284.32C336.305 284.419 336.494 284.469 336.705 284.469Z" fill="#404040"/>
<path d="M398.591 284.75V283.062L401.81 278H403.341V280.25H402.466L400.732 283V283.062H405.482V284.75H398.591ZM402.482 286V284.234L402.529 283.5V278H404.56V286H402.482Z" fill="#404040"/>
<path d="M366.195 281.188V282.812H362.445V281.188H366.195ZM370.666 286.109C370.051 286.109 369.505 286.001 369.029 285.785C368.555 285.566 368.181 285.266 367.908 284.883C367.637 284.5 367.499 284.06 367.494 283.562H369.603C369.611 283.839 369.718 284.059 369.923 284.223C370.132 284.387 370.379 284.469 370.666 284.469C370.887 284.469 371.082 284.422 371.251 284.328C371.421 284.232 371.554 284.096 371.65 283.922C371.746 283.747 371.793 283.544 371.791 283.312C371.793 283.078 371.746 282.875 371.65 282.703C371.554 282.529 371.421 282.395 371.251 282.301C371.082 282.204 370.887 282.156 370.666 282.156C370.436 282.156 370.224 282.212 370.029 282.324C369.836 282.434 369.694 282.586 369.603 282.781L367.697 282.406L368.009 278H373.384V279.734H369.791L369.634 281.5H369.681C369.806 281.258 370.022 281.057 370.33 280.898C370.637 280.737 370.994 280.656 371.4 280.656C371.876 280.656 372.301 280.767 372.673 280.988C373.048 281.21 373.344 281.516 373.56 281.906C373.779 282.294 373.887 282.742 373.884 283.25C373.887 283.807 373.754 284.302 373.486 284.734C373.22 285.164 372.847 285.501 372.365 285.746C371.883 285.988 371.317 286.109 370.666 286.109Z" fill="#404040"/>
<rect x="137" y="298" width="22" height="22" stroke="#404040" stroke-width="4"/>
<rect x="425" y="298" width="22" height="22" stroke="#404040" stroke-width="4"/>
<rect x="324" y="298" width="22" height="22" stroke="#404040" stroke-width="4"/>
<rect x="461" y="298" width="22" height="22" stroke="#404040" stroke-width="4"/>
<rect x="523" y="298" width="22" height="22" stroke="#404040" stroke-width="4"/>
<path d="M513.109 243.322C513.109 243.937 513.001 244.482 512.785 244.959C512.566 245.433 512.266 245.807 511.883 246.08C511.5 246.351 511.06 246.489 510.562 246.494V244.385C510.839 244.377 511.059 244.27 511.223 244.064C511.387 243.856 511.469 243.609 511.469 243.322C511.469 243.101 511.422 242.906 511.328 242.736C511.232 242.567 511.096 242.434 510.922 242.338C510.747 242.242 510.544 242.195 510.312 242.197C510.078 242.195 509.875 242.242 509.703 242.338C509.529 242.434 509.395 242.567 509.301 242.736C509.204 242.906 509.156 243.101 509.156 243.322C509.156 243.551 509.212 243.764 509.324 243.959C509.434 244.152 509.586 244.294 509.781 244.385L509.406 246.291L505 245.979V240.604H506.734V244.197L508.5 244.354V244.307C508.258 244.182 508.057 243.965 507.898 243.658C507.737 243.351 507.656 242.994 507.656 242.588C507.656 242.111 507.767 241.687 507.988 241.314C508.21 240.939 508.516 240.644 508.906 240.428C509.294 240.209 509.742 240.101 510.25 240.104C510.807 240.101 511.302 240.234 511.734 240.502C512.164 240.768 512.501 241.141 512.746 241.623C512.988 242.105 513.109 242.671 513.109 243.322ZM505 236.995L510.641 235.354V235.292L505 233.651V231.198L513 233.839V236.808L505 239.448V236.995Z" fill="#404040"/>
<rect x="523" y="228" width="22" height="22" stroke="#404040" stroke-width="4"/>
<rect x="491" y="298" width="22" height="22" stroke="#404040" stroke-width="4"/>
<rect x="391" y="298" width="22" height="22" stroke="#404040" stroke-width="4"/>
<rect x="357" y="298" width="22" height="22" stroke="#404040" stroke-width="4"/>
<rect x="137" y="298" width="22" height="22" stroke="#404040" stroke-width="4"/>
<rect x="331" y="528" width="6" height="107" transform="rotate(-90 331 528)" fill="#404040"/>
<rect x="399" y="525" width="6" height="31" fill="#404040"/>
<rect x="141" y="302" width="14" height="14" fill="#404040"/>
<rect x="149" y="556" width="6" height="255" transform="rotate(-90 149 556)" fill="#404040"/>
<rect x="145" y="309" width="6" height="247" fill="#404040"/>
<rect x="365" y="309" width="6" height="77" fill="#2F80ED"/>
<rect x="361" y="302" width="14" height="14" fill="#2F80ED"/>
<rect x="364" y="418" width="6" height="46" fill="#2F80ED"/>
<rect x="364" y="476" width="6" height="46" fill="#2F80ED"/>
<rect x="365.209" y="386.243" width="6" height="16.4437" transform="rotate(-45 365.209 386.243)" fill="#2F80ED"/>
<rect x="364" y="402.034" width="5.45605" height="16.739" transform="rotate(-45 364 402.034)" fill="#2F80ED"/>
<rect x="375.836" y="390.128" width="6.13854" height="16.7103" transform="rotate(45 375.836 390.128)" fill="#2F80ED"/>
<rect x="375.836" y="406.128" width="6" height="16.2633" transform="rotate(45 375.836 406.128)" fill="#2F80ED"/>
<rect x="354" y="464" width="26" height="5" fill="#2F80ED"/>
<path d="M367 464L378.258 482H355.742L367 464Z" fill="#2F80ED"/>
<path d="M381.342 470.991C381.337 470.853 381.221 470.745 381.083 470.75L378.835 470.829C378.697 470.833 378.589 470.949 378.594 471.087C378.598 471.225 378.714 471.333 378.852 471.328L380.851 471.259L380.921 473.257C380.925 473.395 381.041 473.503 381.179 473.498C381.317 473.494 381.425 473.378 381.42 473.24L381.342 470.991ZM377.183 475.559L381.275 471.17L380.909 470.83L376.817 475.218L377.183 475.559Z" fill="#2F80ED"/>
<path d="M382.271 474.963C382.266 474.825 382.151 474.717 382.013 474.722L379.764 474.8C379.626 474.805 379.518 474.921 379.523 475.059C379.528 475.197 379.644 475.305 379.782 475.3L381.78 475.23L381.85 477.229C381.855 477.367 381.971 477.475 382.109 477.47C382.247 477.465 382.355 477.35 382.35 477.212L382.271 474.963ZM378.112 479.53L382.204 475.142L381.839 474.801L377.747 479.189L378.112 479.53Z" fill="#2F80ED"/>
<rect x="399" y="309" width="6" height="77" fill="#27AE60"/>
<rect x="395" y="302" width="14" height="14" fill="#27AE60"/>
<rect x="398" y="418" width="6" height="46" fill="#27AE60"/>
<rect x="398" y="476" width="6" height="46" fill="#27AE60"/>
<rect x="399.209" y="386.243" width="6" height="16.4437" transform="rotate(-45 399.209 386.243)" fill="#27AE60"/>
<rect x="398" y="402.034" width="5.45605" height="16.739" transform="rotate(-45 398 402.034)" fill="#27AE60"/>
<rect x="409.836" y="390.128" width="6.13854" height="16.7103" transform="rotate(45 409.836 390.128)" fill="#27AE60"/>
<rect x="409.836" y="406.128" width="6" height="16.2633" transform="rotate(45 409.836 406.128)" fill="#27AE60"/>
<rect x="388" y="464" width="26" height="5" fill="#27AE60"/>
<path d="M401 464L412.258 482H389.742L401 464Z" fill="#27AE60"/>
<path d="M415.342 470.991C415.337 470.853 415.221 470.745 415.083 470.75L412.835 470.829C412.697 470.833 412.589 470.949 412.594 471.087C412.598 471.225 412.714 471.333 412.852 471.328L414.851 471.259L414.921 473.257C414.925 473.395 415.041 473.503 415.179 473.498C415.317 473.494 415.425 473.378 415.42 473.24L415.342 470.991ZM411.183 475.559L415.275 471.17L414.909 470.83L410.817 475.218L411.183 475.559Z" fill="#27AE60"/>
<path d="M416.271 474.963C416.266 474.825 416.151 474.717 416.013 474.722L413.764 474.8C413.626 474.805 413.518 474.921 413.523 475.059C413.528 475.197 413.644 475.305 413.782 475.3L415.78 475.23L415.85 477.229C415.855 477.367 415.971 477.475 416.109 477.47C416.247 477.465 416.355 477.35 416.35 477.212L416.271 474.963ZM412.112 479.53L416.204 475.142L415.839 474.801L411.747 479.189L412.112 479.53Z" fill="#27AE60"/>
<rect x="433" y="309" width="6" height="77" fill="#EB5757"/>
<rect x="429" y="302" width="14" height="14" fill="#EB5757"/>
<rect x="432" y="418" width="6" height="46" fill="#EB5757"/>
<rect x="432" y="476" width="6" height="46" fill="#EB5757"/>
<rect x="433.209" y="386.243" width="6" height="16.4437" transform="rotate(-45 433.209 386.243)" fill="#EB5757"/>
<rect x="432" y="402.034" width="5.45605" height="16.739" transform="rotate(-45 432 402.034)" fill="#EB5757"/>
<rect x="443.836" y="390.128" width="6.13854" height="16.7103" transform="rotate(45 443.836 390.128)" fill="#EB5757"/>
<rect x="443.836" y="406.128" width="6" height="16.2633" transform="rotate(45 443.836 406.128)" fill="#EB5757"/>
<rect x="422" y="464" width="26" height="5" fill="#EB5757"/>
<path d="M435 464L446.258 482H423.742L435 464Z" fill="#EB5757"/>
<path d="M449.342 470.991C449.337 470.853 449.221 470.745 449.083 470.75L446.835 470.829C446.697 470.833 446.589 470.949 446.594 471.087C446.598 471.225 446.714 471.333 446.852 471.328L448.851 471.259L448.921 473.257C448.925 473.395 449.041 473.503 449.179 473.498C449.317 473.494 449.425 473.378 449.42 473.24L449.342 470.991ZM445.183 475.559L449.275 471.17L448.909 470.83L444.817 475.218L445.183 475.559Z" fill="#EB5757"/>
<path d="M450.271 474.963C450.266 474.825 450.151 474.717 450.013 474.722L447.764 474.8C447.626 474.805 447.518 474.921 447.523 475.059C447.528 475.197 447.644 475.305 447.782 475.3L449.78 475.23L449.85 477.229C449.855 477.367 449.971 477.475 450.109 477.47C450.247 477.465 450.355 477.35 450.35 477.212L450.271 474.963ZM446.112 479.53L450.204 475.142L449.839 474.801L445.747 479.189L446.112 479.53Z" fill="#EB5757"/>
<rect x="531" y="307.139" width="6" height="110.861" fill="#6C57EB"/>
<rect x="531" y="418" width="6" height="130" transform="rotate(-90 531 418)" fill="#6C57EB"/>
<rect x="655" y="386" width="6" height="32" fill="#6C57EB"/>
<rect x="527" y="302" width="14" height="13" fill="#6C57EB"/>
<rect x="534" y="242" width="6" height="52" transform="rotate(-90 534 242)" fill="#EB5757"/>
<rect x="580" y="242" width="6" height="157" fill="#EB5757"/>
<rect x="580" y="405" width="6" height="65" transform="rotate(-90 580 405)" fill="#EB5757"/>
<rect x="639" y="386" width="6" height="19" fill="#EB5757"/>
<rect x="527" y="246" width="14" height="14" transform="rotate(-90 527 246)" fill="#EB5757"/>
<rect x="499" y="307.937" width="6" height="128.063" fill="#E857EB"/>
<rect x="505" y="436" width="6" height="174" transform="rotate(-90 505 436)" fill="#E857EB"/>
<rect x="673" y="384" width="6" height="50" fill="#E857EB"/>
<rect x="495" y="302" width="14" height="13" fill="#E857EB"/>
<rect x="469" y="308.601" width="6" height="142.399" fill="#CDCDCD"/>
<rect x="475" y="451" width="6" height="220" transform="rotate(-90 475 451)" fill="#CDCDCD"/>
<rect x="689" y="386" width="6" height="65" fill="#CDCDCD"/>
<rect x="465" y="302" width="14" height="13.2025" fill="#CDCDCD"/>
<rect x="332" y="309" width="6" height="77" fill="#F2C94C"/>
<rect x="328" y="302" width="14" height="14" fill="#F2C94C"/>
<rect x="331" y="418" width="6" height="46" fill="#F2C94C"/>
<rect x="331" y="476" width="6" height="46" fill="#F2C94C"/>
<rect x="332.209" y="386.243" width="6" height="16.4437" transform="rotate(-45 332.209 386.243)" fill="#F2C94C"/>
<rect x="331" y="402.034" width="5.45605" height="16.739" transform="rotate(-45 331 402.034)" fill="#F2C94C"/>
<rect x="342.836" y="390.128" width="6.13854" height="16.7103" transform="rotate(45 342.836 390.128)" fill="#F2C94C"/>
<rect x="342.836" y="406.128" width="6" height="16.2633" transform="rotate(45 342.836 406.128)" fill="#F2C94C"/>
<rect x="321" y="464" width="26" height="5" fill="#F2C94C"/>
<path d="M334 464L345.258 482H322.742L334 464Z" fill="#F2C94C"/>
<path d="M348.342 470.991C348.337 470.853 348.221 470.745 348.083 470.75L345.835 470.829C345.697 470.833 345.589 470.949 345.594 471.087C345.598 471.225 345.714 471.333 345.852 471.328L347.851 471.259L347.921 473.257C347.925 473.395 348.041 473.503 348.179 473.498C348.317 473.494 348.425 473.378 348.42 473.24L348.342 470.991ZM344.183 475.559L348.275 471.17L347.909 470.83L343.817 475.218L344.183 475.559Z" fill="#F2C94C"/>
<path d="M349.271 474.963C349.266 474.825 349.151 474.717 349.013 474.722L346.764 474.8C346.626 474.805 346.518 474.921 346.523 475.059C346.528 475.197 346.644 475.305 346.782 475.3L348.78 475.23L348.85 477.229C348.855 477.367 348.971 477.475 349.109 477.47C349.247 477.465 349.355 477.35 349.35 477.212L349.271 474.963ZM345.112 479.53L349.204 475.142L348.839 474.801L344.747 479.189L345.112 479.53Z" fill="#F2C94C"/>
<path d="M696.091 136.727H702.318V152.682C702.311 154.197 701.928 155.53 701.17 156.682C700.42 157.826 699.383 158.72 698.057 159.364C696.739 160 695.22 160.318 693.5 160.318C692.008 160.318 690.644 160.061 689.409 159.545C688.174 159.023 687.189 158.205 686.455 157.091C685.72 155.97 685.356 154.515 685.364 152.727H691.682C691.705 153.311 691.803 153.803 691.977 154.205C692.159 154.606 692.409 154.909 692.727 155.114C693.053 155.311 693.447 155.409 693.909 155.409C694.379 155.409 694.773 155.307 695.091 155.102C695.417 154.898 695.663 154.595 695.83 154.193C695.996 153.784 696.083 153.28 696.091 152.682V136.727ZM727.858 148.364C727.858 150.955 727.354 153.14 726.347 154.92C725.339 156.693 723.979 158.038 722.267 158.955C720.555 159.864 718.646 160.318 716.54 160.318C714.419 160.318 712.502 159.86 710.79 158.943C709.085 158.019 707.729 156.67 706.722 154.898C705.722 153.117 705.222 150.939 705.222 148.364C705.222 145.773 705.722 143.591 706.722 141.818C707.729 140.038 709.085 138.693 710.79 137.784C712.502 136.867 714.419 136.409 716.54 136.409C718.646 136.409 720.555 136.867 722.267 137.784C723.979 138.693 725.339 140.038 726.347 141.818C727.354 143.591 727.858 145.773 727.858 148.364ZM721.358 148.364C721.358 146.97 721.172 145.795 720.801 144.841C720.438 143.879 719.896 143.152 719.176 142.659C718.464 142.159 717.585 141.909 716.54 141.909C715.494 141.909 714.612 142.159 713.892 142.659C713.18 143.152 712.638 143.879 712.267 144.841C711.903 145.795 711.722 146.97 711.722 148.364C711.722 149.758 711.903 150.936 712.267 151.898C712.638 152.852 713.18 153.58 713.892 154.08C714.612 154.572 715.494 154.818 716.54 154.818C717.585 154.818 718.464 154.572 719.176 154.08C719.896 153.58 720.438 152.852 720.801 151.898C721.172 150.936 721.358 149.758 721.358 148.364ZM728.202 136.727H735.247L739.793 146.182H739.974L744.52 136.727H751.565L743.02 152.682V160H736.747V152.682L728.202 136.727ZM766.17 144C766.11 143.242 765.826 142.652 765.318 142.227C764.818 141.803 764.057 141.591 763.034 141.591C762.383 141.591 761.848 141.67 761.432 141.83C761.023 141.981 760.72 142.189 760.523 142.455C760.326 142.72 760.223 143.023 760.216 143.364C760.201 143.644 760.25 143.898 760.364 144.125C760.485 144.345 760.674 144.545 760.932 144.727C761.189 144.902 761.519 145.061 761.92 145.205C762.322 145.348 762.799 145.477 763.352 145.591L765.261 146C766.549 146.273 767.652 146.633 768.568 147.08C769.485 147.527 770.235 148.053 770.818 148.659C771.402 149.258 771.83 149.932 772.102 150.682C772.383 151.432 772.527 152.25 772.534 153.136C772.527 154.667 772.144 155.962 771.386 157.023C770.629 158.083 769.545 158.89 768.136 159.443C766.735 159.996 765.049 160.273 763.08 160.273C761.057 160.273 759.292 159.973 757.784 159.375C756.284 158.777 755.117 157.856 754.284 156.614C753.458 155.364 753.042 153.765 753.034 151.818H759.034C759.072 152.53 759.25 153.129 759.568 153.614C759.886 154.098 760.333 154.466 760.909 154.716C761.492 154.966 762.186 155.091 762.989 155.091C763.663 155.091 764.227 155.008 764.682 154.841C765.136 154.674 765.481 154.443 765.716 154.148C765.951 153.852 766.072 153.515 766.08 153.136C766.072 152.78 765.955 152.47 765.727 152.205C765.508 151.932 765.144 151.689 764.636 151.477C764.129 151.258 763.443 151.053 762.58 150.864L760.261 150.364C758.201 149.917 756.576 149.17 755.386 148.125C754.205 147.072 753.617 145.636 753.625 143.818C753.617 142.341 754.011 141.049 754.807 139.943C755.61 138.83 756.72 137.962 758.136 137.341C759.561 136.72 761.193 136.409 763.034 136.409C764.913 136.409 766.538 136.723 767.909 137.352C769.28 137.981 770.337 138.867 771.08 140.011C771.83 141.148 772.208 142.477 772.216 144H766.17ZM774.301 141.818V136.727H794.528V141.818H787.528V160H781.301V141.818H774.301ZM803.224 136.727V160H796.906V136.727H803.224ZM827.946 145.455H821.537C821.491 144.924 821.37 144.443 821.173 144.011C820.984 143.58 820.719 143.208 820.378 142.898C820.045 142.58 819.639 142.337 819.162 142.17C818.685 141.996 818.143 141.909 817.537 141.909C816.476 141.909 815.579 142.167 814.844 142.682C814.116 143.197 813.563 143.936 813.185 144.898C812.813 145.86 812.628 147.015 812.628 148.364C812.628 149.788 812.817 150.981 813.196 151.943C813.582 152.898 814.139 153.617 814.866 154.102C815.594 154.58 816.469 154.818 817.491 154.818C818.075 154.818 818.598 154.746 819.06 154.602C819.522 154.451 819.923 154.235 820.264 153.955C820.605 153.674 820.882 153.337 821.094 152.943C821.313 152.542 821.461 152.091 821.537 151.591L827.946 151.636C827.87 152.621 827.594 153.625 827.116 154.648C826.639 155.663 825.961 156.602 825.082 157.466C824.211 158.322 823.132 159.011 821.844 159.534C820.556 160.057 819.06 160.318 817.355 160.318C815.219 160.318 813.302 159.86 811.605 158.943C809.916 158.027 808.579 156.678 807.594 154.898C806.616 153.117 806.128 150.939 806.128 148.364C806.128 145.773 806.628 143.591 807.628 141.818C808.628 140.038 809.976 138.693 811.673 137.784C813.37 136.867 815.264 136.409 817.355 136.409C818.825 136.409 820.177 136.61 821.412 137.011C822.647 137.413 823.73 138 824.662 138.773C825.594 139.538 826.344 140.481 826.912 141.602C827.48 142.723 827.825 144.008 827.946 145.455ZM830.812 160V136.727H837.131V146.136H837.449L844.449 136.727H851.812L843.949 147.091L851.994 160H844.449L839.222 151.273L837.131 154V160H830.812ZM881.79 145.455H875.381C875.335 144.924 875.214 144.443 875.017 144.011C874.828 143.58 874.563 143.208 874.222 142.898C873.888 142.58 873.483 142.337 873.006 142.17C872.528 141.996 871.987 141.909 871.381 141.909C870.32 141.909 869.422 142.167 868.688 142.682C867.96 143.197 867.407 143.936 867.028 144.898C866.657 145.86 866.472 147.015 866.472 148.364C866.472 149.788 866.661 150.981 867.04 151.943C867.426 152.898 867.983 153.617 868.71 154.102C869.438 154.58 870.313 154.818 871.335 154.818C871.919 154.818 872.441 154.746 872.903 154.602C873.366 154.451 873.767 154.235 874.108 153.955C874.449 153.674 874.725 153.337 874.938 152.943C875.157 152.542 875.305 152.091 875.381 151.591L881.79 151.636C881.714 152.621 881.438 153.625 880.96 154.648C880.483 155.663 879.805 156.602 878.926 157.466C878.055 158.322 876.975 159.011 875.688 159.534C874.4 160.057 872.903 160.318 871.199 160.318C869.062 160.318 867.146 159.86 865.449 158.943C863.759 158.027 862.422 156.678 861.438 154.898C860.46 153.117 859.972 150.939 859.972 148.364C859.972 145.773 860.472 143.591 861.472 141.818C862.472 140.038 863.82 138.693 865.517 137.784C867.214 136.867 869.108 136.409 871.199 136.409C872.669 136.409 874.021 136.61 875.256 137.011C876.491 137.413 877.574 138 878.506 138.773C879.438 139.538 880.188 140.481 880.756 141.602C881.324 142.723 881.669 144.008 881.79 145.455ZM907.202 148.364C907.202 150.955 906.698 153.14 905.69 154.92C904.683 156.693 903.323 158.038 901.611 158.955C899.899 159.864 897.99 160.318 895.884 160.318C893.762 160.318 891.846 159.86 890.134 158.943C888.429 158.019 887.073 156.67 886.065 154.898C885.065 153.117 884.565 150.939 884.565 148.364C884.565 145.773 885.065 143.591 886.065 141.818C887.073 140.038 888.429 138.693 890.134 137.784C891.846 136.867 893.762 136.409 895.884 136.409C897.99 136.409 899.899 136.867 901.611 137.784C903.323 138.693 904.683 140.038 905.69 141.818C906.698 143.591 907.202 145.773 907.202 148.364ZM900.702 148.364C900.702 146.97 900.516 145.795 900.145 144.841C899.781 143.879 899.24 143.152 898.52 142.659C897.808 142.159 896.929 141.909 895.884 141.909C894.838 141.909 893.955 142.159 893.236 142.659C892.524 143.152 891.982 143.879 891.611 144.841C891.247 145.795 891.065 146.97 891.065 148.364C891.065 149.758 891.247 150.936 891.611 151.898C891.982 152.852 892.524 153.58 893.236 154.08C893.955 154.572 894.838 154.818 895.884 154.818C896.929 154.818 897.808 154.572 898.52 154.08C899.24 153.58 899.781 152.852 900.145 151.898C900.516 150.936 900.702 149.758 900.702 148.364ZM930.261 136.727V160H924.989L916.58 147.773H916.443V160H910.125V136.727H915.489L923.761 148.909H923.943V136.727H930.261ZM932.614 141.818V136.727H952.841V141.818H945.841V160H939.614V141.818H932.614ZM955.219 160V136.727H965.264C966.991 136.727 968.503 137.042 969.798 137.67C971.094 138.299 972.101 139.205 972.821 140.386C973.541 141.568 973.901 142.985 973.901 144.636C973.901 146.303 973.529 147.708 972.787 148.852C972.052 149.996 971.018 150.86 969.685 151.443C968.359 152.027 966.81 152.318 965.037 152.318H959.037V147.409H963.764C964.507 147.409 965.139 147.318 965.662 147.136C966.192 146.947 966.598 146.648 966.878 146.239C967.166 145.83 967.31 145.295 967.31 144.636C967.31 143.97 967.166 143.428 966.878 143.011C966.598 142.587 966.192 142.277 965.662 142.08C965.139 141.875 964.507 141.773 963.764 141.773H961.537V160H955.219ZM968.855 149.318L974.673 160H967.81L962.128 149.318H968.855ZM999.139 148.364C999.139 150.955 998.635 153.14 997.628 154.92C996.62 156.693 995.26 158.038 993.548 158.955C991.836 159.864 989.927 160.318 987.821 160.318C985.7 160.318 983.783 159.86 982.071 158.943C980.366 158.019 979.01 156.67 978.003 154.898C977.003 153.117 976.503 150.939 976.503 148.364C976.503 145.773 977.003 143.591 978.003 141.818C979.01 140.038 980.366 138.693 982.071 137.784C983.783 136.867 985.7 136.409 987.821 136.409C989.927 136.409 991.836 136.867 993.548 137.784C995.26 138.693 996.62 140.038 997.628 141.818C998.635 143.591 999.139 145.773 999.139 148.364ZM992.639 148.364C992.639 146.97 992.454 145.795 992.082 144.841C991.719 143.879 991.177 143.152 990.457 142.659C989.745 142.159 988.866 141.909 987.821 141.909C986.776 141.909 985.893 142.159 985.173 142.659C984.461 143.152 983.92 143.879 983.548 144.841C983.185 145.795 983.003 146.97 983.003 148.364C983.003 149.758 983.185 150.936 983.548 151.898C983.92 152.852 984.461 153.58 985.173 154.08C985.893 154.572 986.776 154.818 987.821 154.818C988.866 154.818 989.745 154.572 990.457 154.08C991.177 153.58 991.719 152.852 992.082 151.898C992.454 150.936 992.639 149.758 992.639 148.364ZM1002.06 160V136.727H1008.38V154.909H1017.79V160H1002.06ZM1020.34 160V136.727H1026.66V154.909H1036.07V160H1020.34ZM1038.62 160V136.727H1055.4V141.818H1044.94V145.818H1054.53V150.909H1044.94V154.909H1055.35V160H1038.62ZM1067.49 160H1058.53V136.727H1067.39C1069.79 136.727 1071.86 137.193 1073.6 138.125C1075.35 139.049 1076.7 140.383 1077.64 142.125C1078.6 143.86 1079.08 145.939 1079.08 148.364C1079.08 150.788 1078.6 152.871 1077.66 154.614C1076.71 156.348 1075.37 157.682 1073.63 158.614C1071.9 159.538 1069.85 160 1067.49 160ZM1064.85 154.636H1067.26C1068.41 154.636 1069.39 154.451 1070.2 154.08C1071.02 153.708 1071.64 153.068 1072.07 152.159C1072.5 151.25 1072.71 149.985 1072.71 148.364C1072.71 146.742 1072.49 145.477 1072.05 144.568C1071.62 143.659 1070.99 143.019 1070.14 142.648C1069.31 142.277 1068.29 142.091 1067.08 142.091H1064.85V154.636ZM686.5 199V175.727H692.818V193.909H702.227V199H686.5ZM704.781 199V175.727H721.554V180.818H711.099V184.818H720.69V189.909H711.099V193.909H721.509V199H704.781ZM733.642 199H724.688V175.727H733.551C735.945 175.727 738.013 176.193 739.756 177.125C741.506 178.049 742.854 179.383 743.801 181.125C744.756 182.86 745.233 184.939 745.233 187.364C745.233 189.788 744.759 191.871 743.812 193.614C742.866 195.348 741.525 196.682 739.79 197.614C738.055 198.538 736.006 199 733.642 199ZM731.006 193.636H733.415C734.566 193.636 735.547 193.451 736.358 193.08C737.176 192.708 737.797 192.068 738.222 191.159C738.653 190.25 738.869 188.985 738.869 187.364C738.869 185.742 738.65 184.477 738.21 183.568C737.778 182.659 737.142 182.019 736.301 181.648C735.468 181.277 734.445 181.091 733.233 181.091H731.006V193.636ZM760.702 183C760.641 182.242 760.357 181.652 759.849 181.227C759.349 180.803 758.588 180.591 757.565 180.591C756.914 180.591 756.38 180.67 755.963 180.83C755.554 180.981 755.251 181.189 755.054 181.455C754.857 181.72 754.755 182.023 754.747 182.364C754.732 182.644 754.781 182.898 754.895 183.125C755.016 183.345 755.205 183.545 755.463 183.727C755.721 183.902 756.05 184.061 756.452 184.205C756.853 184.348 757.33 184.477 757.884 184.591L759.793 185C761.08 185.273 762.183 185.633 763.099 186.08C764.016 186.527 764.766 187.053 765.349 187.659C765.933 188.258 766.361 188.932 766.634 189.682C766.914 190.432 767.058 191.25 767.065 192.136C767.058 193.667 766.675 194.962 765.918 196.023C765.16 197.083 764.077 197.89 762.668 198.443C761.266 198.996 759.58 199.273 757.611 199.273C755.588 199.273 753.823 198.973 752.315 198.375C750.815 197.777 749.649 196.856 748.815 195.614C747.99 194.364 747.573 192.765 747.565 190.818H753.565C753.603 191.53 753.781 192.129 754.099 192.614C754.418 193.098 754.865 193.466 755.44 193.716C756.024 193.966 756.717 194.091 757.52 194.091C758.194 194.091 758.759 194.008 759.213 193.841C759.668 193.674 760.012 193.443 760.247 193.148C760.482 192.852 760.603 192.515 760.611 192.136C760.603 191.78 760.486 191.47 760.259 191.205C760.039 190.932 759.675 190.689 759.168 190.477C758.66 190.258 757.974 190.053 757.111 189.864L754.793 189.364C752.732 188.917 751.107 188.17 749.918 187.125C748.736 186.072 748.149 184.636 748.156 182.818C748.149 181.341 748.543 180.049 749.338 178.943C750.141 177.83 751.251 176.962 752.668 176.341C754.092 175.72 755.724 175.409 757.565 175.409C759.444 175.409 761.069 175.723 762.44 176.352C763.812 176.981 764.868 177.867 765.611 179.011C766.361 180.148 766.74 181.477 766.747 183H760.702Z" fill="#4F4F4F"/>
<rect x="676" y="167" width="420" height="3" rx="1.5" fill="#404040"/>
<rect x="627" y="379" width="80" height="9" fill="#404040"/>
<rect x="661" y="369" width="11" height="12" fill="#404040"/>
<path d="M695 343.5C695 359.24 682.24 372 666.5 372C650.76 372 638 359.24 638 343.5C638 327.76 650.76 315 666.5 315C682.24 315 695 327.76 695 343.5ZM645.094 343.5C645.094 355.322 654.678 364.906 666.5 364.906C678.322 364.906 687.906 355.322 687.906 343.5C687.906 331.678 678.322 322.094 666.5 322.094C654.678 322.094 645.094 331.678 645.094 343.5Z" fill="#404040"/>
<circle cx="688" cy="341" r="12" fill="#404040"/>
</svg>
