<svg width="1150" height="616" viewBox="0 0 1150 616" fill="none" xmlns="http://www.w3.org/2000/svg">
<rect width="1150" height="616" fill="#FCFCFC"/>
<rect x="104" y="63" width="451" height="271" stroke="#404040" stroke-width="6"/>
<path d="M166.489 158H158.818L167.46 131.818H177.176L185.818 158H178.148L172.42 139.028H172.216L166.489 158ZM165.057 147.67H179.477V152.989H165.057V147.67ZM188.34 158V131.818H199.641C201.584 131.818 203.284 132.172 204.742 132.879C206.199 133.587 207.333 134.605 208.142 135.935C208.952 137.264 209.357 138.858 209.357 140.716C209.357 142.591 208.939 144.172 208.104 145.459C207.277 146.746 206.114 147.717 204.614 148.374C203.123 149.03 201.38 149.358 199.385 149.358H192.635V143.835H197.953C198.789 143.835 199.5 143.733 200.088 143.528C200.685 143.315 201.141 142.979 201.456 142.518C201.78 142.058 201.942 141.457 201.942 140.716C201.942 139.966 201.78 139.357 201.456 138.888C201.141 138.411 200.685 138.061 200.088 137.839C199.5 137.609 198.789 137.494 197.953 137.494H195.448V158H188.34ZM203.681 145.983L210.226 158H202.505L196.113 145.983H203.681ZM222.461 158H212.387V131.818H222.358C225.051 131.818 227.378 132.342 229.338 133.391C231.307 134.43 232.824 135.93 233.89 137.891C234.963 139.842 235.5 142.182 235.5 144.909C235.5 147.636 234.968 149.98 233.902 151.94C232.837 153.892 231.328 155.392 229.377 156.44C227.425 157.48 225.12 158 222.461 158ZM219.495 151.966H222.205C223.5 151.966 224.604 151.757 225.516 151.339C226.436 150.922 227.135 150.202 227.613 149.179C228.098 148.156 228.341 146.733 228.341 144.909C228.341 143.085 228.094 141.662 227.6 140.639C227.114 139.616 226.398 138.896 225.452 138.479C224.515 138.061 223.364 137.852 222 137.852H219.495V151.966ZM254.283 131.818H261.391V148.591C261.391 150.585 260.914 152.311 259.96 153.768C259.013 155.217 257.692 156.338 255.996 157.131C254.3 157.915 252.332 158.307 250.09 158.307C247.832 158.307 245.854 157.915 244.158 157.131C242.462 156.338 241.141 155.217 240.195 153.768C239.258 152.311 238.789 150.585 238.789 148.591V131.818H245.897V147.977C245.897 148.787 246.076 149.511 246.434 150.151C246.792 150.781 247.286 151.276 247.917 151.634C248.556 151.991 249.281 152.17 250.09 152.17C250.908 152.17 251.633 151.991 252.263 151.634C252.894 151.276 253.388 150.781 253.746 150.151C254.104 149.511 254.283 148.787 254.283 147.977V131.818ZM271.877 131.818V158H264.77V131.818H271.877ZM297.9 131.818V158H291.968L282.507 144.244H282.354V158H275.246V131.818H281.28L290.587 145.523H290.792V131.818H297.9ZM326.625 144.909C326.625 147.824 326.059 150.283 324.925 152.286C323.792 154.28 322.262 155.793 320.336 156.824C318.409 157.847 316.262 158.358 313.892 158.358C311.506 158.358 309.35 157.842 307.424 156.811C305.506 155.771 303.98 154.254 302.847 152.26C301.722 150.257 301.159 147.807 301.159 144.909C301.159 141.994 301.722 139.54 302.847 137.545C303.98 135.543 305.506 134.03 307.424 133.007C309.35 131.976 311.506 131.46 313.892 131.46C316.262 131.46 318.409 131.976 320.336 133.007C322.262 134.03 323.792 135.543 324.925 137.545C326.059 139.54 326.625 141.994 326.625 144.909ZM319.313 144.909C319.313 143.341 319.104 142.02 318.686 140.946C318.277 139.864 317.668 139.045 316.858 138.491C316.057 137.929 315.069 137.648 313.892 137.648C312.716 137.648 311.723 137.929 310.914 138.491C310.113 139.045 309.503 139.864 309.086 140.946C308.676 142.02 308.472 143.341 308.472 144.909C308.472 146.477 308.676 147.803 309.086 148.885C309.503 149.959 310.113 150.777 310.914 151.339C311.723 151.893 312.716 152.17 313.892 152.17C315.069 152.17 316.057 151.893 316.858 151.339C317.668 150.777 318.277 149.959 318.686 148.885C319.104 147.803 319.313 146.477 319.313 144.909ZM352.58 131.818H359.688V148.591C359.688 150.585 359.211 152.311 358.256 153.768C357.31 155.217 355.989 156.338 354.293 157.131C352.597 157.915 350.629 158.307 348.387 158.307C346.129 158.307 344.151 157.915 342.455 157.131C340.759 156.338 339.438 155.217 338.492 153.768C337.555 152.311 337.086 150.585 337.086 148.591V131.818H344.194V147.977C344.194 148.787 344.373 149.511 344.731 150.151C345.089 150.781 345.583 151.276 346.214 151.634C346.853 151.991 347.577 152.17 348.387 152.17C349.205 152.17 349.93 151.991 350.56 151.634C351.191 151.276 351.685 150.781 352.043 150.151C352.401 149.511 352.58 148.787 352.58 147.977V131.818ZM385.72 131.818V158H379.788L370.328 144.244H370.174V158H363.066V131.818H369.1L378.407 145.523H378.612V131.818H385.72ZM414.446 144.909C414.446 147.824 413.879 150.283 412.745 152.286C411.612 154.28 410.082 155.793 408.156 156.824C406.23 157.847 404.082 158.358 401.713 158.358C399.326 158.358 397.17 157.842 395.244 156.811C393.326 155.771 391.801 154.254 390.667 152.26C389.542 150.257 388.98 147.807 388.98 144.909C388.98 141.994 389.542 139.54 390.667 137.545C391.801 135.543 393.326 134.03 395.244 133.007C397.17 131.976 399.326 131.46 401.713 131.46C404.082 131.46 406.23 131.976 408.156 133.007C410.082 134.03 411.612 135.543 412.745 137.545C413.879 139.54 414.446 141.994 414.446 144.909ZM407.133 144.909C407.133 143.341 406.924 142.02 406.507 140.946C406.098 139.864 405.488 139.045 404.679 138.491C403.877 137.929 402.889 137.648 401.713 137.648C400.537 137.648 399.544 137.929 398.734 138.491C397.933 139.045 397.324 139.864 396.906 140.946C396.497 142.02 396.292 143.341 396.292 144.909C396.292 146.477 396.497 147.803 396.906 148.885C397.324 149.959 397.933 150.777 398.734 151.339C399.544 151.893 400.537 152.17 401.713 152.17C402.889 152.17 403.877 151.893 404.679 151.339C405.488 150.777 406.098 149.959 406.507 148.885C406.924 147.803 407.133 146.477 407.133 144.909ZM424.906 158V131.818H436.207C438.151 131.818 439.851 132.172 441.308 132.879C442.766 133.587 443.899 134.605 444.709 135.935C445.518 137.264 445.923 138.858 445.923 140.716C445.923 142.591 445.506 144.172 444.67 145.459C443.844 146.746 442.68 147.717 441.18 148.374C439.689 149.03 437.946 149.358 435.952 149.358H429.202V143.835H434.52C435.355 143.835 436.067 143.733 436.655 143.528C437.251 143.315 437.707 142.979 438.023 142.518C438.347 142.058 438.509 141.457 438.509 140.716C438.509 139.966 438.347 139.357 438.023 138.888C437.707 138.411 437.251 138.061 436.655 137.839C436.067 137.609 435.355 137.494 434.52 137.494H432.014V158H424.906ZM440.247 145.983L446.793 158H439.071L432.679 145.983H440.247ZM459.232 158.358C457.169 158.358 455.337 158.004 453.734 157.297C452.141 156.581 450.888 155.597 449.976 154.344C449.064 153.091 448.604 151.651 448.595 150.023H455.754C455.763 150.526 455.916 150.977 456.214 151.378C456.521 151.77 456.939 152.077 457.467 152.298C457.996 152.52 458.601 152.631 459.283 152.631C459.939 152.631 460.518 152.516 461.021 152.286C461.524 152.047 461.916 151.719 462.197 151.301C462.479 150.884 462.615 150.406 462.607 149.869C462.615 149.341 462.453 148.872 462.121 148.463C461.797 148.054 461.341 147.734 460.753 147.504C460.165 147.274 459.487 147.159 458.72 147.159H456.061V142.25H458.72C459.428 142.25 460.05 142.135 460.587 141.905C461.132 141.675 461.554 141.355 461.852 140.946C462.159 140.537 462.308 140.068 462.3 139.54C462.308 139.028 462.185 138.577 461.929 138.185C461.673 137.793 461.315 137.486 460.855 137.264C460.403 137.043 459.879 136.932 459.283 136.932C458.635 136.932 458.055 137.047 457.544 137.277C457.041 137.507 456.645 137.827 456.355 138.236C456.065 138.645 455.916 139.114 455.908 139.642H449.107C449.115 138.04 449.554 136.625 450.423 135.398C451.301 134.17 452.503 133.207 454.028 132.509C455.554 131.81 457.305 131.46 459.283 131.46C461.217 131.46 462.926 131.788 464.409 132.445C465.901 133.101 467.064 134.004 467.899 135.155C468.743 136.297 469.161 137.605 469.152 139.08C469.169 140.545 468.666 141.747 467.643 142.685C466.629 143.622 465.342 144.176 463.783 144.347V144.551C465.896 144.781 467.486 145.429 468.551 146.494C469.616 147.551 470.141 148.881 470.124 150.483C470.132 152.017 469.672 153.376 468.743 154.561C467.822 155.746 466.54 156.675 464.895 157.348C463.259 158.021 461.371 158.358 459.232 158.358Z" fill="#404040"/>
<path d="M141.711 280.641C141.677 280.503 141.624 280.382 141.551 280.277C141.478 280.171 141.387 280.081 141.277 280.008C141.171 279.932 141.046 279.876 140.902 279.84C140.762 279.801 140.607 279.781 140.438 279.781C140.073 279.781 139.762 279.868 139.504 280.043C139.249 280.217 139.053 280.469 138.918 280.797C138.785 281.125 138.719 281.521 138.719 281.984C138.719 282.453 138.783 282.854 138.91 283.188C139.038 283.521 139.228 283.776 139.48 283.953C139.733 284.13 140.047 284.219 140.422 284.219C140.753 284.219 141.027 284.171 141.246 284.074C141.467 283.978 141.633 283.841 141.742 283.664C141.852 283.487 141.906 283.279 141.906 283.039L142.281 283.078H140.453V281.531H144V282.641C144 283.37 143.845 283.993 143.535 284.512C143.228 285.027 142.803 285.423 142.262 285.699C141.723 285.973 141.104 286.109 140.406 286.109C139.628 286.109 138.944 285.944 138.355 285.613C137.767 285.283 137.307 284.811 136.977 284.199C136.648 283.587 136.484 282.859 136.484 282.016C136.484 281.354 136.585 280.768 136.785 280.258C136.988 279.747 137.27 279.316 137.629 278.965C137.988 278.611 138.404 278.344 138.875 278.164C139.346 277.982 139.852 277.891 140.391 277.891C140.865 277.891 141.305 277.958 141.711 278.094C142.12 278.227 142.48 278.417 142.793 278.664C143.108 278.909 143.362 279.199 143.555 279.535C143.747 279.871 143.865 280.24 143.906 280.641H141.711ZM151.935 278V286H150.122L147.231 281.797H147.185V286H145.013V278H146.856L149.7 282.188H149.763V278H151.935ZM156.04 286H152.962V278H156.009C156.832 278 157.543 278.16 158.142 278.48C158.743 278.798 159.207 279.257 159.532 279.855C159.86 280.452 160.024 281.167 160.024 282C160.024 282.833 159.862 283.549 159.536 284.148C159.211 284.745 158.75 285.203 158.153 285.523C157.557 285.841 156.853 286 156.04 286ZM155.134 284.156H155.962C156.358 284.156 156.695 284.092 156.974 283.965C157.255 283.837 157.468 283.617 157.614 283.305C157.763 282.992 157.837 282.557 157.837 282C157.837 281.443 157.761 281.008 157.61 280.695C157.462 280.383 157.243 280.163 156.954 280.035C156.668 279.908 156.316 279.844 155.899 279.844H155.134V284.156Z" fill="#404040"/>
<path d="M468.889 278V286H466.717V280H466.67L464.92 281.047V279.203L466.889 278H468.889ZM474.453 278V286H472.281V280H472.234L470.484 281.047V279.203L472.453 278H474.453Z" fill="#404040"/>
<path d="M502.653 278V286H500.481V280H500.435L498.685 281.047V279.203L500.653 278H502.653ZM507.78 286.219C507.054 286.216 506.426 286.048 505.897 285.715C505.369 285.382 504.961 284.901 504.675 284.273C504.388 283.646 504.246 282.893 504.249 282.016C504.252 281.135 504.395 280.388 504.679 279.773C504.965 279.159 505.371 278.691 505.897 278.371C506.426 278.051 507.054 277.891 507.78 277.891C508.507 277.891 509.134 278.052 509.663 278.375C510.192 278.695 510.599 279.163 510.886 279.777C511.172 280.392 511.314 281.138 511.312 282.016C511.312 282.898 511.168 283.654 510.882 284.281C510.595 284.909 510.188 285.389 509.659 285.723C509.133 286.053 508.507 286.219 507.78 286.219ZM507.78 284.453C508.155 284.453 508.463 284.258 508.702 283.867C508.944 283.474 509.064 282.857 509.062 282.016C509.062 281.466 509.007 281.017 508.897 280.668C508.788 280.319 508.637 280.061 508.444 279.895C508.252 279.725 508.03 279.641 507.78 279.641C507.405 279.641 507.099 279.831 506.862 280.211C506.625 280.591 506.504 281.193 506.499 282.016C506.496 282.576 506.55 283.036 506.659 283.398C506.769 283.758 506.92 284.023 507.112 284.195C507.308 284.367 507.53 284.453 507.78 284.453Z" fill="#404040"/>
<path d="M514.109 252.322C514.109 252.937 514.001 253.482 513.785 253.959C513.566 254.433 513.266 254.807 512.883 255.08C512.5 255.351 512.06 255.489 511.562 255.494V253.385C511.839 253.377 512.059 253.27 512.223 253.064C512.387 252.856 512.469 252.609 512.469 252.322C512.469 252.101 512.422 251.906 512.328 251.736C512.232 251.567 512.096 251.434 511.922 251.338C511.747 251.242 511.544 251.195 511.312 251.197C511.078 251.195 510.875 251.242 510.703 251.338C510.529 251.434 510.395 251.567 510.301 251.736C510.204 251.906 510.156 252.101 510.156 252.322C510.156 252.551 510.212 252.764 510.324 252.959C510.434 253.152 510.586 253.294 510.781 253.385L510.406 255.291L506 254.979V249.604H507.734V253.197L509.5 253.354V253.307C509.258 253.182 509.057 252.965 508.898 252.658C508.737 252.351 508.656 251.994 508.656 251.588C508.656 251.111 508.767 250.687 508.988 250.314C509.21 249.939 509.516 249.644 509.906 249.428C510.294 249.209 510.742 249.101 511.25 249.104C511.807 249.101 512.302 249.234 512.734 249.502C513.164 249.768 513.501 250.141 513.746 250.623C513.988 251.105 514.109 251.671 514.109 252.322ZM506 245.995L511.641 244.354V244.292L506 242.651V240.198L514 242.839V245.808L506 248.448V245.995Z" fill="#404040"/>
<path d="M435.115 278V286H432.943V280H432.896L431.146 281.047V279.203L433.115 278H435.115ZM436.758 286V284.438L439.742 281.969C439.94 281.805 440.109 281.651 440.25 281.508C440.393 281.362 440.503 281.212 440.578 281.059C440.656 280.905 440.695 280.734 440.695 280.547C440.695 280.341 440.651 280.165 440.563 280.02C440.477 279.874 440.357 279.762 440.203 279.684C440.049 279.603 439.872 279.562 439.672 279.562C439.471 279.562 439.294 279.603 439.141 279.684C438.99 279.764 438.872 279.883 438.789 280.039C438.706 280.195 438.664 280.385 438.664 280.609H436.602C436.602 280.047 436.728 279.562 436.98 279.156C437.233 278.75 437.59 278.438 438.051 278.219C438.512 278 439.052 277.891 439.672 277.891C440.313 277.891 440.867 277.993 441.336 278.199C441.807 278.402 442.171 278.689 442.426 279.059C442.684 279.428 442.813 279.862 442.813 280.359C442.813 280.667 442.749 280.973 442.621 281.277C442.493 281.579 442.264 281.914 441.934 282.281C441.603 282.648 441.133 283.086 440.523 283.594L439.773 284.219V284.266H442.898V286H436.758Z" fill="#404040"/>
<rect x="137" y="298" width="22" height="22" stroke="#404040" stroke-width="4"/>
<rect x="521" y="237" width="22" height="22" stroke="#404040" stroke-width="4"/>
<rect x="494" y="298" width="22" height="22" stroke="#404040" stroke-width="4"/>
<rect x="426" y="298" width="22" height="22" stroke="#404040" stroke-width="4"/>
<rect x="460" y="298" width="22" height="22" stroke="#404040" stroke-width="4"/>
<rect x="137" y="298" width="22" height="22" stroke="#404040" stroke-width="4"/>
<rect x="501" y="504" width="6" height="52" fill="#404040"/>
<rect x="141" y="302" width="14" height="14" fill="#404040"/>
<rect x="149" y="556" width="6" height="357" transform="rotate(-90 149 556)" fill="#404040"/>
<rect x="145" y="309" width="6" height="247" fill="#404040"/>
<rect x="502" y="309" width="6" height="77" fill="#EB5757"/>
<rect x="498" y="302" width="14" height="14" fill="#EB5757"/>
<rect x="501" y="476" width="6" height="29" fill="#EB5757"/>
<rect x="502.209" y="386.243" width="6" height="16.4437" transform="rotate(-45 502.209 386.243)" fill="#EB5757"/>
<rect x="501" y="402.034" width="5.45605" height="16.739" transform="rotate(-45 501 402.034)" fill="#EB5757"/>
<rect x="512.836" y="390.128" width="6.13854" height="16.7103" transform="rotate(45 512.836 390.128)" fill="#EB5757"/>
<rect x="512.836" y="406.128" width="6" height="16.2633" transform="rotate(45 512.836 406.128)" fill="#EB5757"/>
<rect x="491" y="464" width="26" height="5" fill="#EB5757"/>
<path d="M504 464L515.258 482H492.742L504 464Z" fill="#EB5757"/>
<path d="M518.342 470.991C518.337 470.853 518.221 470.745 518.083 470.75L515.835 470.829C515.697 470.833 515.589 470.949 515.594 471.087C515.598 471.225 515.714 471.333 515.852 471.328L517.851 471.259L517.921 473.257C517.925 473.395 518.041 473.503 518.179 473.498C518.317 473.494 518.425 473.378 518.42 473.24L518.342 470.991ZM514.183 475.559L518.275 471.17L517.909 470.83L513.817 475.218L514.183 475.559Z" fill="#EB5757"/>
<path d="M519.271 474.963C519.266 474.825 519.151 474.717 519.013 474.722L516.764 474.8C516.626 474.805 516.518 474.921 516.523 475.059C516.528 475.197 516.644 475.305 516.782 475.3L518.78 475.23L518.85 477.229C518.855 477.367 518.971 477.475 519.109 477.47C519.247 477.465 519.355 477.35 519.35 477.212L519.271 474.963ZM515.112 479.53L519.204 475.142L518.839 474.801L514.747 479.189L515.112 479.53Z" fill="#EB5757"/>
<rect x="501" y="418" width="6" height="46" fill="#EB5757"/>
<rect x="525" y="241" width="14" height="14" fill="#EB5757"/>
<rect x="539" y="245" width="106" height="6" fill="#EB5757"/>
<rect x="645" y="245" width="6" height="132" fill="#EB5757"/>
<rect x="648" y="377" width="6" height="45" transform="rotate(-90 648 377)" fill="#EB5757"/>
<rect x="687" y="354" width="6" height="23" fill="#EB5757"/>
<rect x="471" y="438" width="6" height="233" transform="rotate(-90 471 438)" fill="#27AE60"/>
<rect x="698" y="437" width="84" height="6" transform="rotate(-90 698 437)" fill="#27AE60"/>
<rect x="468" y="307.477" width="6" height="130.523" fill="#27AE60"/>
<rect x="464" y="302" width="14" height="11.8658" fill="#27AE60"/>
<rect x="434" y="309" width="6" height="140" fill="#2F80ED"/>
<rect x="434" y="449" width="6" height="282" transform="rotate(-90 434 449)" fill="#2F80ED"/>
<rect x="710" y="449" width="89" height="6" transform="rotate(-90 710 449)" fill="#2F80ED"/>
<rect x="430" y="302" width="14" height="13.2025" fill="#2F80ED"/>
<path d="M699.045 144C698.985 143.242 698.701 142.652 698.193 142.227C697.693 141.803 696.932 141.591 695.909 141.591C695.258 141.591 694.723 141.67 694.307 141.83C693.898 141.981 693.595 142.189 693.398 142.455C693.201 142.72 693.098 143.023 693.091 143.364C693.076 143.644 693.125 143.898 693.239 144.125C693.36 144.345 693.549 144.545 693.807 144.727C694.064 144.902 694.394 145.061 694.795 145.205C695.197 145.348 695.674 145.477 696.227 145.591L698.136 146C699.424 146.273 700.527 146.633 701.443 147.08C702.36 147.527 703.11 148.053 703.693 148.659C704.277 149.258 704.705 149.932 704.977 150.682C705.258 151.432 705.402 152.25 705.409 153.136C705.402 154.667 705.019 155.962 704.261 157.023C703.504 158.083 702.42 158.89 701.011 159.443C699.61 159.996 697.924 160.273 695.955 160.273C693.932 160.273 692.167 159.973 690.659 159.375C689.159 158.777 687.992 157.856 687.159 156.614C686.333 155.364 685.917 153.765 685.909 151.818H691.909C691.947 152.53 692.125 153.129 692.443 153.614C692.761 154.098 693.208 154.466 693.784 154.716C694.367 154.966 695.061 155.091 695.864 155.091C696.538 155.091 697.102 155.008 697.557 154.841C698.011 154.674 698.356 154.443 698.591 154.148C698.826 153.852 698.947 153.515 698.955 153.136C698.947 152.78 698.83 152.47 698.602 152.205C698.383 151.932 698.019 151.689 697.511 151.477C697.004 151.258 696.318 151.053 695.455 150.864L693.136 150.364C691.076 149.917 689.451 149.17 688.261 148.125C687.08 147.072 686.492 145.636 686.5 143.818C686.492 142.341 686.886 141.049 687.682 139.943C688.485 138.83 689.595 137.962 691.011 137.341C692.436 136.72 694.068 136.409 695.909 136.409C697.788 136.409 699.413 136.723 700.784 137.352C702.155 137.981 703.212 138.867 703.955 140.011C704.705 141.148 705.083 142.477 705.091 144H699.045ZM730.358 148.364C730.358 150.955 729.854 153.14 728.847 154.92C727.839 156.693 726.479 158.038 724.767 158.955C723.055 159.864 721.146 160.318 719.04 160.318C716.919 160.318 715.002 159.86 713.29 158.943C711.585 158.019 710.229 156.67 709.222 154.898C708.222 153.117 707.722 150.939 707.722 148.364C707.722 145.773 708.222 143.591 709.222 141.818C710.229 140.038 711.585 138.693 713.29 137.784C715.002 136.867 716.919 136.409 719.04 136.409C721.146 136.409 723.055 136.867 724.767 137.784C726.479 138.693 727.839 140.038 728.847 141.818C729.854 143.591 730.358 145.773 730.358 148.364ZM723.858 148.364C723.858 146.97 723.672 145.795 723.301 144.841C722.938 143.879 722.396 143.152 721.676 142.659C720.964 142.159 720.085 141.909 719.04 141.909C717.994 141.909 717.112 142.159 716.392 142.659C715.68 143.152 715.138 143.879 714.767 144.841C714.403 145.795 714.222 146.97 714.222 148.364C714.222 149.758 714.403 150.936 714.767 151.898C715.138 152.852 715.68 153.58 716.392 154.08C717.112 154.572 717.994 154.818 719.04 154.818C720.085 154.818 720.964 154.572 721.676 154.08C722.396 153.58 722.938 152.852 723.301 151.898C723.672 150.936 723.858 149.758 723.858 148.364ZM753.418 136.727V160H748.145L739.736 147.773H739.599V160H733.281V136.727H738.645L746.918 148.909H747.099V136.727H753.418ZM762.452 160H755.634L763.315 136.727H771.952L779.634 160H772.815L767.724 143.136H767.543L762.452 160ZM761.179 150.818H773.997V155.545H761.179V150.818ZM781.875 160V136.727H791.92C793.648 136.727 795.159 137.042 796.455 137.67C797.75 138.299 798.758 139.205 799.477 140.386C800.197 141.568 800.557 142.985 800.557 144.636C800.557 146.303 800.186 147.708 799.443 148.852C798.708 149.996 797.674 150.86 796.341 151.443C795.015 152.027 793.466 152.318 791.693 152.318H785.693V147.409H790.42C791.163 147.409 791.795 147.318 792.318 147.136C792.848 146.947 793.254 146.648 793.534 146.239C793.822 145.83 793.966 145.295 793.966 144.636C793.966 143.97 793.822 143.428 793.534 143.011C793.254 142.587 792.848 142.277 792.318 142.08C791.795 141.875 791.163 141.773 790.42 141.773H788.193V160H781.875ZM795.511 149.318L801.33 160H794.466L788.784 149.318H795.511ZM818.58 160H809.625V136.727H818.489C820.883 136.727 822.951 137.193 824.693 138.125C826.443 139.049 827.792 140.383 828.739 142.125C829.693 143.86 830.17 145.939 830.17 148.364C830.17 150.788 829.697 152.871 828.75 154.614C827.803 156.348 826.462 157.682 824.727 158.614C822.992 159.538 820.943 160 818.58 160ZM815.943 154.636H818.352C819.504 154.636 820.485 154.451 821.295 154.08C822.114 153.708 822.735 153.068 823.159 152.159C823.591 151.25 823.807 149.985 823.807 148.364C823.807 146.742 823.587 145.477 823.148 144.568C822.716 143.659 822.08 143.019 821.239 142.648C820.405 142.277 819.383 142.091 818.17 142.091H815.943V154.636ZM839.412 136.727V160H833.094V136.727H839.412ZM854.952 144C854.891 143.242 854.607 142.652 854.099 142.227C853.599 141.803 852.838 141.591 851.815 141.591C851.164 141.591 850.63 141.67 850.213 141.83C849.804 141.981 849.501 142.189 849.304 142.455C849.107 142.72 849.005 143.023 848.997 143.364C848.982 143.644 849.031 143.898 849.145 144.125C849.266 144.345 849.455 144.545 849.713 144.727C849.971 144.902 850.3 145.061 850.702 145.205C851.103 145.348 851.58 145.477 852.134 145.591L854.043 146C855.33 146.273 856.433 146.633 857.349 147.08C858.266 147.527 859.016 148.053 859.599 148.659C860.183 149.258 860.611 149.932 860.884 150.682C861.164 151.432 861.308 152.25 861.315 153.136C861.308 154.667 860.925 155.962 860.168 157.023C859.41 158.083 858.327 158.89 856.918 159.443C855.516 159.996 853.83 160.273 851.861 160.273C849.838 160.273 848.073 159.973 846.565 159.375C845.065 158.777 843.899 157.856 843.065 156.614C842.24 155.364 841.823 153.765 841.815 151.818H847.815C847.853 152.53 848.031 153.129 848.349 153.614C848.668 154.098 849.115 154.466 849.69 154.716C850.274 154.966 850.967 155.091 851.77 155.091C852.444 155.091 853.009 155.008 853.463 154.841C853.918 154.674 854.262 154.443 854.497 154.148C854.732 153.852 854.853 153.515 854.861 153.136C854.853 152.78 854.736 152.47 854.509 152.205C854.289 151.932 853.925 151.689 853.418 151.477C852.91 151.258 852.224 151.053 851.361 150.864L849.043 150.364C846.982 149.917 845.357 149.17 844.168 148.125C842.986 147.072 842.399 145.636 842.406 143.818C842.399 142.341 842.793 141.049 843.588 139.943C844.391 138.83 845.501 137.962 846.918 137.341C848.342 136.72 849.974 136.409 851.815 136.409C853.694 136.409 855.319 136.723 856.69 137.352C858.062 137.981 859.118 138.867 859.861 140.011C860.611 141.148 860.99 142.477 860.997 144H854.952ZM863.082 141.818V136.727H883.31V141.818H876.31V160H870.082V141.818H863.082ZM888.795 160H881.977L889.659 136.727H898.295L905.977 160H899.159L894.068 143.136H893.886L888.795 160ZM887.523 150.818H900.341V155.545H887.523V150.818ZM928.355 136.727V160H923.082L914.673 147.773H914.537V160H908.219V136.727H913.582L921.855 148.909H922.037V136.727H928.355ZM953.071 145.455H946.662C946.616 144.924 946.495 144.443 946.298 144.011C946.109 143.58 945.844 143.208 945.503 142.898C945.17 142.58 944.764 142.337 944.287 142.17C943.81 141.996 943.268 141.909 942.662 141.909C941.601 141.909 940.704 142.167 939.969 142.682C939.241 143.197 938.688 143.936 938.31 144.898C937.938 145.86 937.753 147.015 937.753 148.364C937.753 149.788 937.942 150.981 938.321 151.943C938.707 152.898 939.264 153.617 939.991 154.102C940.719 154.58 941.594 154.818 942.616 154.818C943.2 154.818 943.723 154.746 944.185 154.602C944.647 154.451 945.048 154.235 945.389 153.955C945.73 153.674 946.007 153.337 946.219 152.943C946.438 152.542 946.586 152.091 946.662 151.591L953.071 151.636C952.995 152.621 952.719 153.625 952.241 154.648C951.764 155.663 951.086 156.602 950.207 157.466C949.336 158.322 948.257 159.011 946.969 159.534C945.681 160.057 944.185 160.318 942.48 160.318C940.344 160.318 938.427 159.86 936.73 158.943C935.041 158.027 933.704 156.678 932.719 154.898C931.741 153.117 931.253 150.939 931.253 148.364C931.253 145.773 931.753 143.591 932.753 141.818C933.753 140.038 935.101 138.693 936.798 137.784C938.495 136.867 940.389 136.409 942.48 136.409C943.95 136.409 945.302 136.61 946.537 137.011C947.772 137.413 948.855 138 949.787 138.773C950.719 139.538 951.469 140.481 952.037 141.602C952.605 142.723 952.95 144.008 953.071 145.455ZM955.938 160V136.727H972.71V141.818H962.256V145.818H971.847V150.909H962.256V154.909H972.665V160H955.938ZM695.455 199H686.5V175.727H695.364C697.758 175.727 699.826 176.193 701.568 177.125C703.318 178.049 704.667 179.383 705.614 181.125C706.568 182.86 707.045 184.939 707.045 187.364C707.045 189.788 706.572 191.871 705.625 193.614C704.678 195.348 703.337 196.682 701.602 197.614C699.867 198.538 697.818 199 695.455 199ZM692.818 193.636H695.227C696.379 193.636 697.36 193.451 698.17 193.08C698.989 192.708 699.61 192.068 700.034 191.159C700.466 190.25 700.682 188.985 700.682 187.364C700.682 185.742 700.462 184.477 700.023 183.568C699.591 182.659 698.955 182.019 698.114 181.648C697.28 181.277 696.258 181.091 695.045 181.091H692.818V193.636ZM709.969 199V175.727H726.741V180.818H716.287V184.818H725.878V189.909H716.287V193.909H726.696V199H709.969ZM729.239 180.818V175.727H749.466V180.818H742.466V199H736.239V180.818H729.239ZM751.844 199V175.727H768.616V180.818H758.162V184.818H767.753V189.909H758.162V193.909H768.571V199H751.844ZM793.477 184.455H787.068C787.023 183.924 786.902 183.443 786.705 183.011C786.515 182.58 786.25 182.208 785.909 181.898C785.576 181.58 785.17 181.337 784.693 181.17C784.216 180.996 783.674 180.909 783.068 180.909C782.008 180.909 781.11 181.167 780.375 181.682C779.648 182.197 779.095 182.936 778.716 183.898C778.345 184.86 778.159 186.015 778.159 187.364C778.159 188.788 778.348 189.981 778.727 190.943C779.114 191.898 779.67 192.617 780.398 193.102C781.125 193.58 782 193.818 783.023 193.818C783.606 193.818 784.129 193.746 784.591 193.602C785.053 193.451 785.455 193.235 785.795 192.955C786.136 192.674 786.413 192.337 786.625 191.943C786.845 191.542 786.992 191.091 787.068 190.591L793.477 190.636C793.402 191.621 793.125 192.625 792.648 193.648C792.17 194.663 791.492 195.602 790.614 196.466C789.742 197.322 788.663 198.011 787.375 198.534C786.087 199.057 784.591 199.318 782.886 199.318C780.75 199.318 778.833 198.86 777.136 197.943C775.447 197.027 774.11 195.678 773.125 193.898C772.148 192.117 771.659 189.939 771.659 187.364C771.659 184.773 772.159 182.591 773.159 180.818C774.159 179.038 775.508 177.693 777.205 176.784C778.902 175.867 780.795 175.409 782.886 175.409C784.356 175.409 785.708 175.61 786.943 176.011C788.178 176.413 789.261 177 790.193 177.773C791.125 178.538 791.875 179.481 792.443 180.602C793.011 181.723 793.356 183.008 793.477 184.455ZM795.707 180.818V175.727H815.935V180.818H808.935V199H802.707V180.818H795.707ZM824.631 175.727V199H818.312V175.727H824.631ZM850.17 187.364C850.17 189.955 849.667 192.14 848.659 193.92C847.652 195.693 846.292 197.038 844.58 197.955C842.867 198.864 840.958 199.318 838.852 199.318C836.731 199.318 834.814 198.86 833.102 197.943C831.398 197.019 830.042 195.67 829.034 193.898C828.034 192.117 827.534 189.939 827.534 187.364C827.534 184.773 828.034 182.591 829.034 180.818C830.042 179.038 831.398 177.693 833.102 176.784C834.814 175.867 836.731 175.409 838.852 175.409C840.958 175.409 842.867 175.867 844.58 176.784C846.292 177.693 847.652 179.038 848.659 180.818C849.667 182.591 850.17 184.773 850.17 187.364ZM843.67 187.364C843.67 185.97 843.485 184.795 843.114 183.841C842.75 182.879 842.208 182.152 841.489 181.659C840.777 181.159 839.898 180.909 838.852 180.909C837.807 180.909 836.924 181.159 836.205 181.659C835.492 182.152 834.951 182.879 834.58 183.841C834.216 184.795 834.034 185.97 834.034 187.364C834.034 188.758 834.216 189.936 834.58 190.898C834.951 191.852 835.492 192.58 836.205 193.08C836.924 193.572 837.807 193.818 838.852 193.818C839.898 193.818 840.777 193.572 841.489 193.08C842.208 192.58 842.75 191.852 843.114 190.898C843.485 189.936 843.67 188.758 843.67 187.364ZM873.23 175.727V199H867.957L859.548 186.773H859.412V199H853.094V175.727H858.457L866.73 187.909H866.912V175.727H873.23Z" fill="#4F4F4F"/>
<rect x="676" y="167" width="420" height="3" rx="1.5" fill="#404040"/>
<path d="M734.169 324.388C735.531 325.397 735.798 327.344 734.616 328.559C732.554 330.677 730.182 332.498 727.569 333.961C724.044 335.935 720.151 337.219 716.112 337.738C712.074 338.258 707.969 338.003 704.033 336.988C700.096 335.973 696.405 334.219 693.17 331.825C689.934 329.43 687.218 326.443 685.177 323.034C683.135 319.625 681.808 315.86 681.271 311.955C680.734 308.049 680.997 304.08 682.047 300.273C682.84 297.394 684.072 294.65 685.696 292.13C686.574 290.769 688.419 290.533 689.721 291.496L712.023 308L734.169 324.388Z" fill="#404040"/>
<path d="M686.52 272.423C685.062 270.58 685.412 267.878 687.425 266.664C694.815 262.207 703.403 259.88 712.172 260.005C722.394 260.151 732.268 263.622 740.201 269.858C748.134 276.094 753.664 284.732 755.899 294.38C757.825 302.691 757.209 311.334 754.173 319.267C753.355 321.406 750.867 322.266 748.79 321.303V321.303C746.635 320.303 745.755 317.728 746.541 315.486C748.712 309.292 749.095 302.612 747.604 296.177C745.786 288.332 741.289 281.308 734.839 276.237C728.388 271.166 720.359 268.343 712.046 268.225C705.096 268.125 698.286 269.921 692.382 273.368C690.442 274.499 687.914 274.184 686.52 272.423V272.423Z" fill="#404040"/>
<path d="M673.129 256.744C672.059 255.392 672.318 253.415 673.752 252.456C685.157 244.826 698.764 240.808 712.684 241.007C727.669 241.221 742.143 246.309 753.772 255.451C765.401 264.593 773.507 277.255 776.784 291.397C779.834 304.561 778.534 318.292 773.111 330.667C772.437 332.206 770.619 332.839 769.095 332.132V332.132C767.514 331.398 766.857 329.507 767.544 327.905C772.311 316.795 773.428 304.504 770.696 292.716C767.726 279.897 760.378 268.419 749.837 260.132C739.295 251.845 726.175 247.233 712.592 247.039C700.007 246.859 687.703 250.482 677.382 257.363C676.011 258.277 674.152 258.037 673.129 256.744V256.744Z" fill="#404040"/>
<rect x="693" y="322" width="16" height="35" fill="#404040"/>
<rect x="673" y="352" width="56" height="9" rx="4.5" fill="#404040"/>
</svg>
