<svg width="1150" height="616" viewBox="0 0 1150 616" fill="none" xmlns="http://www.w3.org/2000/svg">
<rect width="1150" height="616" fill="#FCFCFC"/>
<rect x="104" y="63" width="451" height="271" stroke="#404040" stroke-width="6"/>
<path d="M166.489 158H158.818L167.46 131.818H177.176L185.818 158H178.148L172.42 139.028H172.216L166.489 158ZM165.057 147.67H179.477V152.989H165.057V147.67ZM188.34 158V131.818H199.641C201.584 131.818 203.284 132.172 204.742 132.879C206.199 133.587 207.333 134.605 208.142 135.935C208.952 137.264 209.357 138.858 209.357 140.716C209.357 142.591 208.939 144.172 208.104 145.459C207.277 146.746 206.114 147.717 204.614 148.374C203.123 149.03 201.38 149.358 199.385 149.358H192.635V143.835H197.953C198.789 143.835 199.5 143.733 200.088 143.528C200.685 143.315 201.141 142.979 201.456 142.518C201.78 142.058 201.942 141.457 201.942 140.716C201.942 139.966 201.78 139.357 201.456 138.888C201.141 138.411 200.685 138.061 200.088 137.839C199.5 137.609 198.789 137.494 197.953 137.494H195.448V158H188.34ZM203.681 145.983L210.226 158H202.505L196.113 145.983H203.681ZM222.461 158H212.387V131.818H222.358C225.051 131.818 227.378 132.342 229.338 133.391C231.307 134.43 232.824 135.93 233.89 137.891C234.963 139.842 235.5 142.182 235.5 144.909C235.5 147.636 234.968 149.98 233.902 151.94C232.837 153.892 231.328 155.392 229.377 156.44C227.425 157.48 225.12 158 222.461 158ZM219.495 151.966H222.205C223.5 151.966 224.604 151.757 225.516 151.339C226.436 150.922 227.135 150.202 227.613 149.179C228.098 148.156 228.341 146.733 228.341 144.909C228.341 143.085 228.094 141.662 227.6 140.639C227.114 139.616 226.398 138.896 225.452 138.479C224.515 138.061 223.364 137.852 222 137.852H219.495V151.966ZM254.283 131.818H261.391V148.591C261.391 150.585 260.914 152.311 259.96 153.768C259.013 155.217 257.692 156.338 255.996 157.131C254.3 157.915 252.332 158.307 250.09 158.307C247.832 158.307 245.854 157.915 244.158 157.131C242.462 156.338 241.141 155.217 240.195 153.768C239.258 152.311 238.789 150.585 238.789 148.591V131.818H245.897V147.977C245.897 148.787 246.076 149.511 246.434 150.151C246.792 150.781 247.286 151.276 247.917 151.634C248.556 151.991 249.281 152.17 250.09 152.17C250.908 152.17 251.633 151.991 252.263 151.634C252.894 151.276 253.388 150.781 253.746 150.151C254.104 149.511 254.283 148.787 254.283 147.977V131.818ZM271.877 131.818V158H264.77V131.818H271.877ZM297.9 131.818V158H291.968L282.507 144.244H282.354V158H275.246V131.818H281.28L290.587 145.523H290.792V131.818H297.9ZM326.625 144.909C326.625 147.824 326.059 150.283 324.925 152.286C323.792 154.28 322.262 155.793 320.336 156.824C318.409 157.847 316.262 158.358 313.892 158.358C311.506 158.358 309.35 157.842 307.424 156.811C305.506 155.771 303.98 154.254 302.847 152.26C301.722 150.257 301.159 147.807 301.159 144.909C301.159 141.994 301.722 139.54 302.847 137.545C303.98 135.543 305.506 134.03 307.424 133.007C309.35 131.976 311.506 131.46 313.892 131.46C316.262 131.46 318.409 131.976 320.336 133.007C322.262 134.03 323.792 135.543 324.925 137.545C326.059 139.54 326.625 141.994 326.625 144.909ZM319.313 144.909C319.313 143.341 319.104 142.02 318.686 140.946C318.277 139.864 317.668 139.045 316.858 138.491C316.057 137.929 315.069 137.648 313.892 137.648C312.716 137.648 311.723 137.929 310.914 138.491C310.113 139.045 309.503 139.864 309.086 140.946C308.676 142.02 308.472 143.341 308.472 144.909C308.472 146.477 308.676 147.803 309.086 148.885C309.503 149.959 310.113 150.777 310.914 151.339C311.723 151.893 312.716 152.17 313.892 152.17C315.069 152.17 316.057 151.893 316.858 151.339C317.668 150.777 318.277 149.959 318.686 148.885C319.104 147.803 319.313 146.477 319.313 144.909ZM352.58 131.818H359.688V148.591C359.688 150.585 359.211 152.311 358.256 153.768C357.31 155.217 355.989 156.338 354.293 157.131C352.597 157.915 350.629 158.307 348.387 158.307C346.129 158.307 344.151 157.915 342.455 157.131C340.759 156.338 339.438 155.217 338.492 153.768C337.555 152.311 337.086 150.585 337.086 148.591V131.818H344.194V147.977C344.194 148.787 344.373 149.511 344.731 150.151C345.089 150.781 345.583 151.276 346.214 151.634C346.853 151.991 347.577 152.17 348.387 152.17C349.205 152.17 349.93 151.991 350.56 151.634C351.191 151.276 351.685 150.781 352.043 150.151C352.401 149.511 352.58 148.787 352.58 147.977V131.818ZM385.72 131.818V158H379.788L370.328 144.244H370.174V158H363.066V131.818H369.1L378.407 145.523H378.612V131.818H385.72ZM414.446 144.909C414.446 147.824 413.879 150.283 412.745 152.286C411.612 154.28 410.082 155.793 408.156 156.824C406.23 157.847 404.082 158.358 401.713 158.358C399.326 158.358 397.17 157.842 395.244 156.811C393.326 155.771 391.801 154.254 390.667 152.26C389.542 150.257 388.98 147.807 388.98 144.909C388.98 141.994 389.542 139.54 390.667 137.545C391.801 135.543 393.326 134.03 395.244 133.007C397.17 131.976 399.326 131.46 401.713 131.46C404.082 131.46 406.23 131.976 408.156 133.007C410.082 134.03 411.612 135.543 412.745 137.545C413.879 139.54 414.446 141.994 414.446 144.909ZM407.133 144.909C407.133 143.341 406.924 142.02 406.507 140.946C406.098 139.864 405.488 139.045 404.679 138.491C403.877 137.929 402.889 137.648 401.713 137.648C400.537 137.648 399.544 137.929 398.734 138.491C397.933 139.045 397.324 139.864 396.906 140.946C396.497 142.02 396.292 143.341 396.292 144.909C396.292 146.477 396.497 147.803 396.906 148.885C397.324 149.959 397.933 150.777 398.734 151.339C399.544 151.893 400.537 152.17 401.713 152.17C402.889 152.17 403.877 151.893 404.679 151.339C405.488 150.777 406.098 149.959 406.507 148.885C406.924 147.803 407.133 146.477 407.133 144.909ZM424.906 158V131.818H436.207C438.151 131.818 439.851 132.172 441.308 132.879C442.766 133.587 443.899 134.605 444.709 135.935C445.518 137.264 445.923 138.858 445.923 140.716C445.923 142.591 445.506 144.172 444.67 145.459C443.844 146.746 442.68 147.717 441.18 148.374C439.689 149.03 437.946 149.358 435.952 149.358H429.202V143.835H434.52C435.355 143.835 436.067 143.733 436.655 143.528C437.251 143.315 437.707 142.979 438.023 142.518C438.347 142.058 438.509 141.457 438.509 140.716C438.509 139.966 438.347 139.357 438.023 138.888C437.707 138.411 437.251 138.061 436.655 137.839C436.067 137.609 435.355 137.494 434.52 137.494H432.014V158H424.906ZM440.247 145.983L446.793 158H439.071L432.679 145.983H440.247ZM459.232 158.358C457.169 158.358 455.337 158.004 453.734 157.297C452.141 156.581 450.888 155.597 449.976 154.344C449.064 153.091 448.604 151.651 448.595 150.023H455.754C455.763 150.526 455.916 150.977 456.214 151.378C456.521 151.77 456.939 152.077 457.467 152.298C457.996 152.52 458.601 152.631 459.283 152.631C459.939 152.631 460.518 152.516 461.021 152.286C461.524 152.047 461.916 151.719 462.197 151.301C462.479 150.884 462.615 150.406 462.607 149.869C462.615 149.341 462.453 148.872 462.121 148.463C461.797 148.054 461.341 147.734 460.753 147.504C460.165 147.274 459.487 147.159 458.72 147.159H456.061V142.25H458.72C459.428 142.25 460.05 142.135 460.587 141.905C461.132 141.675 461.554 141.355 461.852 140.946C462.159 140.537 462.308 140.068 462.3 139.54C462.308 139.028 462.185 138.577 461.929 138.185C461.673 137.793 461.315 137.486 460.855 137.264C460.403 137.043 459.879 136.932 459.283 136.932C458.635 136.932 458.055 137.047 457.544 137.277C457.041 137.507 456.645 137.827 456.355 138.236C456.065 138.645 455.916 139.114 455.908 139.642H449.107C449.115 138.04 449.554 136.625 450.423 135.398C451.301 134.17 452.503 133.207 454.028 132.509C455.554 131.81 457.305 131.46 459.283 131.46C461.217 131.46 462.926 131.788 464.409 132.445C465.901 133.101 467.064 134.004 467.899 135.155C468.743 136.297 469.161 137.605 469.152 139.08C469.169 140.545 468.666 141.747 467.643 142.685C466.629 143.622 465.342 144.176 463.783 144.347V144.551C465.896 144.781 467.486 145.429 468.551 146.494C469.616 147.551 470.141 148.881 470.124 150.483C470.132 152.017 469.672 153.376 468.743 154.561C467.822 155.746 466.54 156.675 464.895 157.348C463.259 158.021 461.371 158.358 459.232 158.358Z" fill="#404040"/>
<path d="M141.711 280.641C141.677 280.503 141.624 280.382 141.551 280.277C141.478 280.171 141.387 280.081 141.277 280.008C141.171 279.932 141.046 279.876 140.902 279.84C140.762 279.801 140.607 279.781 140.438 279.781C140.073 279.781 139.762 279.868 139.504 280.043C139.249 280.217 139.053 280.469 138.918 280.797C138.785 281.125 138.719 281.521 138.719 281.984C138.719 282.453 138.783 282.854 138.91 283.188C139.038 283.521 139.228 283.776 139.48 283.953C139.733 284.13 140.047 284.219 140.422 284.219C140.753 284.219 141.027 284.171 141.246 284.074C141.467 283.978 141.633 283.841 141.742 283.664C141.852 283.487 141.906 283.279 141.906 283.039L142.281 283.078H140.453V281.531H144V282.641C144 283.37 143.845 283.993 143.535 284.512C143.228 285.027 142.803 285.423 142.262 285.699C141.723 285.973 141.104 286.109 140.406 286.109C139.628 286.109 138.944 285.944 138.355 285.613C137.767 285.283 137.307 284.811 136.977 284.199C136.648 283.587 136.484 282.859 136.484 282.016C136.484 281.354 136.585 280.768 136.785 280.258C136.988 279.747 137.27 279.316 137.629 278.965C137.988 278.611 138.404 278.344 138.875 278.164C139.346 277.982 139.852 277.891 140.391 277.891C140.865 277.891 141.305 277.958 141.711 278.094C142.12 278.227 142.48 278.417 142.793 278.664C143.108 278.909 143.362 279.199 143.555 279.535C143.747 279.871 143.865 280.24 143.906 280.641H141.711ZM151.935 278V286H150.122L147.231 281.797H147.185V286H145.013V278H146.856L149.7 282.188H149.763V278H151.935ZM156.04 286H152.962V278H156.009C156.832 278 157.543 278.16 158.142 278.48C158.743 278.798 159.207 279.257 159.532 279.855C159.86 280.452 160.024 281.167 160.024 282C160.024 282.833 159.862 283.549 159.536 284.148C159.211 284.745 158.75 285.203 158.153 285.523C157.557 285.841 156.853 286 156.04 286ZM155.134 284.156H155.962C156.358 284.156 156.695 284.092 156.974 283.965C157.255 283.837 157.468 283.617 157.614 283.305C157.763 282.992 157.837 282.557 157.837 282C157.837 281.443 157.761 281.008 157.61 280.695C157.462 280.383 157.243 280.163 156.954 280.035C156.668 279.908 156.316 279.844 155.899 279.844H155.134V284.156Z" fill="#404040"/>
<path d="M368.484 281.188V282.812H364.734V281.188H368.484ZM373.096 286.109C372.63 286.109 372.187 286.036 371.768 285.891C371.351 285.742 370.981 285.509 370.658 285.191C370.335 284.874 370.081 284.46 369.896 283.949C369.714 283.439 369.624 282.82 369.627 282.094C369.63 281.445 369.713 280.862 369.877 280.344C370.044 279.826 370.279 279.384 370.584 279.02C370.891 278.655 371.258 278.376 371.686 278.184C372.113 277.988 372.588 277.891 373.111 277.891C373.7 277.891 374.218 278.004 374.666 278.23C375.114 278.457 375.471 278.76 375.736 279.141C376.005 279.518 376.161 279.935 376.205 280.391H374.064C374.015 280.164 373.9 279.999 373.721 279.895C373.544 279.788 373.34 279.734 373.111 279.734C372.656 279.734 372.321 279.932 372.107 280.328C371.896 280.724 371.788 281.245 371.783 281.891H371.83C371.932 281.646 372.085 281.436 372.291 281.262C372.497 281.087 372.736 280.953 373.01 280.859C373.283 280.766 373.572 280.719 373.877 280.719C374.361 280.719 374.785 280.828 375.146 281.047C375.511 281.266 375.795 281.565 375.998 281.945C376.201 282.326 376.301 282.76 376.299 283.25C376.301 283.823 376.166 284.324 375.893 284.754C375.622 285.184 375.245 285.517 374.764 285.754C374.282 285.991 373.726 286.109 373.096 286.109ZM373.08 284.469C373.296 284.469 373.488 284.419 373.654 284.32C373.824 284.221 373.955 284.086 374.049 283.914C374.145 283.742 374.192 283.547 374.189 283.328C374.192 283.107 374.145 282.911 374.049 282.742C373.955 282.57 373.824 282.435 373.654 282.336C373.488 282.237 373.296 282.188 373.08 282.188C372.921 282.188 372.774 282.216 372.639 282.273C372.506 282.328 372.39 282.408 372.291 282.512C372.192 282.613 372.114 282.734 372.057 282.875C372.002 283.013 371.973 283.164 371.971 283.328C371.973 283.547 372.023 283.742 372.119 283.914C372.215 284.086 372.347 284.221 372.514 284.32C372.68 284.419 372.869 284.469 373.08 284.469Z" fill="#404040"/>
<path d="M400.484 281.188V282.812H396.734V281.188H400.484ZM404.955 286.109C404.34 286.109 403.795 286.001 403.318 285.785C402.844 285.566 402.471 285.266 402.197 284.883C401.926 284.5 401.788 284.06 401.783 283.562H403.893C403.9 283.839 404.007 284.059 404.213 284.223C404.421 284.387 404.669 284.469 404.955 284.469C405.176 284.469 405.372 284.422 405.541 284.328C405.71 284.232 405.843 284.096 405.939 283.922C406.036 283.747 406.083 283.544 406.08 283.312C406.083 283.078 406.036 282.875 405.939 282.703C405.843 282.529 405.71 282.395 405.541 282.301C405.372 282.204 405.176 282.156 404.955 282.156C404.726 282.156 404.514 282.212 404.318 282.324C404.126 282.434 403.984 282.586 403.893 282.781L401.986 282.406L402.299 278H407.674V279.734H404.08L403.924 281.5H403.971C404.096 281.258 404.312 281.057 404.619 280.898C404.926 280.737 405.283 280.656 405.689 280.656C406.166 280.656 406.59 280.767 406.963 280.988C407.338 281.21 407.633 281.516 407.85 281.906C408.068 282.294 408.176 282.742 408.174 283.25C408.176 283.807 408.044 284.302 407.775 284.734C407.51 285.164 407.136 285.501 406.654 285.746C406.173 285.988 405.606 286.109 404.955 286.109Z" fill="#404040"/>
<path d="M433.484 281.188V282.812H429.734V281.188H433.484ZM437.877 286.109C437.247 286.109 436.687 286.001 436.197 285.785C435.71 285.566 435.327 285.266 435.049 284.883C434.77 284.5 434.63 284.06 434.627 283.562H436.814C436.817 283.716 436.864 283.854 436.955 283.977C437.049 284.096 437.176 284.19 437.338 284.258C437.499 284.326 437.684 284.359 437.893 284.359C438.093 284.359 438.27 284.324 438.424 284.254C438.577 284.181 438.697 284.081 438.783 283.953C438.869 283.826 438.911 283.68 438.908 283.516C438.911 283.354 438.861 283.211 438.76 283.086C438.661 282.961 438.521 282.863 438.342 282.793C438.162 282.723 437.955 282.687 437.721 282.687H436.908V281.188H437.721C437.937 281.188 438.127 281.152 438.291 281.082C438.458 281.012 438.587 280.914 438.678 280.789C438.771 280.664 438.817 280.521 438.814 280.359C438.817 280.203 438.779 280.065 438.701 279.945C438.623 279.826 438.514 279.732 438.373 279.664C438.235 279.596 438.075 279.562 437.893 279.562C437.695 279.562 437.518 279.598 437.361 279.668C437.208 279.738 437.087 279.836 436.998 279.961C436.91 280.086 436.864 280.229 436.861 280.391H434.783C434.786 279.901 434.92 279.469 435.186 279.094C435.454 278.719 435.821 278.424 436.287 278.211C436.753 277.997 437.288 277.891 437.893 277.891C438.484 277.891 439.006 277.991 439.459 278.191C439.915 278.392 440.27 278.668 440.525 279.02C440.783 279.368 440.911 279.768 440.908 280.219C440.913 280.667 440.76 281.034 440.447 281.32C440.137 281.607 439.744 281.776 439.268 281.828V281.891C439.913 281.961 440.399 282.159 440.725 282.484C441.05 282.807 441.21 283.214 441.205 283.703C441.208 284.172 441.067 284.587 440.783 284.949C440.502 285.311 440.11 285.595 439.607 285.801C439.107 286.007 438.531 286.109 437.877 286.109Z" fill="#404040"/>
<rect x="137" y="298" width="22" height="22" stroke="#404040" stroke-width="4"/>
<rect x="359" y="298" width="22" height="22" stroke="#404040" stroke-width="4"/>
<rect x="392" y="298" width="22" height="22" stroke="#404040" stroke-width="4"/>
<rect x="425" y="298" width="22" height="22" stroke="#404040" stroke-width="4"/>
<rect x="137" y="298" width="22" height="22" stroke="#404040" stroke-width="4"/>
<rect x="433" y="309" width="6" height="77" fill="#2F80ED"/>
<rect x="429" y="302" width="14" height="14" fill="#2F80ED"/>
<rect x="396" y="302" width="14" height="14" fill="#27AE60"/>
<rect x="363" y="302" width="14" height="14" fill="#EB5757"/>
<rect x="141" y="302" width="14" height="14" fill="#404040"/>
<rect x="400" y="309" width="6" height="77" fill="#27AE60"/>
<rect x="367" y="309" width="6" height="77" fill="#EB5757"/>
<rect x="366" y="418" width="6" height="46" fill="#EB5757"/>
<rect x="366" y="476" width="6" height="46" fill="#EB5757"/>
<rect x="366" y="528" width="6" height="72" transform="rotate(-90 366 528)" fill="#404040"/>
<rect x="399" y="525" width="6" height="31" fill="#404040"/>
<rect x="149" y="556" width="6" height="255" transform="rotate(-90 149 556)" fill="#404040"/>
<rect x="145" y="309" width="6" height="247" fill="#404040"/>
<rect x="399" y="418" width="6" height="46" fill="#27AE60"/>
<rect x="399" y="476" width="6" height="46" fill="#27AE60"/>
<rect x="432" y="418" width="6" height="46" fill="#2F80ED"/>
<rect x="432" y="476" width="6" height="46" fill="#2F80ED"/>
<rect x="366.872" y="386.115" width="6" height="16.4437" transform="rotate(-45 366.872 386.115)" fill="#EB5757"/>
<rect x="365.664" y="401.906" width="5.45605" height="16.739" transform="rotate(-45 365.664 401.906)" fill="#EB5757"/>
<rect x="377.5" y="390" width="6.13854" height="16.7103" transform="rotate(45 377.5 390)" fill="#EB5757"/>
<rect x="377.5" y="406" width="6" height="16.2633" transform="rotate(45 377.5 406)" fill="#EB5757"/>
<rect x="400.209" y="386.243" width="6" height="16.4437" transform="rotate(-45 400.209 386.243)" fill="#27AE60"/>
<rect x="399" y="402.034" width="5.45605" height="16.739" transform="rotate(-45 399 402.034)" fill="#27AE60"/>
<rect x="410.836" y="390.128" width="6.13854" height="16.7103" transform="rotate(45 410.836 390.128)" fill="#27AE60"/>
<rect x="410.836" y="406.128" width="6" height="16.2633" transform="rotate(45 410.836 406.128)" fill="#27AE60"/>
<rect x="433.209" y="386.243" width="6" height="16.4437" transform="rotate(-45 433.209 386.243)" fill="#2F80ED"/>
<rect x="432" y="402.034" width="5.45605" height="16.739" transform="rotate(-45 432 402.034)" fill="#2F80ED"/>
<rect x="443.836" y="390.128" width="6.13854" height="16.7103" transform="rotate(45 443.836 390.128)" fill="#2F80ED"/>
<rect x="443.836" y="406.128" width="6" height="16.2633" transform="rotate(45 443.836 406.128)" fill="#2F80ED"/>
<rect x="356" y="464" width="26" height="5" fill="#EB5757"/>
<rect x="389" y="464" width="26" height="5" fill="#27AE60"/>
<rect x="422" y="464" width="26" height="5" fill="#2F80ED"/>
<path d="M369 464L380.258 482H357.742L369 464Z" fill="#EB5757"/>
<path d="M402 464L413.258 482H390.742L402 464Z" fill="#27AE60"/>
<path d="M435 464L446.258 482H423.742L435 464Z" fill="#2F80ED"/>
<path d="M383.342 470.991C383.337 470.853 383.221 470.745 383.083 470.75L380.835 470.829C380.697 470.833 380.589 470.949 380.594 471.087C380.598 471.225 380.714 471.333 380.852 471.328L382.851 471.259L382.921 473.257C382.925 473.395 383.041 473.503 383.179 473.498C383.317 473.494 383.425 473.378 383.42 473.24L383.342 470.991ZM379.183 475.559L383.275 471.17L382.909 470.83L378.817 475.218L379.183 475.559Z" fill="#EB5757"/>
<path d="M384.271 474.963C384.266 474.825 384.151 474.717 384.013 474.722L381.764 474.8C381.626 474.805 381.518 474.921 381.523 475.059C381.528 475.197 381.644 475.305 381.781 475.3L383.78 475.23L383.85 477.229C383.855 477.367 383.971 477.475 384.109 477.47C384.247 477.465 384.355 477.35 384.35 477.212L384.271 474.963ZM380.112 479.53L384.204 475.142L383.839 474.801L379.747 479.189L380.112 479.53Z" fill="#EB5757"/>
<path d="M416.342 470.991C416.337 470.853 416.221 470.745 416.083 470.75L413.835 470.829C413.697 470.833 413.589 470.949 413.594 471.087C413.598 471.225 413.714 471.333 413.852 471.328L415.851 471.259L415.921 473.257C415.925 473.395 416.041 473.503 416.179 473.498C416.317 473.494 416.425 473.378 416.42 473.24L416.342 470.991ZM412.183 475.559L416.275 471.17L415.909 470.83L411.817 475.218L412.183 475.559Z" fill="#27AE60"/>
<path d="M417.271 474.963C417.266 474.825 417.151 474.717 417.013 474.722L414.764 474.8C414.626 474.805 414.518 474.921 414.523 475.059C414.528 475.197 414.644 475.305 414.781 475.3L416.78 475.23L416.85 477.229C416.855 477.367 416.971 477.475 417.109 477.47C417.247 477.465 417.355 477.35 417.35 477.212L417.271 474.963ZM413.112 479.53L417.204 475.142L416.839 474.801L412.747 479.189L413.112 479.53Z" fill="#27AE60"/>
<path d="M449.342 470.991C449.337 470.853 449.221 470.745 449.083 470.75L446.835 470.829C446.697 470.833 446.589 470.949 446.594 471.087C446.598 471.225 446.714 471.333 446.852 471.328L448.851 471.259L448.921 473.257C448.925 473.395 449.041 473.503 449.179 473.498C449.317 473.494 449.425 473.378 449.42 473.24L449.342 470.991ZM445.183 475.559L449.275 471.17L448.909 470.83L444.817 475.218L445.183 475.559Z" fill="#2F80ED"/>
<path d="M450.271 474.963C450.266 474.825 450.151 474.717 450.013 474.722L447.764 474.8C447.626 474.805 447.518 474.921 447.523 475.059C447.528 475.197 447.644 475.305 447.781 475.3L449.78 475.23L449.85 477.229C449.855 477.367 449.971 477.475 450.109 477.47C450.247 477.465 450.355 477.35 450.35 477.212L450.271 474.963ZM446.112 479.53L450.204 475.142L449.839 474.801L445.747 479.189L446.112 479.53Z" fill="#2F80ED"/>
<path d="M704.5 159V135.727H710.818V153.909H720.227V159H704.5ZM722.781 159V135.727H739.554V140.818H729.099V144.818H738.69V149.909H729.099V153.909H739.509V159H722.781ZM751.642 159H742.688V135.727H751.551C753.945 135.727 756.013 136.193 757.756 137.125C759.506 138.049 760.854 139.383 761.801 141.125C762.756 142.86 763.233 144.939 763.233 147.364C763.233 149.788 762.759 151.871 761.812 153.614C760.866 155.348 759.525 156.682 757.79 157.614C756.055 158.538 754.006 159 751.642 159ZM749.006 153.636H751.415C752.566 153.636 753.547 153.451 754.358 153.08C755.176 152.708 755.797 152.068 756.222 151.159C756.653 150.25 756.869 148.985 756.869 147.364C756.869 145.742 756.65 144.477 756.21 143.568C755.778 142.659 755.142 142.019 754.301 141.648C753.468 141.277 752.445 141.091 751.233 141.091H749.006V153.636ZM772.531 159V135.727H782.622C784.395 135.727 785.884 135.966 787.088 136.443C788.3 136.92 789.213 137.595 789.827 138.466C790.448 139.337 790.759 140.364 790.759 141.545C790.759 142.402 790.569 143.182 790.19 143.886C789.819 144.591 789.296 145.182 788.622 145.659C787.948 146.129 787.16 146.455 786.259 146.636V146.864C787.259 146.902 788.168 147.155 788.986 147.625C789.804 148.087 790.455 148.727 790.94 149.545C791.425 150.356 791.668 151.311 791.668 152.409C791.668 153.682 791.334 154.814 790.668 155.807C790.009 156.799 789.069 157.58 787.849 158.148C786.63 158.716 785.175 159 783.486 159H772.531ZM778.849 153.955H781.804C782.865 153.955 783.66 153.758 784.19 153.364C784.721 152.962 784.986 152.371 784.986 151.591C784.986 151.045 784.861 150.583 784.611 150.205C784.361 149.826 784.005 149.538 783.543 149.341C783.088 149.144 782.539 149.045 781.895 149.045H778.849V153.955ZM778.849 145.136H781.44C781.993 145.136 782.482 145.049 782.906 144.875C783.33 144.701 783.66 144.451 783.895 144.125C784.137 143.792 784.259 143.386 784.259 142.909C784.259 142.189 784.001 141.64 783.486 141.261C782.971 140.875 782.319 140.682 781.531 140.682H778.849V145.136ZM793.906 159V135.727H803.952C805.679 135.727 807.19 136.042 808.486 136.67C809.781 137.299 810.789 138.205 811.509 139.386C812.228 140.568 812.588 141.985 812.588 143.636C812.588 145.303 812.217 146.708 811.474 147.852C810.74 148.996 809.705 149.86 808.372 150.443C807.046 151.027 805.497 151.318 803.724 151.318H797.724V146.409H802.452C803.194 146.409 803.827 146.318 804.349 146.136C804.88 145.947 805.285 145.648 805.565 145.239C805.853 144.83 805.997 144.295 805.997 143.636C805.997 142.97 805.853 142.428 805.565 142.011C805.285 141.587 804.88 141.277 804.349 141.08C803.827 140.875 803.194 140.773 802.452 140.773H800.224V159H793.906ZM807.543 148.318L813.361 159H806.497L800.815 148.318H807.543ZM815.281 159V135.727H832.054V140.818H821.599V144.818H831.19V149.909H821.599V153.909H832.009V159H815.281ZM841.233 159H834.415L842.097 135.727H850.733L858.415 159H851.597L846.506 142.136H846.324L841.233 159ZM839.96 149.818H852.778V154.545H839.96V149.818ZM857.082 140.818V135.727H877.31V140.818H870.31V159H864.082V140.818H857.082ZM879.688 159V135.727H886.006V144.818H894.369V135.727H900.688V159H894.369V149.909H886.006V159H879.688ZM910.062 159V135.727H926.835V140.818H916.381V144.818H925.972V149.909H916.381V153.909H926.79V159H910.062ZM929.969 159V135.727H946.332V140.818H936.287V144.818H945.332V149.909H936.287V159H929.969ZM948.656 159V135.727H965.02V140.818H954.974V144.818H964.02V149.909H954.974V159H948.656ZM967.344 159V135.727H984.116V140.818H973.662V144.818H983.253V149.909H973.662V153.909H984.071V159H967.344ZM1008.98 144.455H1002.57C1002.52 143.924 1002.4 143.443 1002.2 143.011C1002.02 142.58 1001.75 142.208 1001.41 141.898C1001.08 141.58 1000.67 141.337 1000.19 141.17C999.716 140.996 999.174 140.909 998.568 140.909C997.508 140.909 996.61 141.167 995.875 141.682C995.148 142.197 994.595 142.936 994.216 143.898C993.845 144.86 993.659 146.015 993.659 147.364C993.659 148.788 993.848 149.981 994.227 150.943C994.614 151.898 995.17 152.617 995.898 153.102C996.625 153.58 997.5 153.818 998.523 153.818C999.106 153.818 999.629 153.746 1000.09 153.602C1000.55 153.451 1000.95 153.235 1001.3 152.955C1001.64 152.674 1001.91 152.337 1002.12 151.943C1002.34 151.542 1002.49 151.091 1002.57 150.591L1008.98 150.636C1008.9 151.621 1008.63 152.625 1008.15 153.648C1007.67 154.663 1006.99 155.602 1006.11 156.466C1005.24 157.322 1004.16 158.011 1002.88 158.534C1001.59 159.057 1000.09 159.318 998.386 159.318C996.25 159.318 994.333 158.86 992.636 157.943C990.947 157.027 989.61 155.678 988.625 153.898C987.648 152.117 987.159 149.939 987.159 147.364C987.159 144.773 987.659 142.591 988.659 140.818C989.659 139.038 991.008 137.693 992.705 136.784C994.402 135.867 996.295 135.409 998.386 135.409C999.856 135.409 1001.21 135.61 1002.44 136.011C1003.68 136.413 1004.76 137 1005.69 137.773C1006.63 138.538 1007.38 139.481 1007.94 140.602C1008.51 141.723 1008.86 143.008 1008.98 144.455ZM1011.21 140.818V135.727H1031.43V140.818H1024.43V159H1018.21V140.818H1011.21Z" fill="black"/>
<rect x="676" y="167" width="383" height="3" rx="1.5" fill="#404040"/>
</svg>
