<svg width="1150" height="616" viewBox="0 0 1150 616" fill="none" xmlns="http://www.w3.org/2000/svg">
<rect width="1150" height="616" fill="#FCFCFC"/>
<circle cx="855.5" cy="294.5" r="7.5" fill="#BB4545"/>
<rect x="104" y="63" width="451" height="271" stroke="#404040" stroke-width="6"/>
<path d="M166.489 158H158.818L167.46 131.818H177.176L185.818 158H178.148L172.42 139.028H172.216L166.489 158ZM165.057 147.67H179.477V152.989H165.057V147.67ZM188.34 158V131.818H199.641C201.584 131.818 203.284 132.172 204.742 132.879C206.199 133.587 207.333 134.605 208.142 135.935C208.952 137.264 209.357 138.858 209.357 140.716C209.357 142.591 208.939 144.172 208.104 145.459C207.277 146.746 206.114 147.717 204.614 148.374C203.123 149.03 201.38 149.358 199.385 149.358H192.635V143.835H197.953C198.789 143.835 199.5 143.733 200.088 143.528C200.685 143.315 201.141 142.979 201.456 142.518C201.78 142.058 201.942 141.457 201.942 140.716C201.942 139.966 201.78 139.357 201.456 138.888C201.141 138.411 200.685 138.061 200.088 137.839C199.5 137.609 198.789 137.494 197.953 137.494H195.448V158H188.34ZM203.681 145.983L210.226 158H202.505L196.113 145.983H203.681ZM222.461 158H212.387V131.818H222.358C225.051 131.818 227.378 132.342 229.338 133.391C231.307 134.43 232.824 135.93 233.89 137.891C234.963 139.842 235.5 142.182 235.5 144.909C235.5 147.636 234.968 149.98 233.902 151.94C232.837 153.892 231.328 155.392 229.377 156.44C227.425 157.48 225.12 158 222.461 158ZM219.495 151.966H222.205C223.5 151.966 224.604 151.757 225.516 151.339C226.436 150.922 227.135 150.202 227.613 149.179C228.098 148.156 228.341 146.733 228.341 144.909C228.341 143.085 228.094 141.662 227.6 140.639C227.114 139.616 226.398 138.896 225.452 138.479C224.515 138.061 223.364 137.852 222 137.852H219.495V151.966ZM254.283 131.818H261.391V148.591C261.391 150.585 260.914 152.311 259.96 153.768C259.013 155.217 257.692 156.338 255.996 157.131C254.3 157.915 252.332 158.307 250.09 158.307C247.832 158.307 245.854 157.915 244.158 157.131C242.462 156.338 241.141 155.217 240.195 153.768C239.258 152.311 238.789 150.585 238.789 148.591V131.818H245.897V147.977C245.897 148.787 246.076 149.511 246.434 150.151C246.792 150.781 247.286 151.276 247.917 151.634C248.556 151.991 249.281 152.17 250.09 152.17C250.908 152.17 251.633 151.991 252.263 151.634C252.894 151.276 253.388 150.781 253.746 150.151C254.104 149.511 254.283 148.787 254.283 147.977V131.818ZM271.877 131.818V158H264.77V131.818H271.877ZM297.9 131.818V158H291.968L282.507 144.244H282.354V158H275.246V131.818H281.28L290.587 145.523H290.792V131.818H297.9ZM326.625 144.909C326.625 147.824 326.059 150.283 324.925 152.286C323.792 154.28 322.262 155.793 320.336 156.824C318.409 157.847 316.262 158.358 313.892 158.358C311.506 158.358 309.35 157.842 307.424 156.811C305.506 155.771 303.98 154.254 302.847 152.26C301.722 150.257 301.159 147.807 301.159 144.909C301.159 141.994 301.722 139.54 302.847 137.545C303.98 135.543 305.506 134.03 307.424 133.007C309.35 131.976 311.506 131.46 313.892 131.46C316.262 131.46 318.409 131.976 320.336 133.007C322.262 134.03 323.792 135.543 324.925 137.545C326.059 139.54 326.625 141.994 326.625 144.909ZM319.313 144.909C319.313 143.341 319.104 142.02 318.686 140.946C318.277 139.864 317.668 139.045 316.858 138.491C316.057 137.929 315.069 137.648 313.892 137.648C312.716 137.648 311.723 137.929 310.914 138.491C310.113 139.045 309.503 139.864 309.086 140.946C308.676 142.02 308.472 143.341 308.472 144.909C308.472 146.477 308.676 147.803 309.086 148.885C309.503 149.959 310.113 150.777 310.914 151.339C311.723 151.893 312.716 152.17 313.892 152.17C315.069 152.17 316.057 151.893 316.858 151.339C317.668 150.777 318.277 149.959 318.686 148.885C319.104 147.803 319.313 146.477 319.313 144.909ZM352.58 131.818H359.688V148.591C359.688 150.585 359.211 152.311 358.256 153.768C357.31 155.217 355.989 156.338 354.293 157.131C352.597 157.915 350.629 158.307 348.387 158.307C346.129 158.307 344.151 157.915 342.455 157.131C340.759 156.338 339.438 155.217 338.492 153.768C337.555 152.311 337.086 150.585 337.086 148.591V131.818H344.194V147.977C344.194 148.787 344.373 149.511 344.731 150.151C345.089 150.781 345.583 151.276 346.214 151.634C346.853 151.991 347.577 152.17 348.387 152.17C349.205 152.17 349.93 151.991 350.56 151.634C351.191 151.276 351.685 150.781 352.043 150.151C352.401 149.511 352.58 148.787 352.58 147.977V131.818ZM385.72 131.818V158H379.788L370.328 144.244H370.174V158H363.066V131.818H369.1L378.407 145.523H378.612V131.818H385.72ZM414.446 144.909C414.446 147.824 413.879 150.283 412.745 152.286C411.612 154.28 410.082 155.793 408.156 156.824C406.23 157.847 404.082 158.358 401.713 158.358C399.326 158.358 397.17 157.842 395.244 156.811C393.326 155.771 391.801 154.254 390.667 152.26C389.542 150.257 388.98 147.807 388.98 144.909C388.98 141.994 389.542 139.54 390.667 137.545C391.801 135.543 393.326 134.03 395.244 133.007C397.17 131.976 399.326 131.46 401.713 131.46C404.082 131.46 406.23 131.976 408.156 133.007C410.082 134.03 411.612 135.543 412.745 137.545C413.879 139.54 414.446 141.994 414.446 144.909ZM407.133 144.909C407.133 143.341 406.924 142.02 406.507 140.946C406.098 139.864 405.488 139.045 404.679 138.491C403.877 137.929 402.889 137.648 401.713 137.648C400.537 137.648 399.544 137.929 398.734 138.491C397.933 139.045 397.324 139.864 396.906 140.946C396.497 142.02 396.292 143.341 396.292 144.909C396.292 146.477 396.497 147.803 396.906 148.885C397.324 149.959 397.933 150.777 398.734 151.339C399.544 151.893 400.537 152.17 401.713 152.17C402.889 152.17 403.877 151.893 404.679 151.339C405.488 150.777 406.098 149.959 406.507 148.885C406.924 147.803 407.133 146.477 407.133 144.909ZM424.906 158V131.818H436.207C438.151 131.818 439.851 132.172 441.308 132.879C442.766 133.587 443.899 134.605 444.709 135.935C445.518 137.264 445.923 138.858 445.923 140.716C445.923 142.591 445.506 144.172 444.67 145.459C443.844 146.746 442.68 147.717 441.18 148.374C439.689 149.03 437.946 149.358 435.952 149.358H429.202V143.835H434.52C435.355 143.835 436.067 143.733 436.655 143.528C437.251 143.315 437.707 142.979 438.023 142.518C438.347 142.058 438.509 141.457 438.509 140.716C438.509 139.966 438.347 139.357 438.023 138.888C437.707 138.411 437.251 138.061 436.655 137.839C436.067 137.609 435.355 137.494 434.52 137.494H432.014V158H424.906ZM440.247 145.983L446.793 158H439.071L432.679 145.983H440.247ZM459.232 158.358C457.169 158.358 455.337 158.004 453.734 157.297C452.141 156.581 450.888 155.597 449.976 154.344C449.064 153.091 448.604 151.651 448.595 150.023H455.754C455.763 150.526 455.916 150.977 456.214 151.378C456.521 151.77 456.939 152.077 457.467 152.298C457.996 152.52 458.601 152.631 459.283 152.631C459.939 152.631 460.518 152.516 461.021 152.286C461.524 152.047 461.916 151.719 462.197 151.301C462.479 150.884 462.615 150.406 462.607 149.869C462.615 149.341 462.453 148.872 462.121 148.463C461.797 148.054 461.341 147.734 460.753 147.504C460.165 147.274 459.487 147.159 458.72 147.159H456.061V142.25H458.72C459.428 142.25 460.05 142.135 460.587 141.905C461.132 141.675 461.554 141.355 461.852 140.946C462.159 140.537 462.308 140.068 462.3 139.54C462.308 139.028 462.185 138.577 461.929 138.185C461.673 137.793 461.315 137.486 460.855 137.264C460.403 137.043 459.879 136.932 459.283 136.932C458.635 136.932 458.055 137.047 457.544 137.277C457.041 137.507 456.645 137.827 456.355 138.236C456.065 138.645 455.916 139.114 455.908 139.642H449.107C449.115 138.04 449.554 136.625 450.423 135.398C451.301 134.17 452.503 133.207 454.028 132.509C455.554 131.81 457.305 131.46 459.283 131.46C461.217 131.46 462.926 131.788 464.409 132.445C465.901 133.101 467.064 134.004 467.899 135.155C468.743 136.297 469.161 137.605 469.152 139.08C469.169 140.545 468.666 141.747 467.643 142.685C466.629 143.622 465.342 144.176 463.783 144.347V144.551C465.896 144.781 467.486 145.429 468.551 146.494C469.616 147.551 470.141 148.881 470.124 150.483C470.132 152.017 469.672 153.376 468.743 154.561C467.822 155.746 466.54 156.675 464.895 157.348C463.259 158.021 461.371 158.358 459.232 158.358Z" fill="#404040"/>
<path d="M141.711 280.641C141.677 280.503 141.624 280.382 141.551 280.277C141.478 280.171 141.387 280.081 141.277 280.008C141.171 279.932 141.046 279.876 140.902 279.84C140.762 279.801 140.607 279.781 140.438 279.781C140.073 279.781 139.762 279.868 139.504 280.043C139.249 280.217 139.053 280.469 138.918 280.797C138.785 281.125 138.719 281.521 138.719 281.984C138.719 282.453 138.783 282.854 138.91 283.188C139.038 283.521 139.228 283.776 139.48 283.953C139.733 284.13 140.047 284.219 140.422 284.219C140.753 284.219 141.027 284.171 141.246 284.074C141.467 283.978 141.633 283.841 141.742 283.664C141.852 283.487 141.906 283.279 141.906 283.039L142.281 283.078H140.453V281.531H144V282.641C144 283.37 143.845 283.993 143.535 284.512C143.228 285.027 142.803 285.423 142.262 285.699C141.723 285.973 141.104 286.109 140.406 286.109C139.628 286.109 138.944 285.944 138.355 285.613C137.767 285.283 137.307 284.811 136.977 284.199C136.648 283.587 136.484 282.859 136.484 282.016C136.484 281.354 136.585 280.768 136.785 280.258C136.988 279.747 137.27 279.316 137.629 278.965C137.988 278.611 138.404 278.344 138.875 278.164C139.346 277.982 139.852 277.891 140.391 277.891C140.865 277.891 141.305 277.958 141.711 278.094C142.12 278.227 142.48 278.417 142.793 278.664C143.108 278.909 143.362 279.199 143.555 279.535C143.747 279.871 143.865 280.24 143.906 280.641H141.711ZM151.935 278V286H150.122L147.231 281.797H147.185V286H145.013V278H146.856L149.7 282.188H149.763V278H151.935ZM156.04 286H152.962V278H156.009C156.832 278 157.543 278.16 158.142 278.48C158.743 278.798 159.207 279.257 159.532 279.855C159.86 280.452 160.024 281.167 160.024 282C160.024 282.833 159.862 283.549 159.536 284.148C159.211 284.745 158.75 285.203 158.153 285.523C157.557 285.841 156.853 286 156.04 286ZM155.134 284.156H155.962C156.358 284.156 156.695 284.092 156.974 283.965C157.255 283.837 157.468 283.617 157.614 283.305C157.763 282.992 157.837 282.557 157.837 282C157.837 281.443 157.761 281.008 157.61 280.695C157.462 280.383 157.243 280.163 156.954 280.035C156.668 279.908 156.316 279.844 155.899 279.844H155.134V284.156Z" fill="#404040"/>
<path d="M525.109 281.188V282.812H521.359V281.188H525.109ZM529.501 277.891C529.968 277.891 530.409 277.965 530.826 278.113C531.242 278.259 531.611 278.49 531.931 278.805C532.254 279.12 532.507 279.531 532.689 280.039C532.874 280.544 532.968 281.156 532.97 281.875C532.973 282.531 532.891 283.121 532.724 283.645C532.56 284.165 532.324 284.609 532.017 284.977C531.712 285.344 531.345 285.625 530.916 285.82C530.488 286.013 530.012 286.109 529.486 286.109C528.895 286.109 528.375 285.996 527.927 285.77C527.479 285.543 527.123 285.238 526.857 284.855C526.591 284.473 526.436 284.047 526.392 283.578H528.533C528.585 283.82 528.699 283.996 528.876 284.105C529.054 284.212 529.257 284.266 529.486 284.266C529.944 284.266 530.279 284.068 530.49 283.672C530.703 283.273 530.811 282.742 530.814 282.078H530.767C530.666 282.323 530.512 282.533 530.306 282.707C530.1 282.882 529.861 283.016 529.587 283.109C529.314 283.203 529.025 283.25 528.72 283.25C528.238 283.25 527.817 283.142 527.455 282.926C527.093 282.707 526.81 282.409 526.607 282.031C526.404 281.651 526.301 281.219 526.298 280.734C526.296 280.167 526.43 279.669 526.701 279.242C526.972 278.815 527.348 278.483 527.83 278.246C528.311 278.009 528.869 277.891 529.501 277.891ZM529.517 279.531C529.301 279.531 529.108 279.581 528.939 279.68C528.772 279.779 528.641 279.913 528.544 280.082C528.451 280.251 528.405 280.443 528.408 280.656C528.41 280.87 528.458 281.061 528.552 281.23C528.649 281.4 528.779 281.534 528.943 281.633C529.11 281.732 529.301 281.781 529.517 281.781C529.676 281.781 529.823 281.754 529.958 281.699C530.094 281.642 530.211 281.562 530.31 281.461C530.412 281.357 530.49 281.237 530.544 281.102C530.602 280.964 530.629 280.815 530.626 280.656C530.624 280.443 530.574 280.251 530.478 280.082C530.382 279.913 530.25 279.779 530.083 279.68C529.917 279.581 529.728 279.531 529.517 279.531Z" fill="#404040"/>
<path d="M510.109 243C510.109 243.646 510.009 244.223 509.809 244.731C509.608 245.236 509.336 245.635 508.992 245.926C508.648 246.215 508.26 246.36 507.828 246.36C507.497 246.36 507.195 246.278 506.922 246.114C506.648 245.947 506.422 245.723 506.242 245.442C506.06 245.161 505.943 244.847 505.891 244.5H505.828C505.75 244.956 505.548 245.331 505.223 245.625C504.895 245.917 504.508 246.063 504.062 246.063C503.643 246.063 503.271 245.93 502.945 245.665C502.617 245.399 502.359 245.036 502.172 244.575C501.984 244.114 501.891 243.589 501.891 243C501.891 242.412 501.986 241.887 502.176 241.426C502.363 240.965 502.621 240.602 502.949 240.336C503.275 240.071 503.646 239.938 504.062 239.938C504.51 239.938 504.897 240.086 505.223 240.383C505.548 240.68 505.75 241.053 505.828 241.5H505.891C505.943 241.157 506.06 240.844 506.242 240.563C506.422 240.282 506.648 240.058 506.922 239.891C507.195 239.724 507.497 239.641 507.828 239.641C508.26 239.641 508.648 239.787 508.992 240.079C509.336 240.368 509.608 240.766 509.809 241.274C510.009 241.779 510.109 242.355 510.109 243ZM508.609 243C508.609 242.795 508.568 242.612 508.484 242.454C508.401 242.295 508.286 242.17 508.141 242.079C507.992 241.985 507.826 241.938 507.641 241.938C507.456 241.938 507.292 241.985 507.148 242.079C507.005 242.17 506.893 242.295 506.812 242.454C506.729 242.612 506.687 242.795 506.687 243C506.687 243.204 506.729 243.386 506.812 243.547C506.893 243.706 507.005 243.833 507.148 243.926C507.292 244.017 507.456 244.063 507.641 244.063C507.826 244.063 507.991 244.017 508.137 243.926C508.283 243.833 508.398 243.706 508.484 243.547C508.568 243.386 508.609 243.204 508.609 243ZM505.188 243C505.188 242.818 505.15 242.657 505.074 242.516C504.999 242.375 504.895 242.265 504.762 242.184C504.629 242.103 504.479 242.063 504.312 242.063C504.146 242.063 503.999 242.103 503.871 242.184C503.741 242.265 503.639 242.375 503.566 242.516C503.491 242.657 503.453 242.818 503.453 243C503.453 243.18 503.491 243.342 503.566 243.485C503.639 243.625 503.741 243.736 503.871 243.817C503.999 243.898 504.146 243.938 504.312 243.938C504.479 243.938 504.629 243.898 504.762 243.817C504.892 243.736 504.996 243.625 505.074 243.485C505.15 243.342 505.188 243.18 505.188 243Z" fill="#404040"/>
<path d="M509.109 214.322C509.109 214.937 509.001 215.482 508.785 215.959C508.566 216.433 508.266 216.807 507.883 217.08C507.5 217.351 507.06 217.489 506.562 217.494V215.385C506.839 215.377 507.059 215.27 507.223 215.064C507.387 214.856 507.469 214.609 507.469 214.322C507.469 214.101 507.422 213.906 507.328 213.736C507.232 213.567 507.096 213.434 506.922 213.338C506.747 213.242 506.544 213.195 506.312 213.197C506.078 213.195 505.875 213.242 505.703 213.338C505.529 213.434 505.395 213.567 505.301 213.736C505.204 213.906 505.156 214.101 505.156 214.322C505.156 214.551 505.212 214.764 505.324 214.959C505.434 215.152 505.586 215.294 505.781 215.385L505.406 217.291L501 216.979V211.604H502.734V215.197L504.5 215.354V215.307C504.258 215.182 504.057 214.965 503.898 214.658C503.737 214.351 503.656 213.994 503.656 213.588C503.656 213.111 503.767 212.687 503.988 212.314C504.21 211.939 504.516 211.644 504.906 211.428C505.294 211.209 505.742 211.101 506.25 211.104C506.807 211.101 507.302 211.234 507.734 211.502C508.164 211.768 508.501 212.141 508.746 212.623C508.988 213.105 509.109 213.671 509.109 214.322ZM501 207.995L506.641 206.354V206.292L501 204.651V202.198L509 204.839V207.808L501 210.448V207.995Z" fill="#404040"/>
<path d="M430.115 278V286H427.943V280H427.896L426.146 281.047V279.203L428.115 278H430.115ZM431.758 286V284.438L434.742 281.969C434.94 281.805 435.109 281.651 435.25 281.508C435.393 281.362 435.503 281.212 435.578 281.059C435.656 280.905 435.695 280.734 435.695 280.547C435.695 280.341 435.651 280.165 435.563 280.02C435.477 279.874 435.357 279.762 435.203 279.684C435.049 279.603 434.872 279.562 434.672 279.562C434.471 279.562 434.294 279.603 434.141 279.684C433.99 279.764 433.872 279.883 433.789 280.039C433.706 280.195 433.664 280.385 433.664 280.609H431.602C431.602 280.047 431.728 279.562 431.98 279.156C432.233 278.75 432.59 278.438 433.051 278.219C433.512 278 434.052 277.891 434.672 277.891C435.313 277.891 435.867 277.993 436.336 278.199C436.807 278.402 437.171 278.689 437.426 279.059C437.684 279.428 437.813 279.862 437.813 280.359C437.813 280.667 437.749 280.973 437.621 281.277C437.493 281.579 437.264 281.914 436.934 282.281C436.603 282.648 436.133 283.086 435.523 283.594L434.773 284.219V284.266H437.898V286H431.758Z" fill="#404040"/>
<path d="M459.31 281.188V282.812H455.56V281.188H459.31ZM464.499 278V286H462.327V280H462.28L460.53 281.047V279.203L462.499 278H464.499ZM470.063 278V286H467.892V280H467.845L466.095 281.047V279.203L468.063 278H470.063Z" fill="#404040"/>
<path d="M488.074 281.188V282.812H484.324V281.188H488.074ZM493.264 278V286H491.092V280H491.045L489.295 281.047V279.203L491.264 278H493.264ZM498.391 286.219C497.664 286.216 497.036 286.048 496.508 285.715C495.979 285.382 495.572 284.901 495.285 284.273C494.999 283.646 494.857 282.893 494.859 282.016C494.862 281.135 495.005 280.388 495.289 279.773C495.576 279.159 495.982 278.691 496.508 278.371C497.036 278.051 497.664 277.891 498.391 277.891C499.117 277.891 499.745 278.052 500.273 278.375C500.802 278.695 501.21 279.163 501.496 279.777C501.783 280.392 501.924 281.138 501.922 282.016C501.922 282.898 501.779 283.654 501.492 284.281C501.206 284.909 500.798 285.389 500.27 285.723C499.743 286.053 499.117 286.219 498.391 286.219ZM498.391 284.453C498.766 284.453 499.073 284.258 499.313 283.867C499.555 283.474 499.674 282.857 499.672 282.016C499.672 281.466 499.617 281.017 499.508 280.668C499.398 280.319 499.247 280.061 499.055 279.895C498.862 279.725 498.641 279.641 498.391 279.641C498.016 279.641 497.71 279.831 497.473 280.211C497.236 280.591 497.115 281.193 497.109 282.016C497.107 282.576 497.16 283.036 497.27 283.398C497.379 283.758 497.53 284.023 497.723 284.195C497.918 284.367 498.141 284.453 498.391 284.453Z" fill="#404040"/>
<rect x="137" y="298" width="22" height="22" stroke="#404040" stroke-width="4"/>
<rect x="482" y="297" width="22" height="22" stroke="#404040" stroke-width="4"/>
<rect x="421" y="297" width="22" height="22" stroke="#404040" stroke-width="4"/>
<rect x="452" y="297" width="22" height="22" stroke="#404040" stroke-width="4"/>
<rect x="516" y="297" width="22" height="22" stroke="#404040" stroke-width="4"/>
<rect x="516" y="232" width="22" height="22" stroke="#404040" stroke-width="4"/>
<rect x="516" y="199" width="22" height="22" stroke="#404040" stroke-width="4"/>
<rect x="137" y="298" width="22" height="22" stroke="#404040" stroke-width="4"/>
<rect x="141" y="302" width="14" height="14" fill="#404040"/>
<rect x="429" y="308" width="6" height="77" fill="#F2C94C"/>
<rect x="149" y="556" width="6" height="554" transform="rotate(-90 149 556)" fill="#404040"/>
<rect x="697" y="269" width="6" height="287" fill="#404040"/>
<rect x="145" y="309" width="6" height="247" fill="#404040"/>
<rect x="459" y="476" width="6" height="74" fill="#EB5757"/>
<rect x="486" y="301" width="14" height="14" fill="#2F80ED"/>
<rect x="490" y="308" width="6" height="77" fill="#2F80ED"/>
<rect x="489" y="417" width="6" height="46" fill="#2F80ED"/>
<rect x="489" y="475" width="6" height="75" fill="#2F80ED"/>
<rect x="489.872" y="385.115" width="6" height="16.4437" transform="rotate(-45 489.872 385.115)" fill="#2F80ED"/>
<rect x="488.664" y="400.906" width="5.45605" height="16.739" transform="rotate(-45 488.664 400.906)" fill="#2F80ED"/>
<rect x="500.5" y="389" width="6.13854" height="16.7103" transform="rotate(45 500.5 389)" fill="#2F80ED"/>
<rect x="500.5" y="405" width="6" height="16.2633" transform="rotate(45 500.5 405)" fill="#2F80ED"/>
<rect x="479" y="463" width="26" height="5" fill="#2F80ED"/>
<path d="M492 463L503.258 481H480.742L492 463Z" fill="#2F80ED"/>
<path d="M506.342 469.991C506.337 469.853 506.221 469.745 506.083 469.75L503.835 469.829C503.697 469.833 503.589 469.949 503.594 470.087C503.598 470.225 503.714 470.333 503.852 470.328L505.851 470.259L505.921 472.257C505.925 472.395 506.041 472.503 506.179 472.498C506.317 472.494 506.425 472.378 506.42 472.24L506.342 469.991ZM502.183 474.559L506.275 470.17L505.909 469.83L501.817 474.218L502.183 474.559Z" fill="#2F80ED"/>
<path d="M507.271 473.963C507.266 473.825 507.151 473.717 507.013 473.722L504.764 473.8C504.626 473.805 504.518 473.921 504.523 474.059C504.528 474.197 504.644 474.305 504.782 474.3L506.78 474.23L506.85 476.229C506.855 476.367 506.971 476.475 507.109 476.47C507.247 476.465 507.355 476.35 507.35 476.212L507.271 473.963ZM503.112 478.53L507.204 474.142L506.839 473.801L502.747 478.189L503.112 478.53Z" fill="#2F80ED"/>
<rect x="425" y="301" width="14" height="14" fill="#F2C94C"/>
<rect x="428" y="417" width="6" height="46" fill="#F2C94C"/>
<rect x="428" y="475" width="6" height="75" fill="#F2C94C"/>
<rect x="429.209" y="385.243" width="6" height="16.4437" transform="rotate(-45 429.209 385.243)" fill="#F2C94C"/>
<rect x="428" y="401.034" width="5.45605" height="16.739" transform="rotate(-45 428 401.034)" fill="#F2C94C"/>
<rect x="439.836" y="389.128" width="6.13854" height="16.7103" transform="rotate(45 439.836 389.128)" fill="#F2C94C"/>
<rect x="439.836" y="405.128" width="6" height="16.2633" transform="rotate(45 439.836 405.128)" fill="#F2C94C"/>
<rect x="418" y="463" width="26" height="5" fill="#F2C94C"/>
<path d="M431 463L442.258 481H419.742L431 463Z" fill="#F2C94C"/>
<path d="M445.342 469.991C445.337 469.853 445.221 469.745 445.083 469.75L442.835 469.829C442.697 469.833 442.589 469.949 442.594 470.087C442.598 470.225 442.714 470.333 442.852 470.328L444.851 470.259L444.921 472.257C444.925 472.395 445.041 472.503 445.179 472.498C445.317 472.494 445.425 472.378 445.42 472.24L445.342 469.991ZM441.183 474.559L445.275 470.17L444.909 469.83L440.817 474.218L441.183 474.559Z" fill="#F2C94C"/>
<path d="M446.271 473.963C446.266 473.825 446.151 473.717 446.013 473.722L443.764 473.8C443.626 473.805 443.518 473.921 443.523 474.059C443.528 474.197 443.644 474.305 443.782 474.3L445.78 474.23L445.85 476.229C445.855 476.367 445.971 476.475 446.109 476.47C446.247 476.465 446.355 476.35 446.35 476.212L446.271 473.963ZM442.112 478.53L446.204 474.142L445.839 473.801L441.747 478.189L442.112 478.53Z" fill="#F2C94C"/>
<rect x="460" y="308" width="6" height="77" fill="#EB5757"/>
<path d="M523 213V207H676V213H523Z" fill="#EB5757"/>
<path d="M524 246V240H687V246H524Z" fill="#6C57EB"/>
<path d="M594 207H600V550H594V207Z" fill="#EB5757"/>
<rect x="456" y="301" width="14" height="14" fill="#EB5757"/>
<rect x="520" y="203" width="14" height="14" fill="#EB5757"/>
<rect x="520" y="236" width="14" height="14" fill="#6C57EB"/>
<rect x="459" y="417" width="6" height="46" fill="#EB5757"/>
<rect x="460.209" y="385.243" width="6" height="16.4437" transform="rotate(-45 460.209 385.243)" fill="#EB5757"/>
<rect x="459" y="401.034" width="5.45605" height="16.739" transform="rotate(-45 459 401.034)" fill="#EB5757"/>
<rect x="470.836" y="389.128" width="6.13854" height="16.7103" transform="rotate(45 470.836 389.128)" fill="#EB5757"/>
<rect x="470.836" y="405.128" width="6" height="16.2633" transform="rotate(45 470.836 405.128)" fill="#EB5757"/>
<rect x="449" y="463" width="26" height="5" fill="#EB5757"/>
<path d="M462 463L473.258 481H450.742L462 463Z" fill="#EB5757"/>
<path d="M476.342 469.991C476.337 469.853 476.221 469.745 476.083 469.75L473.835 469.829C473.697 469.833 473.589 469.949 473.594 470.087C473.598 470.225 473.714 470.333 473.852 470.328L475.851 470.259L475.921 472.257C475.925 472.395 476.041 472.503 476.179 472.498C476.317 472.494 476.425 472.378 476.42 472.24L476.342 469.991ZM472.183 474.559L476.275 470.17L475.909 469.83L471.817 474.218L472.183 474.559Z" fill="#EB5757"/>
<path d="M477.271 473.963C477.266 473.825 477.151 473.717 477.013 473.722L474.764 473.8C474.626 473.805 474.518 473.921 474.523 474.059C474.528 474.197 474.644 474.305 474.782 474.3L476.78 474.23L476.85 476.229C476.855 476.367 476.971 476.475 477.109 476.47C477.247 476.465 477.355 476.35 477.35 476.212L477.271 473.963ZM473.112 478.53L477.204 474.142L476.839 473.801L472.747 478.189L473.112 478.53Z" fill="#EB5757"/>
<rect x="524" y="308" width="6" height="77" fill="#27AE60"/>
<rect x="520" y="301" width="14" height="14" fill="#27AE60"/>
<rect x="523" y="417" width="6" height="46" fill="#27AE60"/>
<rect x="523" y="475" width="6" height="75" fill="#27AE60"/>
<rect x="524.209" y="385.243" width="6" height="16.4437" transform="rotate(-45 524.209 385.243)" fill="#27AE60"/>
<rect x="523" y="401.034" width="5.45605" height="16.739" transform="rotate(-45 523 401.034)" fill="#27AE60"/>
<rect x="534.836" y="389.128" width="6.13854" height="16.7103" transform="rotate(45 534.836 389.128)" fill="#27AE60"/>
<rect x="534.836" y="405.128" width="6" height="16.2633" transform="rotate(45 534.836 405.128)" fill="#27AE60"/>
<rect x="513" y="463" width="26" height="5" fill="#27AE60"/>
<path d="M526 463L537.258 481H514.742L526 463Z" fill="#27AE60"/>
<path d="M540.342 469.991C540.337 469.853 540.221 469.745 540.083 469.75L537.835 469.829C537.697 469.833 537.589 469.949 537.594 470.087C537.598 470.225 537.714 470.333 537.852 470.328L539.851 470.259L539.921 472.257C539.925 472.395 540.041 472.503 540.179 472.498C540.317 472.494 540.425 472.378 540.42 472.24L540.342 469.991ZM536.183 474.559L540.275 470.17L539.909 469.83L535.817 474.218L536.183 474.559Z" fill="#27AE60"/>
<path d="M541.271 473.963C541.266 473.825 541.151 473.717 541.013 473.722L538.764 473.8C538.626 473.805 538.518 473.921 538.523 474.059C538.528 474.197 538.644 474.305 538.782 474.3L540.78 474.23L540.85 476.229C540.855 476.367 540.971 476.475 541.109 476.47C541.247 476.465 541.355 476.35 541.35 476.212L541.271 473.963ZM537.112 478.53L541.204 474.142L540.839 473.801L536.747 478.189L537.112 478.53Z" fill="#27AE60"/>
<path d="M710.818 135.727V159H704.5V135.727H710.818ZM713.812 159V135.727H723.858C725.585 135.727 727.097 136.042 728.392 136.67C729.688 137.299 730.695 138.205 731.415 139.386C732.134 140.568 732.494 141.985 732.494 143.636C732.494 145.303 732.123 146.708 731.381 147.852C730.646 148.996 729.612 149.86 728.278 150.443C726.953 151.027 725.403 151.318 723.631 151.318H717.631V146.409H722.358C723.1 146.409 723.733 146.318 724.256 146.136C724.786 145.947 725.191 145.648 725.472 145.239C725.759 144.83 725.903 144.295 725.903 143.636C725.903 142.97 725.759 142.428 725.472 142.011C725.191 141.587 724.786 141.277 724.256 141.08C723.733 140.875 723.1 140.773 722.358 140.773H720.131V159H713.812ZM727.449 148.318L733.267 159H726.403L720.722 148.318H727.449ZM763.29 144.455H756.881C756.835 143.924 756.714 143.443 756.517 143.011C756.328 142.58 756.063 142.208 755.722 141.898C755.388 141.58 754.983 141.337 754.506 141.17C754.028 140.996 753.487 140.909 752.881 140.909C751.82 140.909 750.922 141.167 750.188 141.682C749.46 142.197 748.907 142.936 748.528 143.898C748.157 144.86 747.972 146.015 747.972 147.364C747.972 148.788 748.161 149.981 748.54 150.943C748.926 151.898 749.483 152.617 750.21 153.102C750.938 153.58 751.813 153.818 752.835 153.818C753.419 153.818 753.941 153.746 754.403 153.602C754.866 153.451 755.267 153.235 755.608 152.955C755.949 152.674 756.225 152.337 756.438 151.943C756.657 151.542 756.805 151.091 756.881 150.591L763.29 150.636C763.214 151.621 762.938 152.625 762.46 153.648C761.983 154.663 761.305 155.602 760.426 156.466C759.555 157.322 758.475 158.011 757.188 158.534C755.9 159.057 754.403 159.318 752.699 159.318C750.562 159.318 748.646 158.86 746.949 157.943C745.259 157.027 743.922 155.678 742.938 153.898C741.96 152.117 741.472 149.939 741.472 147.364C741.472 144.773 741.972 142.591 742.972 140.818C743.972 139.038 745.32 137.693 747.017 136.784C748.714 135.867 750.608 135.409 752.699 135.409C754.169 135.409 755.521 135.61 756.756 136.011C757.991 136.413 759.074 137 760.006 137.773C760.938 138.538 761.688 139.481 762.256 140.602C762.824 141.723 763.169 143.008 763.29 144.455ZM788.702 147.364C788.702 149.955 788.198 152.14 787.19 153.92C786.183 155.693 784.823 157.038 783.111 157.955C781.399 158.864 779.49 159.318 777.384 159.318C775.262 159.318 773.346 158.86 771.634 157.943C769.929 157.019 768.573 155.67 767.565 153.898C766.565 152.117 766.065 149.939 766.065 147.364C766.065 144.773 766.565 142.591 767.565 140.818C768.573 139.038 769.929 137.693 771.634 136.784C773.346 135.867 775.262 135.409 777.384 135.409C779.49 135.409 781.399 135.867 783.111 136.784C784.823 137.693 786.183 139.038 787.19 140.818C788.198 142.591 788.702 144.773 788.702 147.364ZM782.202 147.364C782.202 145.97 782.016 144.795 781.645 143.841C781.281 142.879 780.74 142.152 780.02 141.659C779.308 141.159 778.429 140.909 777.384 140.909C776.338 140.909 775.455 141.159 774.736 141.659C774.024 142.152 773.482 142.879 773.111 143.841C772.747 144.795 772.565 145.97 772.565 147.364C772.565 148.758 772.747 149.936 773.111 150.898C773.482 151.852 774.024 152.58 774.736 153.08C775.455 153.572 776.338 153.818 777.384 153.818C778.429 153.818 779.308 153.572 780.02 153.08C780.74 152.58 781.281 151.852 781.645 150.898C782.016 149.936 782.202 148.758 782.202 147.364ZM811.761 135.727V159H806.489L798.08 146.773H797.943V159H791.625V135.727H796.989L805.261 147.909H805.443V135.727H811.761ZM814.114 140.818V135.727H834.341V140.818H827.341V159H821.114V140.818H814.114ZM836.719 159V135.727H846.764C848.491 135.727 850.003 136.042 851.298 136.67C852.594 137.299 853.601 138.205 854.321 139.386C855.041 140.568 855.401 141.985 855.401 143.636C855.401 145.303 855.029 146.708 854.287 147.852C853.552 148.996 852.518 149.86 851.185 150.443C849.859 151.027 848.31 151.318 846.537 151.318H840.537V146.409H845.264C846.007 146.409 846.639 146.318 847.162 146.136C847.692 145.947 848.098 145.648 848.378 145.239C848.666 144.83 848.81 144.295 848.81 143.636C848.81 142.97 848.666 142.428 848.378 142.011C848.098 141.587 847.692 141.277 847.162 141.08C846.639 140.875 846.007 140.773 845.264 140.773H843.037V159H836.719ZM850.355 148.318L856.173 159H849.31L843.628 148.318H850.355ZM880.639 147.364C880.639 149.955 880.135 152.14 879.128 153.92C878.12 155.693 876.76 157.038 875.048 157.955C873.336 158.864 871.427 159.318 869.321 159.318C867.2 159.318 865.283 158.86 863.571 157.943C861.866 157.019 860.51 155.67 859.503 153.898C858.503 152.117 858.003 149.939 858.003 147.364C858.003 144.773 858.503 142.591 859.503 140.818C860.51 139.038 861.866 137.693 863.571 136.784C865.283 135.867 867.2 135.409 869.321 135.409C871.427 135.409 873.336 135.867 875.048 136.784C876.76 137.693 878.12 139.038 879.128 140.818C880.135 142.591 880.639 144.773 880.639 147.364ZM874.139 147.364C874.139 145.97 873.954 144.795 873.582 143.841C873.219 142.879 872.677 142.152 871.957 141.659C871.245 141.159 870.366 140.909 869.321 140.909C868.276 140.909 867.393 141.159 866.673 141.659C865.961 142.152 865.42 142.879 865.048 143.841C864.685 144.795 864.503 145.97 864.503 147.364C864.503 148.758 864.685 149.936 865.048 150.898C865.42 151.852 865.961 152.58 866.673 153.08C867.393 153.572 868.276 153.818 869.321 153.818C870.366 153.818 871.245 153.572 871.957 153.08C872.677 152.58 873.219 151.852 873.582 150.898C873.954 149.936 874.139 148.758 874.139 147.364ZM883.562 159V135.727H889.881V153.909H899.29V159H883.562ZM901.844 159V135.727H918.616V140.818H908.162V144.818H917.753V149.909H908.162V153.909H918.571V159H901.844ZM930.705 159H921.75V135.727H930.614C933.008 135.727 935.076 136.193 936.818 137.125C938.568 138.049 939.917 139.383 940.864 141.125C941.818 142.86 942.295 144.939 942.295 147.364C942.295 149.788 941.822 151.871 940.875 153.614C939.928 155.348 938.587 156.682 936.852 157.614C935.117 158.538 933.068 159 930.705 159ZM928.068 153.636H930.477C931.629 153.636 932.61 153.451 933.42 153.08C934.239 152.708 934.86 152.068 935.284 151.159C935.716 150.25 935.932 148.985 935.932 147.364C935.932 145.742 935.712 144.477 935.273 143.568C934.841 142.659 934.205 142.019 933.364 141.648C932.53 141.277 931.508 141.091 930.295 141.091H928.068V153.636ZM951.594 159V135.727H957.912V153.909H967.321V159H951.594ZM969.875 159V135.727H986.648V140.818H976.193V144.818H985.784V149.909H976.193V153.909H986.602V159H969.875ZM998.736 159H989.781V135.727H998.645C1001.04 135.727 1003.11 136.193 1004.85 137.125C1006.6 138.049 1007.95 139.383 1008.89 141.125C1009.85 142.86 1010.33 144.939 1010.33 147.364C1010.33 149.788 1009.85 151.871 1008.91 153.614C1007.96 155.348 1006.62 156.682 1004.88 157.614C1003.15 158.538 1001.1 159 998.736 159ZM996.099 153.636H998.509C999.66 153.636 1000.64 153.451 1001.45 153.08C1002.27 152.708 1002.89 152.068 1003.32 151.159C1003.75 150.25 1003.96 148.985 1003.96 147.364C1003.96 145.742 1003.74 144.477 1003.3 143.568C1002.87 142.659 1002.24 142.019 1001.39 141.648C1000.56 141.277 999.539 141.091 998.327 141.091H996.099V153.636ZM1025.8 143C1025.73 142.242 1025.45 141.652 1024.94 141.227C1024.44 140.803 1023.68 140.591 1022.66 140.591C1022.01 140.591 1021.47 140.67 1021.06 140.83C1020.65 140.981 1020.34 141.189 1020.15 141.455C1019.95 141.72 1019.85 142.023 1019.84 142.364C1019.83 142.644 1019.88 142.898 1019.99 143.125C1020.11 143.345 1020.3 143.545 1020.56 143.727C1020.81 143.902 1021.14 144.061 1021.55 144.205C1021.95 144.348 1022.42 144.477 1022.98 144.591L1024.89 145C1026.17 145.273 1027.28 145.633 1028.19 146.08C1029.11 146.527 1029.86 147.053 1030.44 147.659C1031.03 148.258 1031.45 148.932 1031.73 149.682C1032.01 150.432 1032.15 151.25 1032.16 152.136C1032.15 153.667 1031.77 154.962 1031.01 156.023C1030.25 157.083 1029.17 157.89 1027.76 158.443C1026.36 158.996 1024.67 159.273 1022.7 159.273C1020.68 159.273 1018.92 158.973 1017.41 158.375C1015.91 157.777 1014.74 156.856 1013.91 155.614C1013.08 154.364 1012.67 152.765 1012.66 150.818H1018.66C1018.7 151.53 1018.88 152.129 1019.19 152.614C1019.51 153.098 1019.96 153.466 1020.53 153.716C1021.12 153.966 1021.81 154.091 1022.61 154.091C1023.29 154.091 1023.85 154.008 1024.31 153.841C1024.76 153.674 1025.11 153.443 1025.34 153.148C1025.58 152.852 1025.7 152.515 1025.7 152.136C1025.7 151.78 1025.58 151.47 1025.35 151.205C1025.13 150.932 1024.77 150.689 1024.26 150.477C1023.75 150.258 1023.07 150.053 1022.2 149.864L1019.89 149.364C1017.83 148.917 1016.2 148.17 1015.01 147.125C1013.83 146.072 1013.24 144.636 1013.25 142.818C1013.24 141.341 1013.64 140.049 1014.43 138.943C1015.23 137.83 1016.34 136.962 1017.76 136.341C1019.19 135.72 1020.82 135.409 1022.66 135.409C1024.54 135.409 1026.16 135.723 1027.53 136.352C1028.91 136.981 1029.96 137.867 1030.7 139.011C1031.45 140.148 1031.83 141.477 1031.84 143H1025.8Z" fill="black"/>
<path d="M786.727 198.364C786.727 195.568 787.106 192.996 787.864 190.648C788.629 188.299 789.841 186.114 791.5 184.091H797.636C797.015 184.841 796.436 185.754 795.898 186.83C795.367 187.898 794.905 189.068 794.511 190.341C794.125 191.614 793.822 192.936 793.602 194.307C793.383 195.67 793.273 197.023 793.273 198.364C793.273 200.152 793.462 201.955 793.841 203.773C794.22 205.583 794.739 207.265 795.398 208.818C796.057 210.364 796.803 211.636 797.636 212.636H791.5C789.841 210.614 788.629 208.428 787.864 206.08C787.106 203.731 786.727 201.159 786.727 198.364ZM814.707 194.409C814.609 194.008 814.454 193.655 814.241 193.352C814.029 193.042 813.764 192.78 813.446 192.568C813.135 192.348 812.772 192.186 812.355 192.08C811.946 191.966 811.495 191.909 811.003 191.909C809.942 191.909 809.037 192.163 808.287 192.67C807.545 193.178 806.976 193.909 806.582 194.864C806.196 195.818 806.003 196.97 806.003 198.318C806.003 199.682 806.188 200.848 806.56 201.818C806.931 202.788 807.484 203.53 808.219 204.045C808.954 204.561 809.866 204.818 810.957 204.818C811.92 204.818 812.719 204.678 813.355 204.398C813.999 204.117 814.48 203.72 814.798 203.205C815.116 202.689 815.276 202.083 815.276 201.386L816.366 201.5H811.048V197H821.366V200.227C821.366 202.348 820.916 204.163 820.014 205.67C819.12 207.17 817.885 208.322 816.31 209.125C814.741 209.92 812.942 210.318 810.912 210.318C808.647 210.318 806.658 209.837 804.946 208.875C803.234 207.913 801.897 206.542 800.935 204.761C799.98 202.981 799.503 200.864 799.503 198.409C799.503 196.485 799.795 194.78 800.378 193.295C800.969 191.811 801.787 190.557 802.832 189.534C803.878 188.504 805.086 187.727 806.457 187.205C807.829 186.674 809.298 186.409 810.866 186.409C812.245 186.409 813.526 186.606 814.707 187C815.897 187.386 816.946 187.939 817.855 188.659C818.772 189.371 819.51 190.216 820.071 191.193C820.632 192.17 820.973 193.242 821.094 194.409H814.707ZM829.267 210.273C828.153 210.273 827.169 210.091 826.312 209.727C825.464 209.356 824.797 208.795 824.312 208.045C823.828 207.295 823.585 206.341 823.585 205.182C823.585 204.227 823.748 203.413 824.074 202.739C824.4 202.057 824.854 201.5 825.438 201.068C826.021 200.636 826.699 200.307 827.472 200.08C828.252 199.852 829.093 199.705 829.994 199.636C830.972 199.561 831.756 199.47 832.347 199.364C832.945 199.25 833.377 199.095 833.642 198.898C833.907 198.693 834.04 198.424 834.04 198.091V198.045C834.04 197.591 833.866 197.242 833.517 197C833.169 196.758 832.722 196.636 832.176 196.636C831.578 196.636 831.089 196.769 830.71 197.034C830.339 197.292 830.116 197.689 830.04 198.227H824.267C824.343 197.167 824.68 196.189 825.278 195.295C825.884 194.394 826.767 193.674 827.926 193.136C829.085 192.591 830.532 192.318 832.267 192.318C833.517 192.318 834.638 192.466 835.631 192.761C836.623 193.049 837.468 193.455 838.165 193.977C838.862 194.492 839.392 195.098 839.756 195.795C840.127 196.485 840.312 197.235 840.312 198.045V210H834.449V207.545H834.312C833.964 208.197 833.54 208.723 833.04 209.125C832.547 209.527 831.983 209.818 831.347 210C830.718 210.182 830.025 210.273 829.267 210.273ZM831.312 206.318C831.79 206.318 832.237 206.22 832.653 206.023C833.078 205.826 833.422 205.542 833.688 205.17C833.953 204.799 834.085 204.348 834.085 203.818V202.364C833.919 202.432 833.741 202.496 833.551 202.557C833.369 202.617 833.172 202.674 832.96 202.727C832.756 202.78 832.536 202.83 832.301 202.875C832.074 202.92 831.835 202.962 831.585 203C831.1 203.076 830.703 203.201 830.392 203.375C830.089 203.542 829.862 203.75 829.71 204C829.566 204.242 829.494 204.515 829.494 204.818C829.494 205.303 829.665 205.674 830.006 205.932C830.347 206.189 830.782 206.318 831.312 206.318ZM843.31 210V192.545H849.264V195.864H849.446C849.81 194.773 850.431 193.909 851.31 193.273C852.188 192.636 853.234 192.318 854.446 192.318C855.673 192.318 856.73 192.644 857.616 193.295C858.503 193.939 859.037 194.795 859.219 195.864H859.401C859.696 194.795 860.325 193.939 861.287 193.295C862.249 192.644 863.378 192.318 864.673 192.318C866.348 192.318 867.704 192.856 868.741 193.932C869.787 195.008 870.31 196.439 870.31 198.227V210H864.037V199.818C864.037 199.053 863.844 198.455 863.457 198.023C863.071 197.583 862.552 197.364 861.901 197.364C861.257 197.364 860.745 197.583 860.366 198.023C859.995 198.455 859.81 199.053 859.81 199.818V210H853.81V199.818C853.81 199.053 853.616 198.455 853.23 198.023C852.844 197.583 852.325 197.364 851.673 197.364C851.241 197.364 850.87 197.462 850.56 197.659C850.249 197.856 850.007 198.14 849.832 198.511C849.666 198.875 849.582 199.311 849.582 199.818V210H843.31ZM873.403 210V192.545H879.676V210H873.403ZM876.54 190.727C875.691 190.727 874.964 190.447 874.358 189.886C873.752 189.326 873.449 188.652 873.449 187.864C873.449 187.076 873.752 186.402 874.358 185.841C874.964 185.28 875.691 185 876.54 185C877.396 185 878.123 185.28 878.722 185.841C879.328 186.402 879.631 187.076 879.631 187.864C879.631 188.652 879.328 189.326 878.722 189.886C878.123 190.447 877.396 190.727 876.54 190.727ZM889.145 200.182V210H882.872V192.545H888.827V195.864H889.009C889.387 194.758 890.054 193.89 891.009 193.261C891.971 192.633 893.092 192.318 894.372 192.318C895.607 192.318 896.679 192.602 897.588 193.17C898.505 193.731 899.213 194.504 899.713 195.489C900.221 196.473 900.471 197.598 900.463 198.864V210H894.19V200.182C894.198 199.318 893.978 198.64 893.531 198.148C893.092 197.655 892.478 197.409 891.69 197.409C891.175 197.409 890.724 197.523 890.338 197.75C889.959 197.97 889.668 198.288 889.463 198.705C889.259 199.114 889.152 199.606 889.145 200.182ZM911.969 216.909C910.219 216.909 908.719 216.659 907.469 216.159C906.226 215.667 905.26 214.985 904.571 214.114C903.889 213.25 903.507 212.258 903.423 211.136H909.469C909.529 211.508 909.681 211.807 909.923 212.034C910.166 212.261 910.476 212.424 910.855 212.523C911.241 212.629 911.673 212.682 912.151 212.682C912.961 212.682 913.632 212.485 914.162 212.091C914.7 211.697 914.969 210.985 914.969 209.955V207H914.787C914.56 207.591 914.211 208.095 913.741 208.511C913.272 208.92 912.707 209.235 912.048 209.455C911.389 209.667 910.666 209.773 909.878 209.773C908.635 209.773 907.491 209.485 906.446 208.909C905.408 208.333 904.575 207.42 903.946 206.17C903.325 204.92 903.014 203.288 903.014 201.273C903.014 199.167 903.34 197.455 903.991 196.136C904.651 194.818 905.499 193.852 906.537 193.239C907.582 192.625 908.681 192.318 909.832 192.318C910.696 192.318 911.454 192.47 912.105 192.773C912.757 193.068 913.302 193.466 913.741 193.966C914.181 194.458 914.514 195 914.741 195.591H914.878V192.545H921.151V209.955C921.151 211.432 920.768 212.686 920.003 213.716C919.245 214.754 918.177 215.545 916.798 216.091C915.42 216.636 913.81 216.909 911.969 216.909ZM912.196 205.318C912.772 205.318 913.264 205.159 913.673 204.841C914.09 204.515 914.408 204.053 914.628 203.455C914.855 202.848 914.969 202.121 914.969 201.273C914.969 200.409 914.855 199.67 914.628 199.057C914.408 198.436 914.09 197.962 913.673 197.636C913.264 197.303 912.772 197.136 912.196 197.136C911.62 197.136 911.128 197.303 910.719 197.636C910.317 197.962 910.007 198.436 909.787 199.057C909.575 199.67 909.469 200.409 909.469 201.273C909.469 202.136 909.575 202.871 909.787 203.477C910.007 204.076 910.317 204.534 910.719 204.852C911.128 205.163 911.62 205.318 912.196 205.318ZM940.489 201C940.489 203.795 940.106 206.367 939.341 208.716C938.583 211.064 937.375 213.25 935.716 215.273H929.58C930.208 214.523 930.788 213.61 931.318 212.534C931.848 211.466 932.307 210.295 932.693 209.023C933.087 207.75 933.394 206.432 933.614 205.068C933.833 203.697 933.943 202.341 933.943 201C933.943 199.212 933.754 197.413 933.375 195.602C932.996 193.784 932.477 192.102 931.818 190.557C931.159 189.004 930.413 187.727 929.58 186.727H935.716C937.375 188.75 938.583 190.936 939.341 193.284C940.106 195.633 940.489 198.205 940.489 201Z" fill="url(#paint0_linear_18_215)"/>
<rect x="676" y="167" width="383" height="3" rx="1.5" fill="#404040"/>
<rect x="689.322" y="215.162" width="47.6782" height="38.4144" rx="19.2072" fill="#5F5F5F"/>
<rect x="676" y="193" width="47.6782" height="82" rx="2" fill="#404040"/>
<mask id="path-81-inside-1_18_215" fill="white">
<rect x="821" y="311.603" width="80" height="149" rx="4" transform="rotate(-30.5 821 311.603)"/>
</mask>
<rect x="821" y="311.603" width="80" height="149" rx="4" transform="rotate(-30.5 821 311.603)" fill="#D9D9D9" stroke="black" stroke-opacity="0.1" stroke-width="14" mask="url(#path-81-inside-1_18_215)"/>
<circle cx="852.5" cy="320.5" r="8.5" fill="#EB5757"/>
<circle cx="869.5" cy="310.5" r="7.5" fill="#404040"/>
<circle cx="884.5" cy="301.5" r="7.5" fill="#404040"/>
<circle cx="864.5" cy="339.5" r="7.5" fill="#404040"/>
<circle cx="880.5" cy="330.5" r="7.5" fill="#404040"/>
<circle cx="895.5" cy="321.5" r="7.5" fill="#404040"/>
<path d="M823.679 298.764C822.814 299.012 821.907 298.512 821.703 297.636C820.18 291.115 820.693 284.264 823.195 277.994C825.899 271.217 830.777 265.498 837.075 261.721C843.372 257.944 850.738 256.319 858.034 257.098C864.781 257.818 871.121 260.557 876.218 264.931C876.904 265.519 876.924 266.56 876.296 267.209V267.209C875.676 267.849 874.659 267.868 873.981 267.29C869.397 263.391 863.713 260.949 857.666 260.304C851.081 259.601 844.433 261.067 838.749 264.476C833.065 267.885 828.663 273.047 826.222 279.164C823.983 284.773 823.509 290.898 824.839 296.737C825.039 297.614 824.544 298.516 823.679 298.764V298.764Z" fill="#BB4545"/>
<path d="M834.58 294.68C833.822 294.937 832.993 294.535 832.782 293.763C831.715 289.848 831.793 285.714 833.023 281.874C834.398 277.58 837.137 273.895 840.817 271.388C844.497 268.881 848.913 267.693 853.382 268.006C857.379 268.286 861.22 269.755 864.431 272.212C865.063 272.696 865.127 273.609 864.612 274.217V274.217C864.083 274.84 863.149 274.904 862.493 274.416C859.786 272.406 856.577 271.205 853.24 270.971C849.414 270.703 845.633 271.721 842.482 273.867C839.331 276.014 836.985 279.169 835.808 282.846C834.778 286.061 834.692 289.519 835.544 292.805C835.746 293.587 835.345 294.42 834.58 294.68V294.68Z" fill="#BB4545"/>
<defs>
<linearGradient id="paint0_linear_18_215" x1="937" y1="199" x2="789.5" y2="199" gradientUnits="userSpaceOnUse">
<stop stop-color="#FF0000"/>
<stop offset="0.46875" stop-color="#00FF19" stop-opacity="0.63"/>
<stop offset="1" stop-color="#0056FF" stop-opacity="0.58"/>
</linearGradient>
</defs>
</svg>
