<svg width="1150" height="616" viewBox="0 0 1150 616" fill="none" xmlns="http://www.w3.org/2000/svg">
<rect width="1150" height="616" fill="#FCFCFC"/>
<rect x="104" y="63" width="451" height="271" stroke="#404040" stroke-width="6"/>
<path d="M166.489 158H158.818L167.46 131.818H177.176L185.818 158H178.148L172.42 139.028H172.216L166.489 158ZM165.057 147.67H179.477V152.989H165.057V147.67ZM188.34 158V131.818H199.641C201.584 131.818 203.284 132.172 204.742 132.879C206.199 133.587 207.333 134.605 208.142 135.935C208.952 137.264 209.357 138.858 209.357 140.716C209.357 142.591 208.939 144.172 208.104 145.459C207.277 146.746 206.114 147.717 204.614 148.374C203.123 149.03 201.38 149.358 199.385 149.358H192.635V143.835H197.953C198.789 143.835 199.5 143.733 200.088 143.528C200.685 143.315 201.141 142.979 201.456 142.518C201.78 142.058 201.942 141.457 201.942 140.716C201.942 139.966 201.78 139.357 201.456 138.888C201.141 138.411 200.685 138.061 200.088 137.839C199.5 137.609 198.789 137.494 197.953 137.494H195.448V158H188.34ZM203.681 145.983L210.226 158H202.505L196.113 145.983H203.681ZM222.461 158H212.387V131.818H222.358C225.051 131.818 227.378 132.342 229.338 133.391C231.307 134.43 232.824 135.93 233.89 137.891C234.963 139.842 235.5 142.182 235.5 144.909C235.5 147.636 234.968 149.98 233.902 151.94C232.837 153.892 231.328 155.392 229.377 156.44C227.425 157.48 225.12 158 222.461 158ZM219.495 151.966H222.205C223.5 151.966 224.604 151.757 225.516 151.339C226.436 150.922 227.135 150.202 227.613 149.179C228.098 148.156 228.341 146.733 228.341 144.909C228.341 143.085 228.094 141.662 227.6 140.639C227.114 139.616 226.398 138.896 225.452 138.479C224.515 138.061 223.364 137.852 222 137.852H219.495V151.966ZM254.283 131.818H261.391V148.591C261.391 150.585 260.914 152.311 259.96 153.768C259.013 155.217 257.692 156.338 255.996 157.131C254.3 157.915 252.332 158.307 250.09 158.307C247.832 158.307 245.854 157.915 244.158 157.131C242.462 156.338 241.141 155.217 240.195 153.768C239.258 152.311 238.789 150.585 238.789 148.591V131.818H245.897V147.977C245.897 148.787 246.076 149.511 246.434 150.151C246.792 150.781 247.286 151.276 247.917 151.634C248.556 151.991 249.281 152.17 250.09 152.17C250.908 152.17 251.633 151.991 252.263 151.634C252.894 151.276 253.388 150.781 253.746 150.151C254.104 149.511 254.283 148.787 254.283 147.977V131.818ZM271.877 131.818V158H264.77V131.818H271.877ZM297.9 131.818V158H291.968L282.507 144.244H282.354V158H275.246V131.818H281.28L290.587 145.523H290.792V131.818H297.9ZM326.625 144.909C326.625 147.824 326.059 150.283 324.925 152.286C323.792 154.28 322.262 155.793 320.336 156.824C318.409 157.847 316.262 158.358 313.892 158.358C311.506 158.358 309.35 157.842 307.424 156.811C305.506 155.771 303.98 154.254 302.847 152.26C301.722 150.257 301.159 147.807 301.159 144.909C301.159 141.994 301.722 139.54 302.847 137.545C303.98 135.543 305.506 134.03 307.424 133.007C309.35 131.976 311.506 131.46 313.892 131.46C316.262 131.46 318.409 131.976 320.336 133.007C322.262 134.03 323.792 135.543 324.925 137.545C326.059 139.54 326.625 141.994 326.625 144.909ZM319.313 144.909C319.313 143.341 319.104 142.02 318.686 140.946C318.277 139.864 317.668 139.045 316.858 138.491C316.057 137.929 315.069 137.648 313.892 137.648C312.716 137.648 311.723 137.929 310.914 138.491C310.113 139.045 309.503 139.864 309.086 140.946C308.676 142.02 308.472 143.341 308.472 144.909C308.472 146.477 308.676 147.803 309.086 148.885C309.503 149.959 310.113 150.777 310.914 151.339C311.723 151.893 312.716 152.17 313.892 152.17C315.069 152.17 316.057 151.893 316.858 151.339C317.668 150.777 318.277 149.959 318.686 148.885C319.104 147.803 319.313 146.477 319.313 144.909ZM352.58 131.818H359.688V148.591C359.688 150.585 359.211 152.311 358.256 153.768C357.31 155.217 355.989 156.338 354.293 157.131C352.597 157.915 350.629 158.307 348.387 158.307C346.129 158.307 344.151 157.915 342.455 157.131C340.759 156.338 339.438 155.217 338.492 153.768C337.555 152.311 337.086 150.585 337.086 148.591V131.818H344.194V147.977C344.194 148.787 344.373 149.511 344.731 150.151C345.089 150.781 345.583 151.276 346.214 151.634C346.853 151.991 347.577 152.17 348.387 152.17C349.205 152.17 349.93 151.991 350.56 151.634C351.191 151.276 351.685 150.781 352.043 150.151C352.401 149.511 352.58 148.787 352.58 147.977V131.818ZM385.72 131.818V158H379.788L370.328 144.244H370.174V158H363.066V131.818H369.1L378.407 145.523H378.612V131.818H385.72ZM414.446 144.909C414.446 147.824 413.879 150.283 412.745 152.286C411.612 154.28 410.082 155.793 408.156 156.824C406.23 157.847 404.082 158.358 401.713 158.358C399.326 158.358 397.17 157.842 395.244 156.811C393.326 155.771 391.801 154.254 390.667 152.26C389.542 150.257 388.98 147.807 388.98 144.909C388.98 141.994 389.542 139.54 390.667 137.545C391.801 135.543 393.326 134.03 395.244 133.007C397.17 131.976 399.326 131.46 401.713 131.46C404.082 131.46 406.23 131.976 408.156 133.007C410.082 134.03 411.612 135.543 412.745 137.545C413.879 139.54 414.446 141.994 414.446 144.909ZM407.133 144.909C407.133 143.341 406.924 142.02 406.507 140.946C406.098 139.864 405.488 139.045 404.679 138.491C403.877 137.929 402.889 137.648 401.713 137.648C400.537 137.648 399.544 137.929 398.734 138.491C397.933 139.045 397.324 139.864 396.906 140.946C396.497 142.02 396.292 143.341 396.292 144.909C396.292 146.477 396.497 147.803 396.906 148.885C397.324 149.959 397.933 150.777 398.734 151.339C399.544 151.893 400.537 152.17 401.713 152.17C402.889 152.17 403.877 151.893 404.679 151.339C405.488 150.777 406.098 149.959 406.507 148.885C406.924 147.803 407.133 146.477 407.133 144.909ZM424.906 158V131.818H436.207C438.151 131.818 439.851 132.172 441.308 132.879C442.766 133.587 443.899 134.605 444.709 135.935C445.518 137.264 445.923 138.858 445.923 140.716C445.923 142.591 445.506 144.172 444.67 145.459C443.844 146.746 442.68 147.717 441.18 148.374C439.689 149.03 437.946 149.358 435.952 149.358H429.202V143.835H434.52C435.355 143.835 436.067 143.733 436.655 143.528C437.251 143.315 437.707 142.979 438.023 142.518C438.347 142.058 438.509 141.457 438.509 140.716C438.509 139.966 438.347 139.357 438.023 138.888C437.707 138.411 437.251 138.061 436.655 137.839C436.067 137.609 435.355 137.494 434.52 137.494H432.014V158H424.906ZM440.247 145.983L446.793 158H439.071L432.679 145.983H440.247ZM459.232 158.358C457.169 158.358 455.337 158.004 453.734 157.297C452.141 156.581 450.888 155.597 449.976 154.344C449.064 153.091 448.604 151.651 448.595 150.023H455.754C455.763 150.526 455.916 150.977 456.214 151.378C456.521 151.77 456.939 152.077 457.467 152.298C457.996 152.52 458.601 152.631 459.283 152.631C459.939 152.631 460.518 152.516 461.021 152.286C461.524 152.047 461.916 151.719 462.197 151.301C462.479 150.884 462.615 150.406 462.607 149.869C462.615 149.341 462.453 148.872 462.121 148.463C461.797 148.054 461.341 147.734 460.753 147.504C460.165 147.274 459.487 147.159 458.72 147.159H456.061V142.25H458.72C459.428 142.25 460.05 142.135 460.587 141.905C461.132 141.675 461.554 141.355 461.852 140.946C462.159 140.537 462.308 140.068 462.3 139.54C462.308 139.028 462.185 138.577 461.929 138.185C461.673 137.793 461.315 137.486 460.855 137.264C460.403 137.043 459.879 136.932 459.283 136.932C458.635 136.932 458.055 137.047 457.544 137.277C457.041 137.507 456.645 137.827 456.355 138.236C456.065 138.645 455.916 139.114 455.908 139.642H449.107C449.115 138.04 449.554 136.625 450.423 135.398C451.301 134.17 452.503 133.207 454.028 132.509C455.554 131.81 457.305 131.46 459.283 131.46C461.217 131.46 462.926 131.788 464.409 132.445C465.901 133.101 467.064 134.004 467.899 135.155C468.743 136.297 469.161 137.605 469.152 139.08C469.169 140.545 468.666 141.747 467.643 142.685C466.629 143.622 465.342 144.176 463.783 144.347V144.551C465.896 144.781 467.486 145.429 468.551 146.494C469.616 147.551 470.141 148.881 470.124 150.483C470.132 152.017 469.672 153.376 468.743 154.561C467.822 155.746 466.54 156.675 464.895 157.348C463.259 158.021 461.371 158.358 459.232 158.358Z" fill="#404040"/>
<path d="M141.711 280.641C141.677 280.503 141.624 280.382 141.551 280.277C141.478 280.171 141.387 280.081 141.277 280.008C141.171 279.932 141.046 279.876 140.902 279.84C140.762 279.801 140.607 279.781 140.438 279.781C140.073 279.781 139.762 279.868 139.504 280.043C139.249 280.217 139.053 280.469 138.918 280.797C138.785 281.125 138.719 281.521 138.719 281.984C138.719 282.453 138.783 282.854 138.91 283.188C139.038 283.521 139.228 283.776 139.48 283.953C139.733 284.13 140.047 284.219 140.422 284.219C140.753 284.219 141.027 284.171 141.246 284.074C141.467 283.978 141.633 283.841 141.742 283.664C141.852 283.487 141.906 283.279 141.906 283.039L142.281 283.078H140.453V281.531H144V282.641C144 283.37 143.845 283.993 143.535 284.512C143.228 285.027 142.803 285.423 142.262 285.699C141.723 285.973 141.104 286.109 140.406 286.109C139.628 286.109 138.944 285.944 138.355 285.613C137.767 285.283 137.307 284.811 136.977 284.199C136.648 283.587 136.484 282.859 136.484 282.016C136.484 281.354 136.585 280.768 136.785 280.258C136.988 279.747 137.27 279.316 137.629 278.965C137.988 278.611 138.404 278.344 138.875 278.164C139.346 277.982 139.852 277.891 140.391 277.891C140.865 277.891 141.305 277.958 141.711 278.094C142.12 278.227 142.48 278.417 142.793 278.664C143.108 278.909 143.362 279.199 143.555 279.535C143.747 279.871 143.865 280.24 143.906 280.641H141.711ZM151.935 278V286H150.122L147.231 281.797H147.185V286H145.013V278H146.856L149.7 282.188H149.763V278H151.935ZM156.04 286H152.962V278H156.009C156.832 278 157.543 278.16 158.142 278.48C158.743 278.798 159.207 279.257 159.532 279.855C159.86 280.452 160.024 281.167 160.024 282C160.024 282.833 159.862 283.549 159.536 284.148C159.211 284.745 158.75 285.203 158.153 285.523C157.557 285.841 156.853 286 156.04 286ZM155.134 284.156H155.962C156.358 284.156 156.695 284.092 156.974 283.965C157.255 283.837 157.468 283.617 157.614 283.305C157.763 282.992 157.837 282.557 157.837 282C157.837 281.443 157.761 281.008 157.61 280.695C157.462 280.383 157.243 280.163 156.954 280.035C156.668 279.908 156.316 279.844 155.899 279.844H155.134V284.156Z" fill="#404040"/>
<path d="M365.074 281.188V282.812H361.324V281.188H365.074ZM370.264 278V286H368.092V280H368.045L366.295 281.047V279.203L368.264 278H370.264ZM375.391 286.219C374.664 286.216 374.036 286.048 373.508 285.715C372.979 285.382 372.572 284.901 372.285 284.273C371.999 283.646 371.857 282.893 371.859 282.016C371.862 281.135 372.005 280.388 372.289 279.773C372.576 279.159 372.982 278.691 373.508 278.371C374.036 278.051 374.664 277.891 375.391 277.891C376.117 277.891 376.745 278.052 377.273 278.375C377.802 278.695 378.21 279.163 378.496 279.777C378.783 280.392 378.924 281.138 378.922 282.016C378.922 282.898 378.779 283.654 378.492 284.281C378.206 284.909 377.798 285.389 377.27 285.723C376.743 286.053 376.117 286.219 375.391 286.219ZM375.391 284.453C375.766 284.453 376.073 284.258 376.313 283.867C376.555 283.474 376.674 282.857 376.672 282.016C376.672 281.466 376.617 281.017 376.508 280.668C376.398 280.319 376.247 280.061 376.055 279.895C375.862 279.725 375.641 279.641 375.391 279.641C375.016 279.641 374.71 279.831 374.473 280.211C374.236 280.591 374.115 281.193 374.109 282.016C374.107 282.576 374.16 283.036 374.27 283.398C374.379 283.758 374.53 284.023 374.723 284.195C374.918 284.367 375.141 284.453 375.391 284.453Z" fill="#404040"/>
<path d="M400.484 281.188V282.812H396.734V281.188H400.484ZM404.877 277.891C405.343 277.891 405.785 277.965 406.201 278.113C406.618 278.259 406.986 278.49 407.307 278.805C407.63 279.12 407.882 279.531 408.064 280.039C408.249 280.544 408.343 281.156 408.346 281.875C408.348 282.531 408.266 283.121 408.1 283.645C407.936 284.165 407.7 284.609 407.393 284.977C407.088 285.344 406.721 285.625 406.291 285.82C405.864 286.013 405.387 286.109 404.861 286.109C404.27 286.109 403.751 285.996 403.303 285.77C402.855 285.543 402.498 285.238 402.232 284.855C401.967 284.473 401.812 284.047 401.768 283.578H403.908C403.96 283.82 404.075 283.996 404.252 284.105C404.429 284.212 404.632 284.266 404.861 284.266C405.32 284.266 405.654 284.068 405.865 283.672C406.079 283.273 406.187 282.742 406.189 282.078H406.143C406.041 282.323 405.887 282.533 405.682 282.707C405.476 282.882 405.236 283.016 404.963 283.109C404.689 283.203 404.4 283.25 404.096 283.25C403.614 283.25 403.192 283.142 402.83 282.926C402.468 282.707 402.186 282.409 401.982 282.031C401.779 281.651 401.676 281.219 401.674 280.734C401.671 280.167 401.805 279.669 402.076 279.242C402.347 278.815 402.723 278.483 403.205 278.246C403.687 278.009 404.244 277.891 404.877 277.891ZM404.893 279.531C404.676 279.531 404.484 279.581 404.314 279.68C404.148 279.779 404.016 279.913 403.92 280.082C403.826 280.251 403.781 280.443 403.783 280.656C403.786 280.87 403.834 281.061 403.928 281.23C404.024 281.4 404.154 281.534 404.318 281.633C404.485 281.732 404.676 281.781 404.893 281.781C405.051 281.781 405.199 281.754 405.334 281.699C405.469 281.642 405.587 281.562 405.686 281.461C405.787 281.357 405.865 281.237 405.92 281.102C405.977 280.964 406.005 280.815 406.002 280.656C405.999 280.443 405.95 280.251 405.854 280.082C405.757 279.913 405.626 279.779 405.459 279.68C405.292 279.581 405.104 279.531 404.893 279.531Z" fill="#404040"/>
<path d="M432.797 286.109C432.151 286.109 431.574 286.009 431.066 285.809C430.561 285.608 430.163 285.336 429.871 284.992C429.582 284.648 429.437 284.26 429.437 283.828C429.437 283.497 429.52 283.195 429.684 282.922C429.85 282.648 430.074 282.422 430.355 282.242C430.637 282.06 430.951 281.943 431.297 281.891V281.828C430.841 281.75 430.466 281.548 430.172 281.223C429.88 280.895 429.734 280.508 429.734 280.062C429.734 279.643 429.867 279.271 430.133 278.945C430.398 278.617 430.762 278.359 431.223 278.172C431.684 277.984 432.208 277.891 432.797 277.891C433.385 277.891 433.91 277.986 434.371 278.176C434.832 278.363 435.195 278.621 435.461 278.949C435.727 279.275 435.859 279.646 435.859 280.062C435.859 280.51 435.711 280.897 435.414 281.223C435.117 281.548 434.745 281.75 434.297 281.828V281.891C434.641 281.943 434.953 282.06 435.234 282.242C435.516 282.422 435.74 282.648 435.906 282.922C436.073 283.195 436.156 283.497 436.156 283.828C436.156 284.26 436.01 284.648 435.719 284.992C435.43 285.336 435.031 285.608 434.523 285.809C434.018 286.009 433.443 286.109 432.797 286.109ZM432.797 284.609C433.003 284.609 433.185 284.568 433.344 284.484C433.503 284.401 433.628 284.286 433.719 284.141C433.813 283.992 433.859 283.826 433.859 283.641C433.859 283.456 433.813 283.292 433.719 283.148C433.628 283.005 433.503 282.893 433.344 282.812C433.185 282.729 433.003 282.687 432.797 282.687C432.594 282.687 432.411 282.729 432.25 282.812C432.091 282.893 431.965 283.005 431.871 283.148C431.78 283.292 431.734 283.456 431.734 283.641C431.734 283.826 431.78 283.991 431.871 284.137C431.965 284.283 432.091 284.398 432.25 284.484C432.411 284.568 432.594 284.609 432.797 284.609ZM432.797 281.188C432.979 281.188 433.141 281.15 433.281 281.074C433.422 280.999 433.533 280.895 433.613 280.762C433.694 280.629 433.734 280.479 433.734 280.312C433.734 280.146 433.694 279.999 433.613 279.871C433.533 279.741 433.422 279.639 433.281 279.566C433.141 279.491 432.979 279.453 432.797 279.453C432.617 279.453 432.456 279.491 432.313 279.566C432.172 279.639 432.061 279.741 431.98 279.871C431.9 279.999 431.859 280.146 431.859 280.312C431.859 280.479 431.9 280.629 431.98 280.762C432.061 280.892 432.172 280.996 432.313 281.074C432.456 281.15 432.617 281.188 432.797 281.188Z" fill="#404040"/>
<rect x="137" y="298" width="22" height="22" stroke="#404040" stroke-width="4"/>
<rect x="359" y="298" width="22" height="22" stroke="#404040" stroke-width="4"/>
<rect x="391" y="298" width="22" height="22" stroke="#404040" stroke-width="4"/>
<rect x="425" y="298" width="22" height="22" stroke="#404040" stroke-width="4"/>
<rect x="137" y="298" width="22" height="22" stroke="#404040" stroke-width="4"/>
<rect x="433" y="309" width="6" height="77" fill="#2F80ED"/>
<rect x="429" y="302" width="14" height="14" fill="#2F80ED"/>
<rect x="395" y="302" width="14" height="14" fill="#F2C94C"/>
<rect x="363" y="302" width="14" height="14" fill="#EB5757"/>
<rect x="141" y="302" width="14" height="14" fill="#404040"/>
<rect x="399" y="309" width="6" height="91" fill="#F2C94C"/>
<rect x="403.997" y="397.818" width="2.34273" height="17.3628" transform="rotate(67 403.997 397.818)" fill="#F2C94C"/>
<rect x="390.119" y="404.5" width="5.33993" height="2.12168" transform="rotate(87 390.119 404.5)" fill="#F2C94C"/>
<rect x="392.827" y="410.9" width="5.8" height="2" transform="rotate(66 392.827 410.9)" fill="#F2C94C"/>
<rect x="404.125" y="410" width="2.20986" height="11" transform="rotate(67 404.125 410)" fill="#F2C94C"/>
<path d="M399 414C399 412.895 399.895 412 401 412H405V527H399V414Z" fill="#F2C94C"/>
<rect x="367" y="309" width="6" height="77" fill="#EB5757"/>
<rect x="367" y="528" width="6" height="71" transform="rotate(-90 367 528)" fill="#404040"/>
<rect x="367" y="394" width="6" height="134" fill="#404040"/>
<rect x="399" y="525" width="6" height="31" fill="#404040"/>
<rect x="149" y="556" width="6" height="255" transform="rotate(-90 149 556)" fill="#404040"/>
<rect x="145" y="309" width="6" height="247" fill="#404040"/>
<rect x="432" y="418" width="6" height="46" fill="#2F80ED"/>
<rect x="432" y="476" width="6" height="46" fill="#2F80ED"/>
<rect x="433.209" y="386.243" width="6" height="16.4437" transform="rotate(-45 433.209 386.243)" fill="#2F80ED"/>
<rect x="432" y="402.034" width="5.45605" height="16.739" transform="rotate(-45 432 402.034)" fill="#2F80ED"/>
<rect x="443.836" y="390.128" width="6.13854" height="16.7103" transform="rotate(45 443.836 390.128)" fill="#2F80ED"/>
<rect x="443.836" y="406.128" width="6" height="16.2633" transform="rotate(45 443.836 406.128)" fill="#2F80ED"/>
<rect x="422" y="464" width="26" height="5" fill="#2F80ED"/>
<path d="M435 464L446.258 482H423.742L435 464Z" fill="#2F80ED"/>
<path d="M449.342 470.991C449.337 470.853 449.221 470.745 449.083 470.75L446.835 470.829C446.697 470.833 446.589 470.949 446.594 471.087C446.598 471.225 446.714 471.333 446.852 471.328L448.851 471.259L448.921 473.257C448.925 473.395 449.041 473.503 449.179 473.498C449.317 473.494 449.425 473.378 449.42 473.24L449.342 470.991ZM445.183 475.559L449.275 471.17L448.909 470.83L444.817 475.218L445.183 475.559Z" fill="#2F80ED"/>
<path d="M450.271 474.963C450.266 474.825 450.151 474.717 450.013 474.722L447.764 474.8C447.626 474.805 447.518 474.921 447.523 475.059C447.528 475.197 447.644 475.305 447.782 475.3L449.78 475.23L449.85 477.229C449.855 477.367 449.971 477.475 450.109 477.47C450.247 477.465 450.355 477.35 450.35 477.212L450.271 474.963ZM446.112 479.53L450.204 475.142L449.839 474.801L445.747 479.189L446.112 479.53Z" fill="#2F80ED"/>
<path d="M687.864 140.818V135.727H708.091V140.818H701.091V159H694.864V140.818H687.864ZM716.787 135.727V159H710.469V135.727H716.787ZM719.781 159V135.727H726.099V153.909H735.509V159H719.781ZM734.645 140.818V135.727H754.872V140.818H747.872V159H741.645V140.818H734.645ZM776.17 143C776.11 142.242 775.826 141.652 775.318 141.227C774.818 140.803 774.057 140.591 773.034 140.591C772.383 140.591 771.848 140.67 771.432 140.83C771.023 140.981 770.72 141.189 770.523 141.455C770.326 141.72 770.223 142.023 770.216 142.364C770.201 142.644 770.25 142.898 770.364 143.125C770.485 143.345 770.674 143.545 770.932 143.727C771.189 143.902 771.519 144.061 771.92 144.205C772.322 144.348 772.799 144.477 773.352 144.591L775.261 145C776.549 145.273 777.652 145.633 778.568 146.08C779.485 146.527 780.235 147.053 780.818 147.659C781.402 148.258 781.83 148.932 782.102 149.682C782.383 150.432 782.527 151.25 782.534 152.136C782.527 153.667 782.144 154.962 781.386 156.023C780.629 157.083 779.545 157.89 778.136 158.443C776.735 158.996 775.049 159.273 773.08 159.273C771.057 159.273 769.292 158.973 767.784 158.375C766.284 157.777 765.117 156.856 764.284 155.614C763.458 154.364 763.042 152.765 763.034 150.818H769.034C769.072 151.53 769.25 152.129 769.568 152.614C769.886 153.098 770.333 153.466 770.909 153.716C771.492 153.966 772.186 154.091 772.989 154.091C773.663 154.091 774.227 154.008 774.682 153.841C775.136 153.674 775.481 153.443 775.716 153.148C775.951 152.852 776.072 152.515 776.08 152.136C776.072 151.78 775.955 151.47 775.727 151.205C775.508 150.932 775.144 150.689 774.636 150.477C774.129 150.258 773.443 150.053 772.58 149.864L770.261 149.364C768.201 148.917 766.576 148.17 765.386 147.125C764.205 146.072 763.617 144.636 763.625 142.818C763.617 141.341 764.011 140.049 764.807 138.943C765.61 137.83 766.72 136.962 768.136 136.341C769.561 135.72 771.193 135.409 773.034 135.409C774.913 135.409 776.538 135.723 777.909 136.352C779.28 136.981 780.337 137.867 781.08 139.011C781.83 140.148 782.208 141.477 782.216 143H776.17ZM790.847 159L783.983 135.727H791.028L794.21 150.045H794.392L798.165 135.727H803.71L807.483 150.091H807.665L810.847 135.727H817.892L811.028 159H804.983L801.028 146H800.847L796.892 159H790.847ZM826.256 135.727V159H819.938V135.727H826.256ZM828.614 140.818V135.727H848.841V140.818H841.841V159H835.614V140.818H828.614ZM850.264 135.727H857.31L861.855 145.182H862.037L866.582 135.727H873.628L865.082 151.682V159H858.81V151.682L850.264 135.727ZM895.79 144.455H889.381C889.335 143.924 889.214 143.443 889.017 143.011C888.828 142.58 888.563 142.208 888.222 141.898C887.888 141.58 887.483 141.337 887.006 141.17C886.528 140.996 885.987 140.909 885.381 140.909C884.32 140.909 883.422 141.167 882.688 141.682C881.96 142.197 881.407 142.936 881.028 143.898C880.657 144.86 880.472 146.015 880.472 147.364C880.472 148.788 880.661 149.981 881.04 150.943C881.426 151.898 881.983 152.617 882.71 153.102C883.438 153.58 884.313 153.818 885.335 153.818C885.919 153.818 886.441 153.746 886.903 153.602C887.366 153.451 887.767 153.235 888.108 152.955C888.449 152.674 888.725 152.337 888.938 151.943C889.157 151.542 889.305 151.091 889.381 150.591L895.79 150.636C895.714 151.621 895.438 152.625 894.96 153.648C894.483 154.663 893.805 155.602 892.926 156.466C892.055 157.322 890.975 158.011 889.688 158.534C888.4 159.057 886.903 159.318 885.199 159.318C883.062 159.318 881.146 158.86 879.449 157.943C877.759 157.027 876.422 155.678 875.438 153.898C874.46 152.117 873.972 149.939 873.972 147.364C873.972 144.773 874.472 142.591 875.472 140.818C876.472 139.038 877.82 137.693 879.517 136.784C881.214 135.867 883.108 135.409 885.199 135.409C886.669 135.409 888.021 135.61 889.256 136.011C890.491 136.413 891.574 137 892.506 137.773C893.438 138.538 894.188 139.481 894.756 140.602C895.324 141.723 895.669 143.008 895.79 144.455ZM898.656 159V135.727H904.974V144.818H913.338V135.727H919.656V159H913.338V149.909H904.974V159H898.656ZM935.077 159H928.259L935.94 135.727H944.577L952.259 159H945.44L940.349 142.136H940.168L935.077 159ZM933.804 149.818H946.622V154.545H933.804V149.818ZM954.5 159V135.727H960.818V153.909H970.227V159H954.5ZM978.827 159H972.009L979.69 135.727H988.327L996.009 159H989.19L984.099 142.136H983.918L978.827 159ZM977.554 149.818H990.372V154.545H977.554V149.818ZM998.25 159V135.727H1008.3C1010.02 135.727 1011.53 136.042 1012.83 136.67C1014.13 137.299 1015.13 138.205 1015.85 139.386C1016.57 140.568 1016.93 141.985 1016.93 143.636C1016.93 145.303 1016.56 146.708 1015.82 147.852C1015.08 148.996 1014.05 149.86 1012.72 150.443C1011.39 151.027 1009.84 151.318 1008.07 151.318H1002.07V146.409H1006.8C1007.54 146.409 1008.17 146.318 1008.69 146.136C1009.22 145.947 1009.63 145.648 1009.91 145.239C1010.2 144.83 1010.34 144.295 1010.34 143.636C1010.34 142.97 1010.2 142.428 1009.91 142.011C1009.63 141.587 1009.22 141.277 1008.69 141.08C1008.17 140.875 1007.54 140.773 1006.8 140.773H1004.57V159H998.25ZM1011.89 148.318L1017.7 159H1010.84L1005.16 148.318H1011.89ZM1019.62 135.727H1027.49L1032.9 148.909H1033.17L1038.58 135.727H1046.44V159H1040.26V145.545H1040.08L1034.9 158.818H1031.17L1025.99 145.455H1025.81V159H1019.62V135.727Z" fill="#4F4F4F"/>
<rect x="676" y="167" width="383" height="3" rx="1.5" fill="#404040"/>
<rect x="358" y="400" width="6" height="15" transform="rotate(-90 358 400)" fill="#404040"/>
<rect x="338" y="412" width="45" height="3" transform="rotate(-90 338 412)" fill="#404040"/>
<rect x="358" y="386" width="6" height="15" transform="rotate(-90 358 386)" fill="#EB5757"/>
<path d="M338.5 367C341.455 367 344.381 367.582 347.11 368.713C349.84 369.843 352.321 371.501 354.41 373.59C356.499 375.679 358.157 378.16 359.287 380.89C360.418 383.619 361 386.545 361 389.5C361 392.455 360.418 395.381 359.287 398.11C358.157 400.84 356.499 403.321 354.41 405.41C352.321 407.499 349.84 409.157 347.11 410.287C344.381 411.418 341.455 412 338.5 412L338.5 408.707C341.022 408.707 343.52 408.21 345.85 407.245C348.18 406.28 350.298 404.865 352.081 403.081C353.865 401.298 355.28 399.18 356.245 396.85C357.21 394.52 357.707 392.022 357.707 389.5C357.707 386.978 357.21 384.48 356.245 382.15C355.28 379.82 353.865 377.702 352.081 375.919C350.298 374.135 348.18 372.72 345.85 371.755C343.52 370.79 341.022 370.293 338.5 370.293V367Z" fill="#404040"/>
</svg>
