<svg width="1150" height="616" viewBox="0 0 1150 616" fill="none" xmlns="http://www.w3.org/2000/svg">
<rect width="1150" height="616" fill="#FCFCFC"/>
<rect x="513" y="527" width="6" height="27" fill="#404040"/>
<rect x="546" y="464" width="12" height="14" rx="2" fill="#404040"/>
<rect x="546" y="491" width="12" height="19" rx="2" fill="#404040"/>
<rect x="509" y="518" width="14" height="13" rx="2" fill="#404040"/>
<rect x="496" y="527" width="6" height="27" fill="#404040"/>
<rect x="492" y="518" width="14" height="13" rx="2" fill="#404040"/>
<rect x="556" y="468" width="95" height="6" rx="3" fill="#EB5757"/>
<rect x="261" y="399" width="389" height="6" rx="3" fill="#EB5757"/>
<rect x="556" y="497" width="95" height="6" rx="3" fill="#EB5757"/>
<rect x="104" y="63" width="451" height="271" stroke="#404040" stroke-width="6"/>
<path d="M166.489 158H158.818L167.46 131.818H177.176L185.818 158H178.148L172.42 139.028H172.216L166.489 158ZM165.057 147.67H179.477V152.989H165.057V147.67ZM188.34 158V131.818H199.641C201.584 131.818 203.284 132.172 204.742 132.879C206.199 133.587 207.333 134.605 208.142 135.935C208.952 137.264 209.357 138.858 209.357 140.716C209.357 142.591 208.939 144.172 208.104 145.459C207.277 146.746 206.114 147.717 204.614 148.374C203.123 149.03 201.38 149.358 199.385 149.358H192.635V143.835H197.953C198.789 143.835 199.5 143.733 200.088 143.528C200.685 143.315 201.141 142.979 201.456 142.518C201.78 142.058 201.942 141.457 201.942 140.716C201.942 139.966 201.78 139.357 201.456 138.888C201.141 138.411 200.685 138.061 200.088 137.839C199.5 137.609 198.789 137.494 197.953 137.494H195.448V158H188.34ZM203.681 145.983L210.226 158H202.505L196.113 145.983H203.681ZM222.461 158H212.387V131.818H222.358C225.051 131.818 227.378 132.342 229.338 133.391C231.307 134.43 232.824 135.93 233.89 137.891C234.963 139.842 235.5 142.182 235.5 144.909C235.5 147.636 234.968 149.98 233.902 151.94C232.837 153.892 231.328 155.392 229.377 156.44C227.425 157.48 225.12 158 222.461 158ZM219.495 151.966H222.205C223.5 151.966 224.604 151.757 225.516 151.339C226.436 150.922 227.135 150.202 227.613 149.179C228.098 148.156 228.341 146.733 228.341 144.909C228.341 143.085 228.094 141.662 227.6 140.639C227.114 139.616 226.398 138.896 225.452 138.479C224.515 138.061 223.364 137.852 222 137.852H219.495V151.966ZM254.283 131.818H261.391V148.591C261.391 150.585 260.914 152.311 259.96 153.768C259.013 155.217 257.692 156.338 255.996 157.131C254.3 157.915 252.332 158.307 250.09 158.307C247.832 158.307 245.854 157.915 244.158 157.131C242.462 156.338 241.141 155.217 240.195 153.768C239.258 152.311 238.789 150.585 238.789 148.591V131.818H245.897V147.977C245.897 148.787 246.076 149.511 246.434 150.151C246.792 150.781 247.286 151.276 247.917 151.634C248.556 151.991 249.281 152.17 250.09 152.17C250.908 152.17 251.633 151.991 252.263 151.634C252.894 151.276 253.388 150.781 253.746 150.151C254.104 149.511 254.283 148.787 254.283 147.977V131.818ZM271.877 131.818V158H264.77V131.818H271.877ZM297.9 131.818V158H291.968L282.507 144.244H282.354V158H275.246V131.818H281.28L290.587 145.523H290.792V131.818H297.9ZM326.625 144.909C326.625 147.824 326.059 150.283 324.925 152.286C323.792 154.28 322.262 155.793 320.336 156.824C318.409 157.847 316.262 158.358 313.892 158.358C311.506 158.358 309.35 157.842 307.424 156.811C305.506 155.771 303.98 154.254 302.847 152.26C301.722 150.257 301.159 147.807 301.159 144.909C301.159 141.994 301.722 139.54 302.847 137.545C303.98 135.543 305.506 134.03 307.424 133.007C309.35 131.976 311.506 131.46 313.892 131.46C316.262 131.46 318.409 131.976 320.336 133.007C322.262 134.03 323.792 135.543 324.925 137.545C326.059 139.54 326.625 141.994 326.625 144.909ZM319.313 144.909C319.313 143.341 319.104 142.02 318.686 140.946C318.277 139.864 317.668 139.045 316.858 138.491C316.057 137.929 315.069 137.648 313.892 137.648C312.716 137.648 311.723 137.929 310.914 138.491C310.113 139.045 309.503 139.864 309.086 140.946C308.676 142.02 308.472 143.341 308.472 144.909C308.472 146.477 308.676 147.803 309.086 148.885C309.503 149.959 310.113 150.777 310.914 151.339C311.723 151.893 312.716 152.17 313.892 152.17C315.069 152.17 316.057 151.893 316.858 151.339C317.668 150.777 318.277 149.959 318.686 148.885C319.104 147.803 319.313 146.477 319.313 144.909ZM352.58 131.818H359.688V148.591C359.688 150.585 359.211 152.311 358.256 153.768C357.31 155.217 355.989 156.338 354.293 157.131C352.597 157.915 350.629 158.307 348.387 158.307C346.129 158.307 344.151 157.915 342.455 157.131C340.759 156.338 339.438 155.217 338.492 153.768C337.555 152.311 337.086 150.585 337.086 148.591V131.818H344.194V147.977C344.194 148.787 344.373 149.511 344.731 150.151C345.089 150.781 345.583 151.276 346.214 151.634C346.853 151.991 347.577 152.17 348.387 152.17C349.205 152.17 349.93 151.991 350.56 151.634C351.191 151.276 351.685 150.781 352.043 150.151C352.401 149.511 352.58 148.787 352.58 147.977V131.818ZM385.72 131.818V158H379.788L370.328 144.244H370.174V158H363.066V131.818H369.1L378.407 145.523H378.612V131.818H385.72ZM414.446 144.909C414.446 147.824 413.879 150.283 412.745 152.286C411.612 154.28 410.082 155.793 408.156 156.824C406.23 157.847 404.082 158.358 401.713 158.358C399.326 158.358 397.17 157.842 395.244 156.811C393.326 155.771 391.801 154.254 390.667 152.26C389.542 150.257 388.98 147.807 388.98 144.909C388.98 141.994 389.542 139.54 390.667 137.545C391.801 135.543 393.326 134.03 395.244 133.007C397.17 131.976 399.326 131.46 401.713 131.46C404.082 131.46 406.23 131.976 408.156 133.007C410.082 134.03 411.612 135.543 412.745 137.545C413.879 139.54 414.446 141.994 414.446 144.909ZM407.133 144.909C407.133 143.341 406.924 142.02 406.507 140.946C406.098 139.864 405.488 139.045 404.679 138.491C403.877 137.929 402.889 137.648 401.713 137.648C400.537 137.648 399.544 137.929 398.734 138.491C397.933 139.045 397.324 139.864 396.906 140.946C396.497 142.02 396.292 143.341 396.292 144.909C396.292 146.477 396.497 147.803 396.906 148.885C397.324 149.959 397.933 150.777 398.734 151.339C399.544 151.893 400.537 152.17 401.713 152.17C402.889 152.17 403.877 151.893 404.679 151.339C405.488 150.777 406.098 149.959 406.507 148.885C406.924 147.803 407.133 146.477 407.133 144.909ZM424.906 158V131.818H436.207C438.151 131.818 439.851 132.172 441.308 132.879C442.766 133.587 443.899 134.605 444.709 135.935C445.518 137.264 445.923 138.858 445.923 140.716C445.923 142.591 445.506 144.172 444.67 145.459C443.844 146.746 442.68 147.717 441.18 148.374C439.689 149.03 437.946 149.358 435.952 149.358H429.202V143.835H434.52C435.355 143.835 436.067 143.733 436.655 143.528C437.251 143.315 437.707 142.979 438.023 142.518C438.347 142.058 438.509 141.457 438.509 140.716C438.509 139.966 438.347 139.357 438.023 138.888C437.707 138.411 437.251 138.061 436.655 137.839C436.067 137.609 435.355 137.494 434.52 137.494H432.014V158H424.906ZM440.247 145.983L446.793 158H439.071L432.679 145.983H440.247ZM459.232 158.358C457.169 158.358 455.337 158.004 453.734 157.297C452.141 156.581 450.888 155.597 449.976 154.344C449.064 153.091 448.604 151.651 448.595 150.023H455.754C455.763 150.526 455.916 150.977 456.214 151.378C456.521 151.77 456.939 152.077 457.467 152.298C457.996 152.52 458.601 152.631 459.283 152.631C459.939 152.631 460.518 152.516 461.021 152.286C461.524 152.047 461.916 151.719 462.197 151.301C462.479 150.884 462.615 150.406 462.607 149.869C462.615 149.341 462.453 148.872 462.121 148.463C461.797 148.054 461.341 147.734 460.753 147.504C460.165 147.274 459.487 147.159 458.72 147.159H456.061V142.25H458.72C459.428 142.25 460.05 142.135 460.587 141.905C461.132 141.675 461.554 141.355 461.852 140.946C462.159 140.537 462.308 140.068 462.3 139.54C462.308 139.028 462.185 138.577 461.929 138.185C461.673 137.793 461.315 137.486 460.855 137.264C460.403 137.043 459.879 136.932 459.283 136.932C458.635 136.932 458.055 137.047 457.544 137.277C457.041 137.507 456.645 137.827 456.355 138.236C456.065 138.645 455.916 139.114 455.908 139.642H449.107C449.115 138.04 449.554 136.625 450.423 135.398C451.301 134.17 452.503 133.207 454.028 132.509C455.554 131.81 457.305 131.46 459.283 131.46C461.217 131.46 462.926 131.788 464.409 132.445C465.901 133.101 467.064 134.004 467.899 135.155C468.743 136.297 469.161 137.605 469.152 139.08C469.169 140.545 468.666 141.747 467.643 142.685C466.629 143.622 465.342 144.176 463.783 144.347V144.551C465.896 144.781 467.486 145.429 468.551 146.494C469.616 147.551 470.141 148.881 470.124 150.483C470.132 152.017 469.672 153.376 468.743 154.561C467.822 155.746 466.54 156.675 464.895 157.348C463.259 158.021 461.371 158.358 459.232 158.358Z" fill="#404040"/>
<path d="M141.711 280.641C141.677 280.503 141.624 280.382 141.551 280.277C141.478 280.171 141.387 280.081 141.277 280.008C141.171 279.932 141.046 279.876 140.902 279.84C140.762 279.801 140.607 279.781 140.438 279.781C140.073 279.781 139.762 279.868 139.504 280.043C139.249 280.217 139.053 280.469 138.918 280.797C138.785 281.125 138.719 281.521 138.719 281.984C138.719 282.453 138.783 282.854 138.91 283.188C139.038 283.521 139.228 283.776 139.48 283.953C139.733 284.13 140.047 284.219 140.422 284.219C140.753 284.219 141.027 284.171 141.246 284.074C141.467 283.978 141.633 283.841 141.742 283.664C141.852 283.487 141.906 283.279 141.906 283.039L142.281 283.078H140.453V281.531H144V282.641C144 283.37 143.845 283.993 143.535 284.512C143.228 285.027 142.803 285.423 142.262 285.699C141.723 285.973 141.104 286.109 140.406 286.109C139.628 286.109 138.944 285.944 138.355 285.613C137.767 285.283 137.307 284.811 136.977 284.199C136.648 283.587 136.484 282.859 136.484 282.016C136.484 281.354 136.585 280.768 136.785 280.258C136.988 279.747 137.27 279.316 137.629 278.965C137.988 278.611 138.404 278.344 138.875 278.164C139.346 277.982 139.852 277.891 140.391 277.891C140.865 277.891 141.305 277.958 141.711 278.094C142.12 278.227 142.48 278.417 142.793 278.664C143.108 278.909 143.362 279.199 143.555 279.535C143.747 279.871 143.865 280.24 143.906 280.641H141.711ZM151.935 278V286H150.122L147.231 281.797H147.185V286H145.013V278H146.856L149.7 282.188H149.763V278H151.935ZM156.04 286H152.962V278H156.009C156.832 278 157.543 278.16 158.142 278.48C158.743 278.798 159.207 279.257 159.532 279.855C159.86 280.452 160.024 281.167 160.024 282C160.024 282.833 159.862 283.549 159.536 284.148C159.211 284.745 158.75 285.203 158.153 285.523C157.557 285.841 156.853 286 156.04 286ZM155.134 284.156H155.962C156.358 284.156 156.695 284.092 156.974 283.965C157.255 283.837 157.468 283.617 157.614 283.305C157.763 282.992 157.837 282.557 157.837 282C157.837 281.443 157.761 281.008 157.61 280.695C157.462 280.383 157.243 280.163 156.954 280.035C156.668 279.908 156.316 279.844 155.899 279.844H155.134V284.156Z" fill="#404040"/>
<path d="M434.109 284.188V285.812H430.359V284.188H434.109ZM438.501 280.891C438.968 280.891 439.409 280.965 439.826 281.113C440.242 281.259 440.611 281.49 440.931 281.805C441.254 282.12 441.507 282.531 441.689 283.039C441.874 283.544 441.968 284.156 441.97 284.875C441.973 285.531 441.891 286.121 441.724 286.645C441.56 287.165 441.324 287.609 441.017 287.977C440.712 288.344 440.345 288.625 439.916 288.82C439.488 289.013 439.012 289.109 438.486 289.109C437.895 289.109 437.375 288.996 436.927 288.77C436.479 288.543 436.123 288.238 435.857 287.855C435.591 287.473 435.436 287.047 435.392 286.578H437.533C437.585 286.82 437.699 286.996 437.876 287.105C438.054 287.212 438.257 287.266 438.486 287.266C438.944 287.266 439.279 287.068 439.49 286.672C439.703 286.273 439.811 285.742 439.814 285.078H439.767C439.666 285.323 439.512 285.533 439.306 285.707C439.1 285.882 438.861 286.016 438.587 286.109C438.314 286.203 438.025 286.25 437.72 286.25C437.238 286.25 436.817 286.142 436.455 285.926C436.093 285.707 435.81 285.409 435.607 285.031C435.404 284.651 435.301 284.219 435.298 283.734C435.296 283.167 435.43 282.669 435.701 282.242C435.972 281.815 436.348 281.483 436.83 281.246C437.311 281.009 437.869 280.891 438.501 280.891ZM438.517 282.531C438.301 282.531 438.108 282.581 437.939 282.68C437.772 282.779 437.641 282.913 437.544 283.082C437.451 283.251 437.405 283.443 437.408 283.656C437.41 283.87 437.458 284.061 437.552 284.23C437.649 284.4 437.779 284.534 437.943 284.633C438.11 284.732 438.301 284.781 438.517 284.781C438.676 284.781 438.823 284.754 438.958 284.699C439.094 284.642 439.211 284.562 439.31 284.461C439.412 284.357 439.49 284.237 439.544 284.102C439.602 283.964 439.629 283.815 439.626 283.656C439.624 283.443 439.574 283.251 439.478 283.082C439.382 282.913 439.25 282.779 439.083 282.68C438.917 282.581 438.728 282.531 438.517 282.531Z" fill="#404040"/>
<path d="M471 289.109C470.354 289.109 469.777 289.009 469.269 288.809C468.764 288.608 468.365 288.336 468.074 287.992C467.785 287.648 467.64 287.26 467.64 286.828C467.64 286.497 467.722 286.195 467.886 285.922C468.053 285.648 468.277 285.422 468.558 285.242C468.839 285.06 469.153 284.943 469.5 284.891V284.828C469.044 284.75 468.669 284.548 468.375 284.223C468.083 283.895 467.937 283.508 467.937 283.062C467.937 282.643 468.07 282.271 468.335 281.945C468.601 281.617 468.964 281.359 469.425 281.172C469.886 280.984 470.411 280.891 471 280.891C471.588 280.891 472.113 280.986 472.574 281.176C473.035 281.363 473.398 281.621 473.664 281.949C473.929 282.275 474.062 282.646 474.062 283.062C474.062 283.51 473.914 283.897 473.617 284.223C473.32 284.548 472.947 284.75 472.5 284.828V284.891C472.843 284.943 473.156 285.06 473.437 285.242C473.718 285.422 473.942 285.648 474.109 285.922C474.276 286.195 474.359 286.497 474.359 286.828C474.359 287.26 474.213 287.648 473.921 287.992C473.632 288.336 473.234 288.608 472.726 288.809C472.221 289.009 471.645 289.109 471 289.109ZM471 287.609C471.205 287.609 471.388 287.568 471.546 287.484C471.705 287.401 471.83 287.286 471.921 287.141C472.015 286.992 472.062 286.826 472.062 286.641C472.062 286.456 472.015 286.292 471.921 286.148C471.83 286.005 471.705 285.893 471.546 285.812C471.388 285.729 471.205 285.687 471 285.687C470.796 285.687 470.614 285.729 470.453 285.812C470.294 285.893 470.167 286.005 470.074 286.148C469.983 286.292 469.937 286.456 469.937 286.641C469.937 286.826 469.983 286.991 470.074 287.137C470.167 287.283 470.294 287.398 470.453 287.484C470.614 287.568 470.796 287.609 471 287.609ZM471 284.188C471.182 284.188 471.343 284.15 471.484 284.074C471.625 283.999 471.735 283.895 471.816 283.762C471.897 283.629 471.937 283.479 471.937 283.312C471.937 283.146 471.897 282.999 471.816 282.871C471.735 282.741 471.625 282.639 471.484 282.566C471.343 282.491 471.182 282.453 471 282.453C470.82 282.453 470.658 282.491 470.515 282.566C470.375 282.639 470.264 282.741 470.183 282.871C470.102 282.999 470.062 283.146 470.062 283.312C470.062 283.479 470.102 283.629 470.183 283.762C470.264 283.892 470.375 283.996 470.515 284.074C470.658 284.15 470.82 284.188 471 284.188Z" fill="#404040"/>
<path d="M502.534 289L505.674 282.781V282.734H501.987V281H507.924V282.734L504.768 289H502.534Z" fill="#404040"/>
<path d="M514.109 252.322C514.109 252.937 514.001 253.482 513.785 253.959C513.566 254.433 513.266 254.807 512.883 255.08C512.5 255.351 512.06 255.489 511.562 255.494V253.385C511.839 253.377 512.059 253.27 512.223 253.064C512.387 252.856 512.469 252.609 512.469 252.322C512.469 252.101 512.422 251.906 512.328 251.736C512.232 251.567 512.096 251.434 511.922 251.338C511.747 251.242 511.544 251.195 511.312 251.197C511.078 251.195 510.875 251.242 510.703 251.338C510.529 251.434 510.395 251.567 510.301 251.736C510.204 251.906 510.156 252.101 510.156 252.322C510.156 252.551 510.212 252.764 510.324 252.959C510.434 253.152 510.586 253.294 510.781 253.385L510.406 255.291L506 254.979V249.604H507.734V253.197L509.5 253.354V253.307C509.258 253.182 509.057 252.965 508.898 252.658C508.737 252.351 508.656 251.994 508.656 251.588C508.656 251.111 508.767 250.687 508.988 250.314C509.21 249.939 509.516 249.644 509.906 249.428C510.294 249.209 510.742 249.101 511.25 249.104C511.807 249.101 512.302 249.234 512.734 249.502C513.164 249.768 513.501 250.141 513.746 250.623C513.988 251.105 514.109 251.671 514.109 252.322ZM506 245.995L511.641 244.354V244.292L506 242.651V240.198L514 242.839V245.808L506 248.448V245.995Z" fill="#404040"/>
<path d="M398.074 284.188V285.812H394.324V284.188H398.074ZM403.264 281V289H401.092V283H401.045L399.295 284.047V282.203L401.264 281H403.264ZM408.391 289.219C407.664 289.216 407.036 289.048 406.508 288.715C405.979 288.382 405.572 287.901 405.285 287.273C404.999 286.646 404.857 285.893 404.859 285.016C404.862 284.135 405.005 283.388 405.289 282.773C405.576 282.159 405.982 281.691 406.508 281.371C407.036 281.051 407.664 280.891 408.391 280.891C409.117 280.891 409.745 281.052 410.273 281.375C410.802 281.695 411.21 282.163 411.496 282.777C411.783 283.392 411.924 284.138 411.922 285.016C411.922 285.898 411.779 286.654 411.492 287.281C411.206 287.909 410.798 288.389 410.27 288.723C409.743 289.053 409.117 289.219 408.391 289.219ZM408.391 287.453C408.766 287.453 409.073 287.258 409.313 286.867C409.555 286.474 409.674 285.857 409.672 285.016C409.672 284.466 409.617 284.017 409.508 283.668C409.398 283.319 409.247 283.061 409.055 282.895C408.862 282.725 408.641 282.641 408.391 282.641C408.016 282.641 407.71 282.831 407.473 283.211C407.236 283.591 407.115 284.193 407.109 285.016C407.107 285.576 407.16 286.036 407.27 286.398C407.379 286.758 407.53 287.023 407.723 287.195C407.918 287.367 408.141 287.453 408.391 287.453Z" fill="#404040"/>
<rect x="137" y="298" width="22" height="22" stroke="#404040" stroke-width="4"/>
<rect x="521" y="237" width="22" height="22" stroke="#404040" stroke-width="4"/>
<rect x="460" y="301" width="22" height="22" stroke="#404040" stroke-width="4"/>
<rect x="494" y="301" width="22" height="22" stroke="#404040" stroke-width="4"/>
<rect x="392" y="301" width="22" height="22" stroke="#404040" stroke-width="4"/>
<path d="M365.31 284.188V285.812H361.56V284.188H365.31ZM370.499 281V289H368.327V283H368.28L366.53 284.047V282.203L368.499 281H370.499ZM376.063 281V289H373.892V283H373.845L372.095 284.047V282.203L374.063 281H376.063Z" fill="#404040"/>
<rect x="358" y="301" width="22" height="22" stroke="#404040" stroke-width="4"/>
<path d="M334.115 281V289H331.943V283H331.896L330.146 284.047V282.203L332.115 281H334.115ZM335.758 289V287.438L338.742 284.969C338.94 284.805 339.109 284.651 339.25 284.508C339.393 284.362 339.503 284.212 339.578 284.059C339.656 283.905 339.695 283.734 339.695 283.547C339.695 283.341 339.651 283.165 339.563 283.02C339.477 282.874 339.357 282.762 339.203 282.684C339.049 282.603 338.872 282.562 338.672 282.562C338.471 282.562 338.294 282.603 338.141 282.684C337.99 282.764 337.872 282.883 337.789 283.039C337.706 283.195 337.664 283.385 337.664 283.609H335.602C335.602 283.047 335.728 282.562 335.98 282.156C336.233 281.75 336.59 281.438 337.051 281.219C337.512 281 338.052 280.891 338.672 280.891C339.313 280.891 339.867 280.993 340.336 281.199C340.807 281.402 341.171 281.689 341.426 282.059C341.684 282.428 341.813 282.862 341.813 283.359C341.813 283.667 341.749 283.973 341.621 284.277C341.493 284.579 341.264 284.914 340.934 285.281C340.603 285.648 340.133 286.086 339.523 286.594L338.773 287.219V287.266H341.898V289H335.758Z" fill="#404040"/>
<rect x="325" y="301" width="22" height="22" stroke="#404040" stroke-width="4"/>
<path d="M209.959 281V289H207.788V283H207.741L205.991 284.047V282.203L207.959 281H209.959ZM214.727 289.109C214.097 289.109 213.537 289.001 213.047 288.785C212.56 288.566 212.178 288.266 211.899 287.883C211.62 287.5 211.48 287.06 211.477 286.562H213.665C213.667 286.716 213.714 286.854 213.805 286.977C213.899 287.096 214.027 287.19 214.188 287.258C214.349 287.326 214.534 287.359 214.743 287.359C214.943 287.359 215.12 287.324 215.274 287.254C215.428 287.181 215.547 287.081 215.633 286.953C215.719 286.826 215.761 286.68 215.758 286.516C215.761 286.354 215.711 286.211 215.61 286.086C215.511 285.961 215.372 285.863 215.192 285.793C215.012 285.723 214.805 285.687 214.571 285.687H213.758V284.188H214.571C214.787 284.188 214.977 284.152 215.141 284.082C215.308 284.012 215.437 283.914 215.528 283.789C215.622 283.664 215.667 283.521 215.665 283.359C215.667 283.203 215.629 283.065 215.551 282.945C215.473 282.826 215.364 282.732 215.223 282.664C215.085 282.596 214.925 282.562 214.743 282.562C214.545 282.562 214.368 282.598 214.211 282.668C214.058 282.738 213.937 282.836 213.848 282.961C213.76 283.086 213.714 283.229 213.711 283.391H211.633C211.636 282.901 211.77 282.469 212.036 282.094C212.304 281.719 212.671 281.424 213.137 281.211C213.603 280.997 214.139 280.891 214.743 280.891C215.334 280.891 215.856 280.991 216.309 281.191C216.765 281.392 217.12 281.668 217.375 282.02C217.633 282.368 217.761 282.768 217.758 283.219C217.764 283.667 217.61 284.034 217.297 284.32C216.987 284.607 216.594 284.776 216.118 284.828V284.891C216.764 284.961 217.249 285.159 217.575 285.484C217.9 285.807 218.06 286.214 218.055 286.703C218.058 287.172 217.917 287.587 217.633 287.949C217.352 288.311 216.96 288.595 216.458 288.801C215.958 289.007 215.381 289.109 214.727 289.109Z" fill="#404040"/>
<rect x="201" y="301" width="22" height="22" stroke="#404040" stroke-width="4"/>
<rect x="426" y="301" width="22" height="22" stroke="#404040" stroke-width="4"/>
<rect x="137" y="298" width="22" height="22" stroke="#404040" stroke-width="4"/>
<rect x="525" y="241" width="14" height="14" fill="#EB5757"/>
<rect x="539" y="245" width="106" height="6" fill="#EB5757"/>
<rect x="645" y="245" width="6" height="311" fill="#EB5757"/>
<rect x="141" y="302" width="14" height="14" fill="#404040"/>
<rect x="148" y="556" width="6" height="503" transform="rotate(-90 148 556)" fill="#404040"/>
<rect x="145" y="309" width="6" height="247" fill="#404040"/>
<path d="M686.5 160V136.727H692.818V145.818H701.182V136.727H707.5V160H701.182V150.909H692.818V160H686.5ZM724.273 136.727H730.591V151.636C730.591 153.409 730.167 154.943 729.318 156.239C728.477 157.527 727.303 158.523 725.795 159.227C724.288 159.924 722.538 160.273 720.545 160.273C718.538 160.273 716.78 159.924 715.273 159.227C713.765 158.523 712.591 157.527 711.75 156.239C710.917 154.943 710.5 153.409 710.5 151.636V136.727H716.818V151.091C716.818 151.811 716.977 152.455 717.295 153.023C717.614 153.583 718.053 154.023 718.614 154.341C719.182 154.659 719.826 154.818 720.545 154.818C721.273 154.818 721.917 154.659 722.477 154.341C723.038 154.023 723.477 153.583 723.795 153.023C724.114 152.455 724.273 151.811 724.273 151.091V136.727ZM733.594 136.727H741.457L746.866 149.909H747.139L752.548 136.727H760.412V160H754.23V146.545H754.048L748.866 159.818H745.139L739.957 146.455H739.776V160H733.594V136.727ZM769.724 136.727V160H763.406V136.727H769.724ZM781.673 160H772.719V136.727H781.582C783.976 136.727 786.045 137.193 787.787 138.125C789.537 139.049 790.885 140.383 791.832 142.125C792.787 143.86 793.264 145.939 793.264 148.364C793.264 150.788 792.791 152.871 791.844 154.614C790.897 156.348 789.556 157.682 787.821 158.614C786.086 159.538 784.037 160 781.673 160ZM779.037 154.636H781.446C782.598 154.636 783.579 154.451 784.389 154.08C785.207 153.708 785.829 153.068 786.253 152.159C786.685 151.25 786.901 149.985 786.901 148.364C786.901 146.742 786.681 145.477 786.241 144.568C785.81 143.659 785.173 143.019 784.332 142.648C783.499 142.277 782.476 142.091 781.264 142.091H779.037V154.636ZM802.506 136.727V160H796.188V136.727H802.506ZM804.864 141.818V136.727H825.091V141.818H818.091V160H811.864V141.818H804.864ZM826.514 136.727H833.56L838.105 146.182H838.287L842.832 136.727H849.878L841.332 152.682V160H835.06V152.682L826.514 136.727ZM864.358 160H857.54L865.222 136.727H873.858L881.54 160H874.722L869.631 143.136H869.449L864.358 160ZM863.085 150.818H875.903V155.545H863.085V150.818ZM903.918 136.727V160H898.645L890.236 147.773H890.099V160H883.781V136.727H889.145L897.418 148.909H897.599V136.727H903.918ZM915.861 160H906.906V136.727H915.77C918.164 136.727 920.232 137.193 921.974 138.125C923.724 139.049 925.073 140.383 926.02 142.125C926.974 143.86 927.452 145.939 927.452 148.364C927.452 150.788 926.978 152.871 926.031 154.614C925.084 156.348 923.743 157.682 922.009 158.614C920.274 159.538 918.224 160 915.861 160ZM913.224 154.636H915.634C916.785 154.636 917.766 154.451 918.577 154.08C919.395 153.708 920.016 153.068 920.44 152.159C920.872 151.25 921.088 149.985 921.088 148.364C921.088 146.742 920.868 145.477 920.429 144.568C919.997 143.659 919.361 143.019 918.52 142.648C917.687 142.277 916.664 142.091 915.452 142.091H913.224V154.636ZM685.864 180.818V175.727H706.091V180.818H699.091V199H692.864V180.818H685.864ZM708.469 199V175.727H725.241V180.818H714.787V184.818H724.378V189.909H714.787V193.909H725.196V199H708.469ZM728.375 175.727H736.239L741.648 188.909H741.92L747.33 175.727H755.193V199H749.011V185.545H748.83L743.648 198.818H739.92L734.739 185.455H734.557V199H728.375V175.727ZM758.188 199V175.727H768.233C769.96 175.727 771.472 176.068 772.767 176.75C774.063 177.432 775.07 178.39 775.79 179.625C776.509 180.86 776.869 182.303 776.869 183.955C776.869 185.621 776.498 187.064 775.756 188.284C775.021 189.504 773.987 190.443 772.653 191.102C771.328 191.761 769.778 192.091 768.006 192.091H762.006V187.182H766.733C767.475 187.182 768.108 187.053 768.631 186.795C769.161 186.53 769.566 186.155 769.847 185.67C770.134 185.186 770.278 184.614 770.278 183.955C770.278 183.288 770.134 182.72 769.847 182.25C769.566 181.773 769.161 181.409 768.631 181.159C768.108 180.902 767.475 180.773 766.733 180.773H764.506V199H758.188ZM779.188 199V175.727H795.96V180.818H785.506V184.818H795.097V189.909H785.506V193.909H795.915V199H779.188ZM799.094 199V175.727H809.139C810.866 175.727 812.378 176.042 813.673 176.67C814.969 177.299 815.976 178.205 816.696 179.386C817.416 180.568 817.776 181.985 817.776 183.636C817.776 185.303 817.404 186.708 816.662 187.852C815.927 188.996 814.893 189.86 813.56 190.443C812.234 191.027 810.685 191.318 808.912 191.318H802.912V186.409H807.639C808.382 186.409 809.014 186.318 809.537 186.136C810.067 185.947 810.473 185.648 810.753 185.239C811.041 184.83 811.185 184.295 811.185 183.636C811.185 182.97 811.041 182.428 810.753 182.011C810.473 181.587 810.067 181.277 809.537 181.08C809.014 180.875 808.382 180.773 807.639 180.773H805.412V199H799.094ZM812.73 188.318L818.548 199H811.685L806.003 188.318H812.73ZM826.514 199H819.696L827.378 175.727H836.014L843.696 199H836.878L831.787 182.136H831.605L826.514 199ZM825.241 189.818H838.06V194.545H825.241V189.818ZM842.364 180.818V175.727H862.591V180.818H855.591V199H849.364V180.818H842.364ZM878.741 175.727H885.06V190.636C885.06 192.409 884.635 193.943 883.787 195.239C882.946 196.527 881.772 197.523 880.264 198.227C878.757 198.924 877.007 199.273 875.014 199.273C873.007 199.273 871.249 198.924 869.741 198.227C868.234 197.523 867.06 196.527 866.219 195.239C865.385 193.943 864.969 192.409 864.969 190.636V175.727H871.287V190.091C871.287 190.811 871.446 191.455 871.764 192.023C872.082 192.583 872.522 193.023 873.082 193.341C873.651 193.659 874.295 193.818 875.014 193.818C875.741 193.818 876.385 193.659 876.946 193.341C877.507 193.023 877.946 192.583 878.264 192.023C878.582 191.455 878.741 190.811 878.741 190.091V175.727ZM888.062 199V175.727H898.108C899.835 175.727 901.347 176.042 902.642 176.67C903.938 177.299 904.945 178.205 905.665 179.386C906.384 180.568 906.744 181.985 906.744 183.636C906.744 185.303 906.373 186.708 905.631 187.852C904.896 188.996 903.862 189.86 902.528 190.443C901.203 191.027 899.653 191.318 897.881 191.318H891.881V186.409H896.608C897.35 186.409 897.983 186.318 898.506 186.136C899.036 185.947 899.441 185.648 899.722 185.239C900.009 184.83 900.153 184.295 900.153 183.636C900.153 182.97 900.009 182.428 899.722 182.011C899.441 181.587 899.036 181.277 898.506 181.08C897.983 180.875 897.35 180.773 896.608 180.773H894.381V199H888.062ZM901.699 188.318L907.517 199H900.653L894.972 188.318H901.699ZM909.438 199V175.727H926.21V180.818H915.756V184.818H925.347V189.909H915.756V193.909H926.165V199H909.438ZM944.673 199H935.719V175.727H944.582C946.976 175.727 949.045 176.193 950.787 177.125C952.537 178.049 953.885 179.383 954.832 181.125C955.787 182.86 956.264 184.939 956.264 187.364C956.264 189.788 955.791 191.871 954.844 193.614C953.897 195.348 952.556 196.682 950.821 197.614C949.086 198.538 947.037 199 944.673 199ZM942.037 193.636H944.446C945.598 193.636 946.579 193.451 947.389 193.08C948.207 192.708 948.829 192.068 949.253 191.159C949.685 190.25 949.901 188.985 949.901 187.364C949.901 185.742 949.681 184.477 949.241 183.568C948.81 182.659 948.173 182.019 947.332 181.648C946.499 181.277 945.476 181.091 944.264 181.091H942.037V193.636ZM965.506 175.727V199H959.188V175.727H965.506ZM981.045 183C980.985 182.242 980.701 181.652 980.193 181.227C979.693 180.803 978.932 180.591 977.909 180.591C977.258 180.591 976.723 180.67 976.307 180.83C975.898 180.981 975.595 181.189 975.398 181.455C975.201 181.72 975.098 182.023 975.091 182.364C975.076 182.644 975.125 182.898 975.239 183.125C975.36 183.345 975.549 183.545 975.807 183.727C976.064 183.902 976.394 184.061 976.795 184.205C977.197 184.348 977.674 184.477 978.227 184.591L980.136 185C981.424 185.273 982.527 185.633 983.443 186.08C984.36 186.527 985.11 187.053 985.693 187.659C986.277 188.258 986.705 188.932 986.977 189.682C987.258 190.432 987.402 191.25 987.409 192.136C987.402 193.667 987.019 194.962 986.261 196.023C985.504 197.083 984.42 197.89 983.011 198.443C981.61 198.996 979.924 199.273 977.955 199.273C975.932 199.273 974.167 198.973 972.659 198.375C971.159 197.777 969.992 196.856 969.159 195.614C968.333 194.364 967.917 192.765 967.909 190.818H973.909C973.947 191.53 974.125 192.129 974.443 192.614C974.761 193.098 975.208 193.466 975.784 193.716C976.367 193.966 977.061 194.091 977.864 194.091C978.538 194.091 979.102 194.008 979.557 193.841C980.011 193.674 980.356 193.443 980.591 193.148C980.826 192.852 980.947 192.515 980.955 192.136C980.947 191.78 980.83 191.47 980.602 191.205C980.383 190.932 980.019 190.689 979.511 190.477C979.004 190.258 978.318 190.053 977.455 189.864L975.136 189.364C973.076 188.917 971.451 188.17 970.261 187.125C969.08 186.072 968.492 184.636 968.5 182.818C968.492 181.341 968.886 180.049 969.682 178.943C970.485 177.83 971.595 176.962 973.011 176.341C974.436 175.72 976.068 175.409 977.909 175.409C979.788 175.409 981.413 175.723 982.784 176.352C984.155 176.981 985.212 177.867 985.955 179.011C986.705 180.148 987.083 181.477 987.091 183H981.045ZM989.812 199V175.727H999.858C1001.59 175.727 1003.1 176.068 1004.39 176.75C1005.69 177.432 1006.7 178.39 1007.41 179.625C1008.13 180.86 1008.49 182.303 1008.49 183.955C1008.49 185.621 1008.12 187.064 1007.38 188.284C1006.65 189.504 1005.61 190.443 1004.28 191.102C1002.95 191.761 1001.4 192.091 999.631 192.091H993.631V187.182H998.358C999.1 187.182 999.733 187.053 1000.26 186.795C1000.79 186.53 1001.19 186.155 1001.47 185.67C1001.76 185.186 1001.9 184.614 1001.9 183.955C1001.9 183.288 1001.76 182.72 1001.47 182.25C1001.19 181.773 1000.79 181.409 1000.26 181.159C999.733 180.902 999.1 180.773 998.358 180.773H996.131V199H989.812ZM1010.81 199V175.727H1017.13V193.909H1026.54V199H1010.81ZM1035.14 199H1028.32L1036 175.727H1044.64L1052.32 199H1045.5L1040.41 182.136H1040.23L1035.14 199ZM1033.87 189.818H1046.68V194.545H1033.87V189.818ZM1051.23 175.727H1058.28L1062.82 185.182H1063.01L1067.55 175.727H1074.6L1066.05 191.682V199H1059.78V191.682L1051.23 175.727Z" fill="#4F4F4F"/>
<rect x="676" y="167" width="420" height="3" rx="1.5" fill="#404040"/>
<rect x="319.5" y="452.5" width="229" height="66" rx="9.5" fill="#0662DE" stroke="#404040" stroke-width="9"/>
<path d="M554 471.473V472.751L549.636 471.311V469.692L554 468.251V469.53L550.838 470.484V470.518L554 471.473ZM552.278 471.712V469.308H553.165V471.712H552.278Z" fill="#FCFCFC"/>
<path d="M549.636 505.314L552.713 504.419V504.385L549.636 503.49V502.152L554 503.592V505.211L549.636 506.652V505.314ZM554 500.052V501.731H549.636V500.07C549.636 499.621 549.724 499.233 549.898 498.906C550.072 498.578 550.322 498.325 550.648 498.148C550.974 497.969 551.364 497.879 551.818 497.879C552.273 497.879 552.663 497.968 552.99 498.146C553.315 498.323 553.565 498.574 553.74 498.9C553.913 499.225 554 499.609 554 500.052ZM552.994 500.547V500.095C552.994 499.879 552.96 499.695 552.89 499.543C552.82 499.39 552.7 499.273 552.53 499.194C552.359 499.113 552.122 499.072 551.818 499.072C551.514 499.072 551.277 499.114 551.107 499.196C550.936 499.277 550.816 499.396 550.746 499.554C550.677 499.71 550.642 499.902 550.642 500.129V500.547H552.994ZM554 495.652V497.331H549.636V495.669C549.636 495.22 549.724 494.832 549.898 494.506C550.072 494.178 550.322 493.925 550.648 493.747C550.974 493.568 551.364 493.479 551.818 493.479C552.273 493.479 552.663 493.568 552.99 493.745C553.315 493.923 553.565 494.174 553.74 494.499C553.913 494.825 554 495.209 554 495.652ZM552.994 496.146V495.695C552.994 495.479 552.96 495.295 552.89 495.143C552.82 494.989 552.7 494.873 552.53 494.793C552.359 494.712 552.122 494.672 551.818 494.672C551.514 494.672 551.277 494.713 551.107 494.796C550.936 494.877 550.816 494.996 550.746 495.153C550.677 495.31 550.642 495.502 550.642 495.729V496.146H552.994Z" fill="#FCFCFC"/>
<path d="M514.137 529V524.636H515.321V526.401H515.381L516.694 524.636H518.074L516.6 526.58L518.108 529H516.694L515.713 527.364L515.321 527.875V529H514.137Z" fill="#FCFCFC"/>
<path d="M493.996 529V524.636H495.88C496.203 524.636 496.487 524.695 496.73 524.813C496.973 524.931 497.162 525.101 497.297 525.322C497.431 525.544 497.499 525.81 497.499 526.119C497.499 526.432 497.429 526.695 497.29 526.91C497.152 527.124 496.958 527.286 496.708 527.396C496.46 527.505 496.169 527.56 495.837 527.56H494.712V526.639H495.598C495.738 526.639 495.856 526.622 495.954 526.588C496.054 526.553 496.13 526.496 496.182 526.42C496.236 526.343 496.263 526.243 496.263 526.119C496.263 525.994 496.236 525.893 496.182 525.815C496.13 525.735 496.054 525.677 495.954 525.64C495.856 525.602 495.738 525.582 495.598 525.582H495.181V529H493.996ZM496.553 526.997L497.644 529H496.357L495.292 526.997H496.553ZM499.112 529L497.825 524.636H499.146L499.743 527.321H499.777L500.484 524.636H501.524L502.231 527.33H502.265L502.862 524.636H504.183L502.896 529H501.762L501.021 526.562H500.987L500.245 529H499.112Z" fill="#FCFCFC"/>
<rect x="478" y="527" width="6" height="27" fill="#404040"/>
<rect x="474" y="518" width="15" height="13" rx="2" fill="#404040"/>
<path d="M476.591 524.636L477.486 527.713H477.52L478.415 524.636H479.753L478.312 529H476.693L475.253 524.636H476.591ZM482.525 526C482.514 525.858 482.46 525.747 482.365 525.668C482.272 525.588 482.129 525.548 481.937 525.548C481.815 525.548 481.715 525.563 481.637 525.593C481.56 525.621 481.503 525.661 481.466 525.71C481.429 525.76 481.41 525.817 481.409 525.881C481.406 525.933 481.415 525.981 481.436 526.023C481.459 526.065 481.495 526.102 481.543 526.136C481.591 526.169 481.653 526.199 481.728 526.226C481.804 526.253 481.893 526.277 481.997 526.298L482.355 526.375C482.596 526.426 482.803 526.494 482.975 526.577C483.147 526.661 483.287 526.76 483.397 526.874C483.506 526.986 483.586 527.112 483.637 527.253C483.69 527.393 483.717 527.547 483.718 527.713C483.717 528 483.645 528.243 483.503 528.442C483.361 528.641 483.158 528.792 482.894 528.896C482.631 528.999 482.315 529.051 481.946 529.051C481.566 529.051 481.235 528.995 480.953 528.883C480.671 528.771 480.453 528.598 480.296 528.365C480.142 528.131 480.063 527.831 480.062 527.466H481.187C481.194 527.599 481.228 527.712 481.287 527.803C481.347 527.893 481.431 527.962 481.539 528.009C481.648 528.056 481.778 528.08 481.929 528.08C482.055 528.08 482.161 528.064 482.246 528.033C482.331 528.001 482.396 527.958 482.44 527.903C482.484 527.847 482.507 527.784 482.508 527.713C482.507 527.646 482.485 527.588 482.442 527.538C482.401 527.487 482.333 527.442 482.237 527.402C482.142 527.361 482.014 527.322 481.852 527.287L481.417 527.193C481.031 527.109 480.726 526.969 480.503 526.773C480.282 526.576 480.171 526.307 480.173 525.966C480.171 525.689 480.245 525.447 480.394 525.239C480.545 525.031 480.753 524.868 481.019 524.751C481.286 524.635 481.592 524.577 481.937 524.577C482.289 524.577 482.594 524.636 482.851 524.754C483.108 524.871 483.306 525.038 483.446 525.252C483.586 525.465 483.657 525.714 483.659 526H482.525ZM486.521 526C486.51 525.858 486.457 525.747 486.361 525.668C486.268 525.588 486.125 525.548 485.933 525.548C485.811 525.548 485.711 525.563 485.633 525.593C485.556 525.621 485.499 525.661 485.462 525.71C485.425 525.76 485.406 525.817 485.405 525.881C485.402 525.933 485.411 525.981 485.432 526.023C485.455 526.065 485.491 526.102 485.539 526.136C485.587 526.169 485.649 526.199 485.724 526.226C485.8 526.253 485.889 526.277 485.993 526.298L486.351 526.375C486.592 526.426 486.799 526.494 486.971 526.577C487.143 526.661 487.283 526.76 487.393 526.874C487.502 526.986 487.582 527.112 487.633 527.253C487.686 527.393 487.713 527.547 487.714 527.713C487.713 528 487.641 528.243 487.499 528.442C487.357 528.641 487.154 528.792 486.89 528.896C486.627 528.999 486.311 529.051 485.942 529.051C485.562 529.051 485.231 528.995 484.949 528.883C484.668 528.771 484.449 528.598 484.293 528.365C484.138 528.131 484.06 527.831 484.058 527.466H485.183C485.19 527.599 485.224 527.712 485.283 527.803C485.343 527.893 485.427 527.962 485.535 528.009C485.644 528.056 485.774 528.08 485.925 528.08C486.051 528.08 486.157 528.064 486.242 528.033C486.327 528.001 486.392 527.958 486.436 527.903C486.48 527.847 486.503 527.784 486.504 527.713C486.503 527.646 486.481 527.588 486.438 527.538C486.397 527.487 486.329 527.442 486.234 527.402C486.138 527.361 486.01 527.322 485.848 527.287L485.413 527.193C485.027 527.109 484.722 526.969 484.499 526.773C484.278 526.576 484.168 526.307 484.169 525.966C484.168 525.689 484.241 525.447 484.391 525.239C484.541 525.031 484.749 524.868 485.015 524.751C485.282 524.635 485.588 524.577 485.933 524.577C486.285 524.577 486.59 524.636 486.847 524.754C487.104 524.871 487.302 525.038 487.442 525.252C487.582 525.465 487.653 525.714 487.655 526H486.521Z" fill="#FCFCFC"/>
<rect x="329" y="441" width="14" height="13" rx="2" fill="#404040"/>
<path d="M333.929 450H332.25V445.636H333.912C334.361 445.636 334.749 445.724 335.075 445.898C335.403 446.072 335.656 446.322 335.834 446.648C336.013 446.974 336.102 447.364 336.102 447.818C336.102 448.273 336.013 448.663 335.836 448.99C335.658 449.315 335.407 449.565 335.082 449.74C334.756 449.913 334.372 450 333.929 450ZM333.435 448.994H333.886C334.102 448.994 334.286 448.96 334.438 448.89C334.592 448.82 334.708 448.7 334.788 448.53C334.869 448.359 334.909 448.122 334.909 447.818C334.909 447.514 334.868 447.277 334.786 447.107C334.705 446.936 334.585 446.816 334.428 446.746C334.271 446.677 334.08 446.642 333.852 446.642H333.435V448.994ZM336.855 450L338.568 446.608V446.582H336.557V445.636H339.795V446.582L338.074 450H336.855Z" fill="#FCFCFC"/>
<rect x="362" y="441" width="14" height="13" rx="2" fill="#404040"/>
<path d="M366.706 450H365.027V445.636H366.689C367.138 445.636 367.526 445.724 367.853 445.898C368.181 446.072 368.434 446.322 368.611 446.648C368.79 446.974 368.88 447.364 368.88 447.818C368.88 448.273 368.791 448.663 368.613 448.99C368.436 449.315 368.184 449.565 367.859 449.74C367.534 449.913 367.15 450 366.706 450ZM366.212 448.994H366.664C366.88 448.994 367.064 448.96 367.216 448.89C367.369 448.82 367.485 448.7 367.565 448.53C367.646 448.359 367.686 448.122 367.686 447.818C367.686 447.514 367.645 447.277 367.563 447.107C367.482 446.936 367.363 446.816 367.205 446.746C367.049 446.677 366.857 446.642 366.63 446.642H366.212V448.994ZM371.26 450.06C371.006 450.06 370.764 450.02 370.536 449.94C370.308 449.859 370.107 449.732 369.931 449.559C369.754 449.386 369.616 449.16 369.515 448.881C369.416 448.603 369.367 448.266 369.368 447.869C369.369 447.516 369.415 447.197 369.504 446.915C369.595 446.632 369.724 446.391 369.89 446.192C370.058 445.994 370.258 445.842 370.491 445.737C370.724 445.63 370.983 445.577 371.269 445.577C371.59 445.577 371.872 445.638 372.117 445.762C372.361 445.886 372.556 446.051 372.7 446.259C372.847 446.464 372.932 446.692 372.956 446.94H371.789C371.762 446.817 371.699 446.727 371.601 446.67C371.504 446.612 371.394 446.582 371.269 446.582C371.02 446.582 370.838 446.69 370.721 446.906C370.606 447.122 370.547 447.406 370.544 447.759H370.57C370.625 447.625 370.709 447.511 370.821 447.415C370.933 447.32 371.064 447.247 371.213 447.196C371.362 447.145 371.52 447.119 371.686 447.119C371.95 447.119 372.181 447.179 372.379 447.298C372.578 447.418 372.732 447.581 372.843 447.788C372.954 447.996 373.009 448.233 373.007 448.5C373.009 448.812 372.935 449.086 372.786 449.32C372.638 449.555 372.433 449.737 372.17 449.866C371.907 449.995 371.604 450.06 371.26 450.06ZM371.252 449.165C371.369 449.165 371.474 449.138 371.565 449.084C371.657 449.03 371.729 448.956 371.78 448.862C371.833 448.768 371.858 448.662 371.857 448.543C371.858 448.422 371.833 448.315 371.78 448.223C371.729 448.129 371.657 448.055 371.565 448.001C371.474 447.947 371.369 447.92 371.252 447.92C371.165 447.92 371.085 447.936 371.011 447.967C370.938 447.997 370.875 448.04 370.821 448.097C370.767 448.153 370.725 448.219 370.693 448.295C370.664 448.371 370.648 448.453 370.646 448.543C370.648 448.662 370.675 448.768 370.727 448.862C370.78 448.956 370.852 449.03 370.943 449.084C371.034 449.138 371.137 449.165 371.252 449.165Z" fill="#FCFCFC"/>
<rect x="396" y="441" width="14" height="13" rx="2" fill="#404040"/>
<path d="M400.753 450H399.074V445.636H400.736C401.185 445.636 401.573 445.724 401.9 445.898C402.228 446.072 402.48 446.322 402.658 446.648C402.837 446.974 402.926 447.364 402.926 447.818C402.926 448.273 402.838 448.663 402.66 448.99C402.483 449.315 402.231 449.565 401.906 449.74C401.581 449.913 401.196 450 400.753 450ZM400.259 448.994H400.711C400.926 448.994 401.11 448.96 401.262 448.89C401.416 448.82 401.532 448.7 401.612 448.53C401.693 448.359 401.733 448.122 401.733 447.818C401.733 447.514 401.692 447.277 401.61 447.107C401.529 446.936 401.409 446.816 401.252 446.746C401.096 446.677 400.904 446.642 400.676 446.642H400.259V448.994ZM405.23 450.06C404.895 450.06 404.597 450.001 404.338 449.883C404.079 449.763 403.875 449.599 403.726 449.391C403.578 449.182 403.503 448.942 403.5 448.67H404.651C404.655 448.821 404.713 448.941 404.825 449.031C404.939 449.12 405.074 449.165 405.23 449.165C405.351 449.165 405.458 449.139 405.55 449.088C405.642 449.036 405.715 448.962 405.767 448.866C405.82 448.771 405.845 448.661 405.844 448.534C405.845 448.406 405.82 448.295 405.767 448.202C405.715 448.107 405.642 448.033 405.55 447.982C405.458 447.93 405.351 447.903 405.23 447.903C405.105 447.903 404.99 447.934 404.883 447.995C404.778 448.055 404.7 448.138 404.651 448.244L403.611 448.04L403.781 445.636H406.713V446.582H404.753L404.668 447.545H404.693C404.762 447.413 404.879 447.304 405.047 447.217C405.215 447.129 405.409 447.085 405.631 447.085C405.891 447.085 406.122 447.146 406.325 447.266C406.53 447.387 406.691 447.554 406.809 447.767C406.928 447.979 406.987 448.223 406.986 448.5C406.987 448.804 406.915 449.074 406.769 449.31C406.624 449.544 406.42 449.728 406.157 449.862C405.894 449.994 405.585 450.06 405.23 450.06Z" fill="#FCFCFC"/>
<rect x="430" y="441" width="14" height="13" rx="2" fill="#404040"/>
<path d="M434.654 450H432.975V445.636H434.637C435.085 445.636 435.473 445.724 435.8 445.898C436.128 446.072 436.381 446.322 436.558 446.648C436.737 446.974 436.827 447.364 436.827 447.818C436.827 448.273 436.738 448.663 436.561 448.99C436.383 449.315 436.132 449.565 435.806 449.74C435.481 449.913 435.097 450 434.654 450ZM434.159 448.994H434.611C434.827 448.994 435.011 448.96 435.163 448.89C435.316 448.82 435.433 448.7 435.512 448.53C435.593 448.359 435.634 448.122 435.634 447.818C435.634 447.514 435.593 447.277 435.51 447.107C435.429 446.936 435.31 446.816 435.152 446.746C434.996 446.677 434.804 446.642 434.577 446.642H434.159V448.994ZM437.341 449.318V448.398L439.097 445.636H439.932V446.864H439.455L438.509 448.364V448.398H441.099V449.318H437.341ZM439.463 450V449.037L439.489 448.636V445.636H440.597V450H439.463Z" fill="#FCFCFC"/>
<rect x="464" y="441" width="14" height="13" rx="2" fill="#404040"/>
<path d="M467.279 450V445.636H469.163C469.487 445.636 469.77 445.695 470.013 445.813C470.256 445.931 470.445 446.101 470.58 446.322C470.715 446.544 470.782 446.81 470.782 447.119C470.782 447.432 470.713 447.695 470.573 447.91C470.436 448.124 470.242 448.286 469.992 448.396C469.743 448.505 469.453 448.56 469.12 448.56H467.995V447.639H468.882C469.021 447.639 469.139 447.622 469.237 447.588C469.337 447.553 469.413 447.496 469.465 447.42C469.519 447.343 469.546 447.243 469.546 447.119C469.546 446.994 469.519 446.893 469.465 446.815C469.413 446.735 469.337 446.677 469.237 446.64C469.139 446.602 469.021 446.582 468.882 446.582H468.464V450H467.279ZM469.836 447.997L470.927 450H469.64L468.575 447.997H469.836ZM473.639 447C473.628 446.858 473.575 446.747 473.48 446.668C473.386 446.588 473.243 446.548 473.051 446.548C472.929 446.548 472.829 446.563 472.751 446.593C472.674 446.621 472.617 446.661 472.58 446.71C472.544 446.76 472.524 446.817 472.523 446.881C472.52 446.933 472.529 446.981 472.551 447.023C472.573 447.065 472.609 447.102 472.657 447.136C472.705 447.169 472.767 447.199 472.843 447.226C472.918 447.253 473.007 447.277 473.111 447.298L473.469 447.375C473.71 447.426 473.917 447.494 474.089 447.577C474.261 447.661 474.401 447.76 474.511 447.874C474.62 447.986 474.7 448.112 474.752 448.253C474.804 448.393 474.831 448.547 474.833 448.713C474.831 449 474.759 449.243 474.617 449.442C474.475 449.641 474.272 449.792 474.008 449.896C473.745 449.999 473.429 450.051 473.06 450.051C472.681 450.051 472.35 449.995 472.067 449.883C471.786 449.771 471.567 449.598 471.411 449.365C471.256 449.131 471.178 448.831 471.176 448.466H472.301C472.308 448.599 472.342 448.712 472.401 448.803C472.461 448.893 472.545 448.962 472.653 449.009C472.762 449.056 472.892 449.08 473.043 449.08C473.169 449.08 473.275 449.064 473.36 449.033C473.445 449.001 473.51 448.958 473.554 448.903C473.598 448.847 473.621 448.784 473.622 448.713C473.621 448.646 473.599 448.588 473.556 448.538C473.515 448.487 473.447 448.442 473.352 448.402C473.257 448.361 473.128 448.322 472.966 448.287L472.531 448.193C472.145 448.109 471.84 447.969 471.617 447.773C471.396 447.576 471.286 447.307 471.287 446.966C471.286 446.689 471.36 446.447 471.509 446.239C471.659 446.031 471.867 445.868 472.133 445.751C472.4 445.635 472.706 445.577 473.051 445.577C473.404 445.577 473.708 445.636 473.965 445.754C474.222 445.871 474.421 446.038 474.56 446.252C474.7 446.465 474.771 446.714 474.773 447H473.639Z" fill="#FCFCFC"/>
<rect x="498" y="441" width="14" height="13" rx="2" fill="#404040"/>
<path d="M503.415 450V445.636H506.56V446.591H504.6V447.341H506.398V448.295H504.6V449.045H506.551V450H503.415Z" fill="#FCFCFC"/>
<path d="M336.59 492.773V491.545H343.907V492.773H340.957V501H339.535V492.773H336.59ZM345.524 501V491.545H351.452V492.773H346.951V495.654H351.142V496.877H346.951V499.772H351.507V501H345.524ZM353.357 491.545H355.088L358.098 498.895H358.209L361.219 491.545H362.95V501H361.593V494.158H361.505L358.717 500.986H357.59L354.802 494.154H354.714V501H353.357V491.545ZM365.024 501V491.545H368.394C369.13 491.545 369.739 491.679 370.222 491.947C370.705 492.215 371.067 492.581 371.307 493.046C371.547 493.507 371.667 494.028 371.667 494.606C371.667 495.188 371.546 495.711 371.302 496.176C371.062 496.637 370.699 497.004 370.213 497.275C369.73 497.542 369.122 497.676 368.389 497.676H366.072V496.467H368.26C368.725 496.467 369.102 496.387 369.391 496.227C369.681 496.063 369.893 495.842 370.028 495.562C370.164 495.282 370.231 494.963 370.231 494.606C370.231 494.249 370.164 493.932 370.028 493.655C369.893 493.378 369.679 493.161 369.387 493.004C369.097 492.847 368.716 492.769 368.242 492.769H366.451V501H365.024ZM374.138 499.827C373.886 499.827 373.669 499.738 373.487 499.56C373.306 499.378 373.215 499.16 373.215 498.904C373.215 498.652 373.306 498.436 373.487 498.258C373.669 498.076 373.886 497.985 374.138 497.985C374.391 497.985 374.607 498.076 374.789 498.258C374.971 498.436 375.061 498.652 375.061 498.904C375.061 499.073 375.018 499.229 374.932 499.37C374.849 499.509 374.738 499.62 374.6 499.703C374.461 499.786 374.307 499.827 374.138 499.827ZM374.138 495.091C373.886 495.091 373.669 495.002 373.487 494.823C373.306 494.642 373.215 494.423 373.215 494.168C373.215 493.915 373.306 493.7 373.487 493.521C373.669 493.34 373.886 493.249 374.138 493.249C374.391 493.249 374.607 493.34 374.789 493.521C374.971 493.7 375.061 493.915 375.061 494.168C375.061 494.337 375.018 494.492 374.932 494.634C374.849 494.772 374.738 494.883 374.6 494.966C374.461 495.049 374.307 495.091 374.138 495.091Z" fill="white"/>
<path d="M337.248 481V471.545H338.674V475.654H343.388V471.545H344.819V481H343.388V476.877H338.674V481H337.248ZM352.976 471.545H354.407V477.764C354.407 478.426 354.252 479.012 353.941 479.523C353.63 480.031 353.193 480.431 352.63 480.723C352.067 481.012 351.406 481.157 350.649 481.157C349.895 481.157 349.237 481.012 348.673 480.723C348.11 480.431 347.673 480.031 347.362 479.523C347.052 479.012 346.896 478.426 346.896 477.764V471.545H348.323V477.648C348.323 478.076 348.416 478.456 348.604 478.789C348.795 479.121 349.064 479.383 349.412 479.574C349.76 479.761 350.172 479.855 350.649 479.855C351.129 479.855 351.543 479.761 351.891 479.574C352.242 479.383 352.51 479.121 352.694 478.789C352.882 478.456 352.976 478.076 352.976 477.648V471.545ZM356.481 471.545H358.212L361.222 478.895H361.333L364.343 471.545H366.074V481H364.717V474.158H364.629L361.841 480.986H360.714L357.926 474.154H357.838V481H356.481V471.545ZM368.947 479.827C368.694 479.827 368.477 479.738 368.296 479.56C368.114 479.378 368.023 479.16 368.023 478.904C368.023 478.652 368.114 478.436 368.296 478.258C368.477 478.076 368.694 477.985 368.947 477.985C369.199 477.985 369.416 478.076 369.598 478.258C369.779 478.436 369.87 478.652 369.87 478.904C369.87 479.073 369.827 479.229 369.741 479.37C369.658 479.509 369.547 479.62 369.408 479.703C369.27 479.786 369.116 479.827 368.947 479.827ZM368.947 475.091C368.694 475.091 368.477 475.002 368.296 474.823C368.114 474.642 368.023 474.423 368.023 474.168C368.023 473.915 368.114 473.7 368.296 473.521C368.477 473.34 368.694 473.249 368.947 473.249C369.199 473.249 369.416 473.34 369.598 473.521C369.779 473.7 369.87 473.915 369.87 474.168C369.87 474.337 369.827 474.492 369.741 474.634C369.658 474.772 369.547 474.883 369.408 474.966C369.27 475.049 369.116 475.091 368.947 475.091Z" fill="white"/>
<path d="M387.522 481.129C386.888 481.129 386.322 481.02 385.823 480.801C385.327 480.583 384.935 480.28 384.646 479.892C384.36 479.501 384.206 479.049 384.184 478.535H385.634C385.652 478.815 385.746 479.058 385.915 479.264C386.088 479.467 386.312 479.624 386.589 479.735C386.866 479.846 387.174 479.901 387.513 479.901C387.885 479.901 388.214 479.837 388.5 479.707C388.79 479.578 389.016 479.398 389.179 479.167C389.342 478.933 389.424 478.664 389.424 478.359C389.424 478.042 389.342 477.764 389.179 477.524C389.019 477.281 388.784 477.09 388.473 476.951C388.165 476.813 387.793 476.744 387.356 476.744H386.557V475.58H387.356C387.706 475.58 388.014 475.517 388.279 475.391C388.547 475.265 388.756 475.089 388.907 474.865C389.058 474.637 389.133 474.371 389.133 474.066C389.133 473.774 389.067 473.52 388.934 473.304C388.805 473.086 388.621 472.915 388.38 472.792C388.143 472.669 387.863 472.607 387.54 472.607C387.232 472.607 386.945 472.664 386.677 472.778C386.412 472.889 386.197 473.049 386.031 473.258C385.864 473.464 385.775 473.712 385.763 474.001H384.383C384.398 473.491 384.549 473.041 384.835 472.653C385.124 472.266 385.506 471.962 385.98 471.744C386.454 471.525 386.98 471.416 387.559 471.416C388.165 471.416 388.688 471.535 389.128 471.772C389.572 472.006 389.913 472.318 390.153 472.709C390.396 473.1 390.516 473.527 390.513 473.992C390.516 474.522 390.369 474.971 390.07 475.34C389.775 475.71 389.381 475.957 388.888 476.083V476.157C389.516 476.253 390.002 476.502 390.347 476.905C390.695 477.308 390.867 477.808 390.864 478.406C390.867 478.926 390.723 479.392 390.43 479.804C390.141 480.217 389.745 480.541 389.244 480.778C388.742 481.012 388.168 481.129 387.522 481.129ZM395.804 481.129C395.142 481.129 394.557 481.015 394.049 480.788C393.545 480.56 393.149 480.246 392.863 479.846C392.577 479.446 392.435 478.99 392.438 478.479C392.435 478.079 392.517 477.712 392.683 477.376C392.852 477.038 393.082 476.756 393.371 476.531C393.66 476.304 393.983 476.159 394.34 476.097V476.042C393.869 475.928 393.492 475.676 393.209 475.285C392.926 474.894 392.786 474.445 392.789 473.937C392.786 473.454 392.914 473.023 393.172 472.644C393.434 472.263 393.793 471.962 394.248 471.744C394.703 471.525 395.222 471.416 395.804 471.416C396.379 471.416 396.893 471.527 397.346 471.749C397.801 471.967 398.16 472.267 398.421 472.649C398.683 473.027 398.815 473.457 398.818 473.937C398.815 474.445 398.671 474.894 398.384 475.285C398.098 475.676 397.726 475.928 397.267 476.042V476.097C397.621 476.159 397.94 476.304 398.223 476.531C398.509 476.756 398.737 477.038 398.906 477.376C399.078 477.712 399.166 478.079 399.169 478.479C399.166 478.99 399.021 479.446 398.735 479.846C398.449 480.246 398.052 480.56 397.544 480.788C397.039 481.015 396.459 481.129 395.804 481.129ZM395.804 479.961C396.195 479.961 396.533 479.897 396.819 479.767C397.106 479.635 397.327 479.452 397.484 479.218C397.641 478.981 397.721 478.704 397.724 478.387C397.721 478.058 397.635 477.767 397.466 477.515C397.299 477.262 397.073 477.064 396.787 476.919C396.501 476.774 396.173 476.702 395.804 476.702C395.431 476.702 395.101 476.774 394.811 476.919C394.522 477.064 394.294 477.262 394.128 477.515C393.962 477.767 393.88 478.058 393.883 478.387C393.88 478.704 393.956 478.981 394.11 479.218C394.266 479.452 394.49 479.635 394.779 479.767C395.068 479.897 395.41 479.961 395.804 479.961ZM395.804 475.562C396.118 475.562 396.396 475.499 396.639 475.373C396.882 475.246 397.073 475.071 397.212 474.846C397.353 474.622 397.426 474.358 397.429 474.057C397.426 473.761 397.355 473.503 397.216 473.281C397.081 473.06 396.892 472.889 396.649 472.769C396.405 472.646 396.124 472.584 395.804 472.584C395.478 472.584 395.191 472.646 394.945 472.769C394.702 472.889 394.513 473.06 394.377 473.281C394.242 473.503 394.176 473.761 394.179 474.057C394.176 474.358 394.243 474.622 394.382 474.846C394.52 475.071 394.711 475.246 394.954 475.373C395.201 475.499 395.484 475.562 395.804 475.562ZM405.758 479.227V478.729C405.758 478.372 405.832 478.045 405.98 477.75C406.13 477.451 406.349 477.213 406.635 477.034C406.924 476.853 407.274 476.762 407.683 476.762C408.102 476.762 408.453 476.851 408.736 477.03C409.019 477.208 409.233 477.447 409.377 477.745C409.525 478.044 409.599 478.372 409.599 478.729V479.227C409.599 479.584 409.525 479.912 409.377 480.211C409.23 480.506 409.013 480.745 408.726 480.926C408.443 481.105 408.096 481.194 407.683 481.194C407.268 481.194 406.917 481.105 406.631 480.926C406.344 480.745 406.127 480.506 405.98 480.211C405.832 479.912 405.758 479.584 405.758 479.227ZM406.834 478.729V479.227C406.834 479.492 406.897 479.732 407.023 479.947C407.149 480.163 407.369 480.271 407.683 480.271C407.994 480.271 408.211 480.163 408.334 479.947C408.457 479.732 408.519 479.492 408.519 479.227V478.729C408.519 478.464 408.459 478.224 408.339 478.009C408.222 477.793 408.003 477.685 407.683 477.685C407.375 477.685 407.157 477.793 407.028 478.009C406.898 478.224 406.834 478.464 406.834 478.729ZM401.003 473.817V473.318C401.003 472.961 401.077 472.633 401.225 472.335C401.375 472.036 401.594 471.798 401.88 471.619C402.169 471.441 402.519 471.352 402.928 471.352C403.347 471.352 403.698 471.441 403.981 471.619C404.264 471.798 404.478 472.036 404.622 472.335C404.767 472.633 404.839 472.961 404.839 473.318V473.817C404.839 474.174 404.765 474.502 404.618 474.8C404.473 475.096 404.258 475.334 403.971 475.516C403.688 475.694 403.341 475.783 402.928 475.783C402.51 475.783 402.157 475.694 401.871 475.516C401.588 475.334 401.372 475.096 401.225 474.8C401.077 474.502 401.003 474.174 401.003 473.817ZM402.083 473.318V473.817C402.083 474.081 402.145 474.321 402.268 474.537C402.394 474.752 402.614 474.86 402.928 474.86C403.236 474.86 403.451 474.752 403.574 474.537C403.701 474.321 403.764 474.081 403.764 473.817V473.318C403.764 473.054 403.704 472.813 403.584 472.598C403.464 472.383 403.245 472.275 402.928 472.275C402.62 472.275 402.402 472.383 402.273 472.598C402.146 472.813 402.083 473.054 402.083 473.318ZM401.442 481L407.942 471.545H409.045L402.545 481H401.442Z" fill="white"/>
<path d="M383.909 501V499.966L387.109 496.651C387.45 496.291 387.732 495.976 387.953 495.705C388.178 495.431 388.346 495.171 388.457 494.925C388.567 494.679 388.623 494.417 388.623 494.14C388.623 493.826 388.549 493.555 388.401 493.327C388.254 493.097 388.052 492.92 387.797 492.797C387.541 492.67 387.253 492.607 386.933 492.607C386.595 492.607 386.299 492.676 386.047 492.815C385.795 492.953 385.601 493.149 385.465 493.401C385.33 493.654 385.262 493.949 385.262 494.288H383.9C383.9 493.712 384.033 493.209 384.297 492.778C384.562 492.347 384.925 492.013 385.387 491.776C385.848 491.536 386.373 491.416 386.961 491.416C387.555 491.416 388.078 491.535 388.531 491.772C388.986 492.006 389.342 492.326 389.597 492.732C389.852 493.135 389.98 493.591 389.98 494.098C389.98 494.449 389.914 494.792 389.782 495.128C389.652 495.463 389.426 495.837 389.103 496.25C388.78 496.659 388.33 497.156 387.755 497.741L385.876 499.707V499.777H390.132V501H383.909ZM392.201 501L396.328 492.838V492.769H391.554V491.545H397.805V492.81L393.692 501H392.201ZM407.392 494.62H405.952C405.897 494.312 405.793 494.041 405.643 493.808C405.492 493.574 405.307 493.375 405.089 493.212C404.87 493.049 404.626 492.926 404.355 492.843C404.087 492.76 403.802 492.718 403.501 492.718C402.956 492.718 402.468 492.855 402.037 493.129C401.609 493.403 401.271 493.804 401.022 494.334C400.775 494.863 400.652 495.509 400.652 496.273C400.652 497.042 400.775 497.692 401.022 498.221C401.271 498.75 401.611 499.15 402.042 499.421C402.473 499.692 402.957 499.827 403.496 499.827C403.795 499.827 404.078 499.787 404.345 499.707C404.616 499.624 404.861 499.503 405.079 499.343C405.298 499.183 405.483 498.987 405.633 498.756C405.787 498.522 405.893 498.255 405.952 497.953L407.392 497.958C407.315 498.422 407.166 498.85 406.945 499.241C406.726 499.629 406.444 499.964 406.1 500.248C405.758 500.528 405.367 500.745 404.927 500.898C404.487 501.052 404.007 501.129 403.487 501.129C402.668 501.129 401.939 500.935 401.299 500.548C400.658 500.157 400.154 499.598 399.784 498.872C399.418 498.145 399.235 497.279 399.235 496.273C399.235 495.263 399.42 494.397 399.789 493.674C400.158 492.947 400.663 492.39 401.303 492.002C401.943 491.612 402.671 491.416 403.487 491.416C403.988 491.416 404.456 491.489 404.89 491.633C405.327 491.775 405.72 491.984 406.067 492.261C406.415 492.535 406.703 492.87 406.931 493.267C407.158 493.661 407.312 494.112 407.392 494.62Z" fill="white"/>
<rect x="329" y="305" width="14" height="14" fill="#FF9533"/>
<rect x="362" y="305" width="14" height="14" fill="#FF9533"/>
<rect x="396" y="305" width="14" height="14" fill="#FF9533"/>
<rect x="430" y="305" width="14" height="14" fill="#FF9533"/>
<rect x="464" y="305" width="14" height="14" fill="#6C57EB"/>
<rect x="468" y="316" width="6" height="128" rx="3" fill="#6C57EB"/>
<rect x="205" y="305" width="14" height="14" fill="#2F80ED"/>
<rect x="209" y="313" width="6" height="92" fill="#2F80ED"/>
<rect x="209" y="399" width="41" height="6" rx="3" fill="#2F80ED"/>
<rect x="148" y="410" width="110" height="6" rx="3" fill="#404040"/>
<rect x="253" y="402" width="5" height="14" rx="2.5" fill="#404040"/>
<rect x="434" y="316" width="6" height="128" rx="3" fill="#FF9533"/>
<rect x="400" y="316" width="6" height="128" rx="3" fill="#FF9533"/>
<rect x="366" y="317" width="6" height="128" rx="3" fill="#FF9533"/>
<rect x="333" y="316" width="6" height="128" rx="3" fill="#FF9533"/>
<rect x="502" y="316" width="6" height="128" rx="3" fill="#6C57EB"/>
<rect x="498" y="305" width="14" height="14" fill="#6C57EB"/>
<rect x="261" y="392" width="5" height="13" rx="2.5" fill="#D9D9D9"/>
<rect x="253" y="392" width="5" height="13" rx="2.5" fill="#D9D9D9"/>
<rect x="245" y="392" width="5" height="13" rx="2.5" fill="#D9D9D9"/>
<rect x="233" y="348" width="43" height="46" rx="3" fill="#00C2FF"/>
<rect x="244" y="355" width="6" height="6" rx="1" fill="#1091B9"/>
<rect x="252" y="355" width="6" height="6" rx="1" fill="#1091B9"/>
<rect x="260" y="355" width="6" height="6" rx="1" fill="#1091B9"/>
<rect x="244" y="376" width="6" height="6" rx="1" fill="#1091B9"/>
<rect x="252" y="376" width="6" height="6" rx="1" fill="#1091B9"/>
<rect x="260" y="376" width="6" height="6" rx="1" fill="#1091B9"/>
<rect x="236" y="362" width="6" height="6" rx="1" fill="#1091B9"/>
<rect x="244" y="362" width="6" height="6" rx="1" fill="#1091B9"/>
<rect x="252" y="362" width="6" height="6" rx="1" fill="#1091B9"/>
<rect x="260" y="362" width="6" height="6" rx="1" fill="#1091B9"/>
<rect x="268" y="362" width="6" height="6" rx="1" fill="#1091B9"/>
<rect x="236" y="369" width="6" height="6" rx="1" fill="#1091B9"/>
<rect x="244" y="369" width="6" height="6" rx="1" fill="#1091B9"/>
<rect x="252" y="369" width="6" height="6" rx="1" fill="#1091B9"/>
<rect x="260" y="369" width="6" height="6" rx="1" fill="#1091B9"/>
<rect x="268" y="369" width="6" height="6" rx="1" fill="#1091B9"/>
<rect x="236" y="383" width="6" height="6" rx="1" fill="#1091B9"/>
<rect x="244" y="383" width="6" height="6" rx="1" fill="#1091B9"/>
<rect x="252" y="383" width="6" height="6" rx="1" fill="#1091B9"/>
<rect x="260" y="383" width="6" height="6" rx="1" fill="#1091B9"/>
<rect x="268" y="383" width="6" height="6" rx="1" fill="#1091B9"/>
</svg>
