<svg width="1150" height="616" viewBox="0 0 1150 616" fill="none" xmlns="http://www.w3.org/2000/svg">
<rect width="1150" height="616" fill="#FCFCFC"/>
<rect x="104" y="63" width="451" height="271" stroke="#404040" stroke-width="6"/>
<path d="M166.489 158H158.818L167.46 131.818H177.176L185.818 158H178.148L172.42 139.028H172.216L166.489 158ZM165.057 147.67H179.477V152.989H165.057V147.67ZM188.34 158V131.818H199.641C201.584 131.818 203.284 132.172 204.742 132.879C206.199 133.587 207.333 134.605 208.142 135.935C208.952 137.264 209.357 138.858 209.357 140.716C209.357 142.591 208.939 144.172 208.104 145.459C207.277 146.746 206.114 147.717 204.614 148.374C203.123 149.03 201.38 149.358 199.385 149.358H192.635V143.835H197.953C198.789 143.835 199.5 143.733 200.088 143.528C200.685 143.315 201.141 142.979 201.456 142.518C201.78 142.058 201.942 141.457 201.942 140.716C201.942 139.966 201.78 139.357 201.456 138.888C201.141 138.411 200.685 138.061 200.088 137.839C199.5 137.609 198.789 137.494 197.953 137.494H195.448V158H188.34ZM203.681 145.983L210.226 158H202.505L196.113 145.983H203.681ZM222.461 158H212.387V131.818H222.358C225.051 131.818 227.378 132.342 229.338 133.391C231.307 134.43 232.824 135.93 233.89 137.891C234.963 139.842 235.5 142.182 235.5 144.909C235.5 147.636 234.968 149.98 233.902 151.94C232.837 153.892 231.328 155.392 229.377 156.44C227.425 157.48 225.12 158 222.461 158ZM219.495 151.966H222.205C223.5 151.966 224.604 151.757 225.516 151.339C226.436 150.922 227.135 150.202 227.613 149.179C228.098 148.156 228.341 146.733 228.341 144.909C228.341 143.085 228.094 141.662 227.6 140.639C227.114 139.616 226.398 138.896 225.452 138.479C224.515 138.061 223.364 137.852 222 137.852H219.495V151.966ZM254.283 131.818H261.391V148.591C261.391 150.585 260.914 152.311 259.96 153.768C259.013 155.217 257.692 156.338 255.996 157.131C254.3 157.915 252.332 158.307 250.09 158.307C247.832 158.307 245.854 157.915 244.158 157.131C242.462 156.338 241.141 155.217 240.195 153.768C239.258 152.311 238.789 150.585 238.789 148.591V131.818H245.897V147.977C245.897 148.787 246.076 149.511 246.434 150.151C246.792 150.781 247.286 151.276 247.917 151.634C248.556 151.991 249.281 152.17 250.09 152.17C250.908 152.17 251.633 151.991 252.263 151.634C252.894 151.276 253.388 150.781 253.746 150.151C254.104 149.511 254.283 148.787 254.283 147.977V131.818ZM271.877 131.818V158H264.77V131.818H271.877ZM297.9 131.818V158H291.968L282.507 144.244H282.354V158H275.246V131.818H281.28L290.587 145.523H290.792V131.818H297.9ZM326.625 144.909C326.625 147.824 326.059 150.283 324.925 152.286C323.792 154.28 322.262 155.793 320.336 156.824C318.409 157.847 316.262 158.358 313.892 158.358C311.506 158.358 309.35 157.842 307.424 156.811C305.506 155.771 303.98 154.254 302.847 152.26C301.722 150.257 301.159 147.807 301.159 144.909C301.159 141.994 301.722 139.54 302.847 137.545C303.98 135.543 305.506 134.03 307.424 133.007C309.35 131.976 311.506 131.46 313.892 131.46C316.262 131.46 318.409 131.976 320.336 133.007C322.262 134.03 323.792 135.543 324.925 137.545C326.059 139.54 326.625 141.994 326.625 144.909ZM319.313 144.909C319.313 143.341 319.104 142.02 318.686 140.946C318.277 139.864 317.668 139.045 316.858 138.491C316.057 137.929 315.069 137.648 313.892 137.648C312.716 137.648 311.723 137.929 310.914 138.491C310.113 139.045 309.503 139.864 309.086 140.946C308.676 142.02 308.472 143.341 308.472 144.909C308.472 146.477 308.676 147.803 309.086 148.885C309.503 149.959 310.113 150.777 310.914 151.339C311.723 151.893 312.716 152.17 313.892 152.17C315.069 152.17 316.057 151.893 316.858 151.339C317.668 150.777 318.277 149.959 318.686 148.885C319.104 147.803 319.313 146.477 319.313 144.909ZM352.58 131.818H359.688V148.591C359.688 150.585 359.211 152.311 358.256 153.768C357.31 155.217 355.989 156.338 354.293 157.131C352.597 157.915 350.629 158.307 348.387 158.307C346.129 158.307 344.151 157.915 342.455 157.131C340.759 156.338 339.438 155.217 338.492 153.768C337.555 152.311 337.086 150.585 337.086 148.591V131.818H344.194V147.977C344.194 148.787 344.373 149.511 344.731 150.151C345.089 150.781 345.583 151.276 346.214 151.634C346.853 151.991 347.577 152.17 348.387 152.17C349.205 152.17 349.93 151.991 350.56 151.634C351.191 151.276 351.685 150.781 352.043 150.151C352.401 149.511 352.58 148.787 352.58 147.977V131.818ZM385.72 131.818V158H379.788L370.328 144.244H370.174V158H363.066V131.818H369.1L378.407 145.523H378.612V131.818H385.72ZM414.446 144.909C414.446 147.824 413.879 150.283 412.745 152.286C411.612 154.28 410.082 155.793 408.156 156.824C406.23 157.847 404.082 158.358 401.713 158.358C399.326 158.358 397.17 157.842 395.244 156.811C393.326 155.771 391.801 154.254 390.667 152.26C389.542 150.257 388.98 147.807 388.98 144.909C388.98 141.994 389.542 139.54 390.667 137.545C391.801 135.543 393.326 134.03 395.244 133.007C397.17 131.976 399.326 131.46 401.713 131.46C404.082 131.46 406.23 131.976 408.156 133.007C410.082 134.03 411.612 135.543 412.745 137.545C413.879 139.54 414.446 141.994 414.446 144.909ZM407.133 144.909C407.133 143.341 406.924 142.02 406.507 140.946C406.098 139.864 405.488 139.045 404.679 138.491C403.877 137.929 402.889 137.648 401.713 137.648C400.537 137.648 399.544 137.929 398.734 138.491C397.933 139.045 397.324 139.864 396.906 140.946C396.497 142.02 396.292 143.341 396.292 144.909C396.292 146.477 396.497 147.803 396.906 148.885C397.324 149.959 397.933 150.777 398.734 151.339C399.544 151.893 400.537 152.17 401.713 152.17C402.889 152.17 403.877 151.893 404.679 151.339C405.488 150.777 406.098 149.959 406.507 148.885C406.924 147.803 407.133 146.477 407.133 144.909ZM424.906 158V131.818H436.207C438.151 131.818 439.851 132.172 441.308 132.879C442.766 133.587 443.899 134.605 444.709 135.935C445.518 137.264 445.923 138.858 445.923 140.716C445.923 142.591 445.506 144.172 444.67 145.459C443.844 146.746 442.68 147.717 441.18 148.374C439.689 149.03 437.946 149.358 435.952 149.358H429.202V143.835H434.52C435.355 143.835 436.067 143.733 436.655 143.528C437.251 143.315 437.707 142.979 438.023 142.518C438.347 142.058 438.509 141.457 438.509 140.716C438.509 139.966 438.347 139.357 438.023 138.888C437.707 138.411 437.251 138.061 436.655 137.839C436.067 137.609 435.355 137.494 434.52 137.494H432.014V158H424.906ZM440.247 145.983L446.793 158H439.071L432.679 145.983H440.247ZM459.232 158.358C457.169 158.358 455.337 158.004 453.734 157.297C452.141 156.581 450.888 155.597 449.976 154.344C449.064 153.091 448.604 151.651 448.595 150.023H455.754C455.763 150.526 455.916 150.977 456.214 151.378C456.521 151.77 456.939 152.077 457.467 152.298C457.996 152.52 458.601 152.631 459.283 152.631C459.939 152.631 460.518 152.516 461.021 152.286C461.524 152.047 461.916 151.719 462.197 151.301C462.479 150.884 462.615 150.406 462.607 149.869C462.615 149.341 462.453 148.872 462.121 148.463C461.797 148.054 461.341 147.734 460.753 147.504C460.165 147.274 459.487 147.159 458.72 147.159H456.061V142.25H458.72C459.428 142.25 460.05 142.135 460.587 141.905C461.132 141.675 461.554 141.355 461.852 140.946C462.159 140.537 462.308 140.068 462.3 139.54C462.308 139.028 462.185 138.577 461.929 138.185C461.673 137.793 461.315 137.486 460.855 137.264C460.403 137.043 459.879 136.932 459.283 136.932C458.635 136.932 458.055 137.047 457.544 137.277C457.041 137.507 456.645 137.827 456.355 138.236C456.065 138.645 455.916 139.114 455.908 139.642H449.107C449.115 138.04 449.554 136.625 450.423 135.398C451.301 134.17 452.503 133.207 454.028 132.509C455.554 131.81 457.305 131.46 459.283 131.46C461.217 131.46 462.926 131.788 464.409 132.445C465.901 133.101 467.064 134.004 467.899 135.155C468.743 136.297 469.161 137.605 469.152 139.08C469.169 140.545 468.666 141.747 467.643 142.685C466.629 143.622 465.342 144.176 463.783 144.347V144.551C465.896 144.781 467.486 145.429 468.551 146.494C469.616 147.551 470.141 148.881 470.124 150.483C470.132 152.017 469.672 153.376 468.743 154.561C467.822 155.746 466.54 156.675 464.895 157.348C463.259 158.021 461.371 158.358 459.232 158.358Z" fill="#404040"/>
<path d="M141.711 280.641C141.677 280.503 141.624 280.382 141.551 280.277C141.478 280.171 141.387 280.081 141.277 280.008C141.171 279.932 141.046 279.876 140.902 279.84C140.762 279.801 140.607 279.781 140.438 279.781C140.073 279.781 139.762 279.868 139.504 280.043C139.249 280.217 139.053 280.469 138.918 280.797C138.785 281.125 138.719 281.521 138.719 281.984C138.719 282.453 138.783 282.854 138.91 283.188C139.038 283.521 139.228 283.776 139.48 283.953C139.733 284.13 140.047 284.219 140.422 284.219C140.753 284.219 141.027 284.171 141.246 284.074C141.467 283.978 141.633 283.841 141.742 283.664C141.852 283.487 141.906 283.279 141.906 283.039L142.281 283.078H140.453V281.531H144V282.641C144 283.37 143.845 283.993 143.535 284.512C143.228 285.027 142.803 285.423 142.262 285.699C141.723 285.973 141.104 286.109 140.406 286.109C139.628 286.109 138.944 285.944 138.355 285.613C137.767 285.283 137.307 284.811 136.977 284.199C136.648 283.587 136.484 282.859 136.484 282.016C136.484 281.354 136.585 280.768 136.785 280.258C136.988 279.747 137.27 279.316 137.629 278.965C137.988 278.611 138.404 278.344 138.875 278.164C139.346 277.982 139.852 277.891 140.391 277.891C140.865 277.891 141.305 277.958 141.711 278.094C142.12 278.227 142.48 278.417 142.793 278.664C143.108 278.909 143.362 279.199 143.555 279.535C143.747 279.871 143.865 280.24 143.906 280.641H141.711ZM151.935 278V286H150.122L147.231 281.797H147.185V286H145.013V278H146.856L149.7 282.188H149.763V278H151.935ZM156.04 286H152.962V278H156.009C156.832 278 157.543 278.16 158.142 278.48C158.743 278.798 159.207 279.257 159.532 279.855C159.86 280.452 160.024 281.167 160.024 282C160.024 282.833 159.862 283.549 159.536 284.148C159.211 284.745 158.75 285.203 158.153 285.523C157.557 285.841 156.853 286 156.04 286ZM155.134 284.156H155.962C156.358 284.156 156.695 284.092 156.974 283.965C157.255 283.837 157.468 283.617 157.614 283.305C157.763 282.992 157.837 282.557 157.837 282C157.837 281.443 157.761 281.008 157.61 280.695C157.462 280.383 157.243 280.163 156.954 280.035C156.668 279.908 156.316 279.844 155.899 279.844H155.134V284.156Z" fill="#404040"/>
<path d="M433.484 285.188V286.812H429.734V285.188H433.484ZM437.877 290.109C437.247 290.109 436.687 290.001 436.197 289.785C435.71 289.566 435.327 289.266 435.049 288.883C434.77 288.5 434.63 288.06 434.627 287.562H436.814C436.817 287.716 436.864 287.854 436.955 287.977C437.049 288.096 437.176 288.19 437.338 288.258C437.499 288.326 437.684 288.359 437.893 288.359C438.093 288.359 438.27 288.324 438.424 288.254C438.577 288.181 438.697 288.081 438.783 287.953C438.869 287.826 438.911 287.68 438.908 287.516C438.911 287.354 438.861 287.211 438.76 287.086C438.661 286.961 438.521 286.863 438.342 286.793C438.162 286.723 437.955 286.687 437.721 286.687H436.908V285.188H437.721C437.937 285.188 438.127 285.152 438.291 285.082C438.458 285.012 438.587 284.914 438.678 284.789C438.771 284.664 438.817 284.521 438.814 284.359C438.817 284.203 438.779 284.065 438.701 283.945C438.623 283.826 438.514 283.732 438.373 283.664C438.235 283.596 438.075 283.562 437.893 283.562C437.695 283.562 437.518 283.598 437.361 283.668C437.208 283.738 437.087 283.836 436.998 283.961C436.91 284.086 436.864 284.229 436.861 284.391H434.783C434.786 283.901 434.92 283.469 435.186 283.094C435.454 282.719 435.821 282.424 436.287 282.211C436.753 281.997 437.288 281.891 437.893 281.891C438.484 281.891 439.006 281.991 439.459 282.191C439.915 282.392 440.27 282.668 440.525 283.02C440.783 283.368 440.911 283.768 440.908 284.219C440.913 284.667 440.76 285.034 440.447 285.32C440.137 285.607 439.744 285.776 439.268 285.828V285.891C439.913 285.961 440.399 286.159 440.725 286.484C441.05 286.807 441.21 287.214 441.205 287.703C441.208 288.172 441.067 288.587 440.783 288.949C440.502 289.311 440.11 289.595 439.607 289.801C439.107 290.007 438.531 290.109 437.877 290.109Z" fill="#404040"/>
<rect x="137" y="298" width="22" height="22" stroke="#404040" stroke-width="4"/>
<rect x="425" y="298" width="22" height="22" stroke="#404040" stroke-width="4"/>
<rect x="137" y="298" width="22" height="22" stroke="#404040" stroke-width="4"/>
<rect x="429" y="302" width="14" height="14" fill="#EB5757"/>
<rect x="141" y="302" width="14" height="14" fill="#404040"/>
<rect x="433" y="309" width="6" height="115" fill="#EB5757"/>
<rect x="149" y="424" width="6" height="131" transform="rotate(-90 149 424)" fill="#404040"/>
<rect x="294" y="424" width="6" height="142" transform="rotate(-90 294 424)" fill="#EB5757"/>
<rect x="145" y="309" width="6" height="115" fill="#404040"/>
<path d="M743.5 154V130.727H753.545C755.273 130.727 756.784 131.068 758.08 131.75C759.375 132.432 760.383 133.39 761.102 134.625C761.822 135.86 762.182 137.303 762.182 138.955C762.182 140.621 761.811 142.064 761.068 143.284C760.333 144.504 759.299 145.443 757.966 146.102C756.64 146.761 755.091 147.091 753.318 147.091H747.318V142.182H752.045C752.788 142.182 753.42 142.053 753.943 141.795C754.473 141.53 754.879 141.155 755.159 140.67C755.447 140.186 755.591 139.614 755.591 138.955C755.591 138.288 755.447 137.72 755.159 137.25C754.879 136.773 754.473 136.409 753.943 136.159C753.42 135.902 752.788 135.773 752.045 135.773H749.818V154H743.5ZM767.639 154H760.821L768.503 130.727H777.139L784.821 154H778.003L772.912 137.136H772.73L767.639 154ZM766.366 144.818H779.185V149.545H766.366V144.818ZM798.702 138C798.641 137.242 798.357 136.652 797.849 136.227C797.349 135.803 796.588 135.591 795.565 135.591C794.914 135.591 794.38 135.67 793.963 135.83C793.554 135.981 793.251 136.189 793.054 136.455C792.857 136.72 792.755 137.023 792.747 137.364C792.732 137.644 792.781 137.898 792.895 138.125C793.016 138.345 793.205 138.545 793.463 138.727C793.721 138.902 794.05 139.061 794.452 139.205C794.853 139.348 795.33 139.477 795.884 139.591L797.793 140C799.08 140.273 800.183 140.633 801.099 141.08C802.016 141.527 802.766 142.053 803.349 142.659C803.933 143.258 804.361 143.932 804.634 144.682C804.914 145.432 805.058 146.25 805.065 147.136C805.058 148.667 804.675 149.962 803.918 151.023C803.16 152.083 802.077 152.89 800.668 153.443C799.266 153.996 797.58 154.273 795.611 154.273C793.588 154.273 791.823 153.973 790.315 153.375C788.815 152.777 787.649 151.856 786.815 150.614C785.99 149.364 785.573 147.765 785.565 145.818H791.565C791.603 146.53 791.781 147.129 792.099 147.614C792.418 148.098 792.865 148.466 793.44 148.716C794.024 148.966 794.717 149.091 795.52 149.091C796.194 149.091 796.759 149.008 797.213 148.841C797.668 148.674 798.012 148.443 798.247 148.148C798.482 147.852 798.603 147.515 798.611 147.136C798.603 146.78 798.486 146.47 798.259 146.205C798.039 145.932 797.675 145.689 797.168 145.477C796.66 145.258 795.974 145.053 795.111 144.864L792.793 144.364C790.732 143.917 789.107 143.17 787.918 142.125C786.736 141.072 786.149 139.636 786.156 137.818C786.149 136.341 786.543 135.049 787.338 133.943C788.141 132.83 789.251 131.962 790.668 131.341C792.092 130.72 793.724 130.409 795.565 130.409C797.444 130.409 799.069 130.723 800.44 131.352C801.812 131.981 802.868 132.867 803.611 134.011C804.361 135.148 804.74 136.477 804.747 138H798.702ZM820.014 138C819.954 137.242 819.67 136.652 819.162 136.227C818.662 135.803 817.901 135.591 816.878 135.591C816.226 135.591 815.692 135.67 815.276 135.83C814.866 135.981 814.563 136.189 814.366 136.455C814.17 136.72 814.067 137.023 814.06 137.364C814.045 137.644 814.094 137.898 814.207 138.125C814.329 138.345 814.518 138.545 814.776 138.727C815.033 138.902 815.363 139.061 815.764 139.205C816.166 139.348 816.643 139.477 817.196 139.591L819.105 140C820.393 140.273 821.495 140.633 822.412 141.08C823.329 141.527 824.079 142.053 824.662 142.659C825.245 143.258 825.673 143.932 825.946 144.682C826.226 145.432 826.37 146.25 826.378 147.136C826.37 148.667 825.988 149.962 825.23 151.023C824.473 152.083 823.389 152.89 821.98 153.443C820.579 153.996 818.893 154.273 816.923 154.273C814.901 154.273 813.135 153.973 811.628 153.375C810.128 152.777 808.961 151.856 808.128 150.614C807.302 149.364 806.885 147.765 806.878 145.818H812.878C812.916 146.53 813.094 147.129 813.412 147.614C813.73 148.098 814.177 148.466 814.753 148.716C815.336 148.966 816.029 149.091 816.832 149.091C817.507 149.091 818.071 149.008 818.526 148.841C818.98 148.674 819.325 148.443 819.56 148.148C819.795 147.852 819.916 147.515 819.923 147.136C819.916 146.78 819.798 146.47 819.571 146.205C819.351 145.932 818.988 145.689 818.48 145.477C817.973 145.258 817.287 145.053 816.423 144.864L814.105 144.364C812.045 143.917 810.42 143.17 809.23 142.125C808.048 141.072 807.461 139.636 807.469 137.818C807.461 136.341 807.855 135.049 808.651 133.943C809.454 132.83 810.563 131.962 811.98 131.341C813.404 130.72 815.037 130.409 816.878 130.409C818.757 130.409 820.382 130.723 821.753 131.352C823.124 131.981 824.181 132.867 824.923 134.011C825.673 135.148 826.052 136.477 826.06 138H820.014ZM835.099 130.727V154H828.781V130.727H835.099ZM844.457 130.727L849.23 147.136H849.412L854.185 130.727H861.321L853.639 154H845.003L837.321 130.727H844.457ZM863.562 154V130.727H880.335V135.818H869.881V139.818H879.472V144.909H869.881V148.909H880.29V154H863.562ZM889.844 154V130.727H899.935C901.707 130.727 903.196 130.966 904.401 131.443C905.613 131.92 906.526 132.595 907.139 133.466C907.76 134.337 908.071 135.364 908.071 136.545C908.071 137.402 907.882 138.182 907.503 138.886C907.132 139.591 906.609 140.182 905.935 140.659C905.26 141.129 904.473 141.455 903.571 141.636V141.864C904.571 141.902 905.48 142.155 906.298 142.625C907.116 143.087 907.768 143.727 908.253 144.545C908.738 145.356 908.98 146.311 908.98 147.409C908.98 148.682 908.647 149.814 907.98 150.807C907.321 151.799 906.382 152.58 905.162 153.148C903.942 153.716 902.488 154 900.798 154H889.844ZM896.162 148.955H899.116C900.177 148.955 900.973 148.758 901.503 148.364C902.033 147.962 902.298 147.371 902.298 146.591C902.298 146.045 902.173 145.583 901.923 145.205C901.673 144.826 901.317 144.538 900.855 144.341C900.401 144.144 899.851 144.045 899.207 144.045H896.162V148.955ZM896.162 140.136H898.753C899.306 140.136 899.795 140.049 900.219 139.875C900.643 139.701 900.973 139.451 901.207 139.125C901.45 138.792 901.571 138.386 901.571 137.909C901.571 137.189 901.313 136.64 900.798 136.261C900.283 135.875 899.632 135.682 898.844 135.682H896.162V140.136ZM924.991 130.727H931.31V145.636C931.31 147.409 930.885 148.943 930.037 150.239C929.196 151.527 928.022 152.523 926.514 153.227C925.007 153.924 923.257 154.273 921.264 154.273C919.257 154.273 917.499 153.924 915.991 153.227C914.484 152.523 913.31 151.527 912.469 150.239C911.635 148.943 911.219 147.409 911.219 145.636V130.727H917.537V145.091C917.537 145.811 917.696 146.455 918.014 147.023C918.332 147.583 918.772 148.023 919.332 148.341C919.901 148.659 920.545 148.818 921.264 148.818C921.991 148.818 922.635 148.659 923.196 148.341C923.757 148.023 924.196 147.583 924.514 147.023C924.832 146.455 924.991 145.811 924.991 145.091V130.727ZM934.403 154V150.5L945.403 135.818H934.449V130.727H953.449V134.227L942.449 148.909H953.403V154H934.403ZM956.622 154V150.5L967.622 135.818H956.668V130.727H975.668V134.227L964.668 148.909H975.622V154H956.622ZM978.75 154V130.727H995.523V135.818H985.068V139.818H994.659V144.909H985.068V148.909H995.477V154H978.75ZM998.656 154V130.727H1008.7C1010.43 130.727 1011.94 131.042 1013.24 131.67C1014.53 132.299 1015.54 133.205 1016.26 134.386C1016.98 135.568 1017.34 136.985 1017.34 138.636C1017.34 140.303 1016.97 141.708 1016.22 142.852C1015.49 143.996 1014.46 144.86 1013.12 145.443C1011.8 146.027 1010.25 146.318 1008.47 146.318H1002.47V141.409H1007.2C1007.94 141.409 1008.58 141.318 1009.1 141.136C1009.63 140.947 1010.04 140.648 1010.32 140.239C1010.6 139.83 1010.75 139.295 1010.75 138.636C1010.75 137.97 1010.6 137.428 1010.32 137.011C1010.04 136.587 1009.63 136.277 1009.1 136.08C1008.58 135.875 1007.94 135.773 1007.2 135.773H1004.97V154H998.656ZM1012.29 143.318L1018.11 154H1011.25L1005.57 143.318H1012.29Z" fill="black"/>
<rect x="676" y="167" width="383" height="3" rx="1.5" fill="#404040"/>
<rect x="274" y="409" width="6" height="15" fill="#404040"/>
<rect x="262" y="389" width="45" height="3" fill="#404040"/>
<rect x="288" y="409" width="6" height="15" fill="#EB5757"/>
<path d="M307 389.5C307 392.455 306.418 395.381 305.287 398.11C304.157 400.84 302.499 403.321 300.41 405.41C298.321 407.499 295.84 409.157 293.11 410.287C290.381 411.418 287.455 412 284.5 412C281.545 412 278.619 411.418 275.89 410.287C273.16 409.157 270.679 407.499 268.59 405.41C266.501 403.321 264.843 400.84 263.713 398.11C262.582 395.381 262 392.455 262 389.5L265.293 389.5C265.293 392.022 265.79 394.52 266.755 396.85C267.72 399.18 269.135 401.298 270.919 403.081C272.702 404.865 274.82 406.28 277.15 407.245C279.48 408.21 281.978 408.707 284.5 408.707C287.022 408.707 289.52 408.21 291.85 407.245C294.18 406.28 296.298 404.865 298.081 403.081C299.865 401.298 301.28 399.18 302.245 396.85C303.21 394.52 303.707 392.022 303.707 389.5H307Z" fill="#404040"/>
</svg>
