<svg width="1150" height="616" viewBox="0 0 1150 616" fill="none" xmlns="http://www.w3.org/2000/svg">
<rect width="1150" height="616" fill="#FCFCFC"/>
<rect x="104" y="63" width="451" height="271" stroke="#404040" stroke-width="6"/>
<path d="M166.489 158H158.818L167.46 131.818H177.176L185.818 158H178.148L172.42 139.028H172.216L166.489 158ZM165.057 147.67H179.477V152.989H165.057V147.67ZM188.34 158V131.818H199.641C201.584 131.818 203.284 132.172 204.742 132.879C206.199 133.587 207.333 134.605 208.142 135.935C208.952 137.264 209.357 138.858 209.357 140.716C209.357 142.591 208.939 144.172 208.104 145.459C207.277 146.746 206.114 147.717 204.614 148.374C203.123 149.03 201.38 149.358 199.385 149.358H192.635V143.835H197.953C198.789 143.835 199.5 143.733 200.088 143.528C200.685 143.315 201.141 142.979 201.456 142.518C201.78 142.058 201.942 141.457 201.942 140.716C201.942 139.966 201.78 139.357 201.456 138.888C201.141 138.411 200.685 138.061 200.088 137.839C199.5 137.609 198.789 137.494 197.953 137.494H195.448V158H188.34ZM203.681 145.983L210.226 158H202.505L196.113 145.983H203.681ZM222.461 158H212.387V131.818H222.358C225.051 131.818 227.378 132.342 229.338 133.391C231.307 134.43 232.824 135.93 233.89 137.891C234.963 139.842 235.5 142.182 235.5 144.909C235.5 147.636 234.968 149.98 233.902 151.94C232.837 153.892 231.328 155.392 229.377 156.44C227.425 157.48 225.12 158 222.461 158ZM219.495 151.966H222.205C223.5 151.966 224.604 151.757 225.516 151.339C226.436 150.922 227.135 150.202 227.613 149.179C228.098 148.156 228.341 146.733 228.341 144.909C228.341 143.085 228.094 141.662 227.6 140.639C227.114 139.616 226.398 138.896 225.452 138.479C224.515 138.061 223.364 137.852 222 137.852H219.495V151.966ZM254.283 131.818H261.391V148.591C261.391 150.585 260.914 152.311 259.96 153.768C259.013 155.217 257.692 156.338 255.996 157.131C254.3 157.915 252.332 158.307 250.09 158.307C247.832 158.307 245.854 157.915 244.158 157.131C242.462 156.338 241.141 155.217 240.195 153.768C239.258 152.311 238.789 150.585 238.789 148.591V131.818H245.897V147.977C245.897 148.787 246.076 149.511 246.434 150.151C246.792 150.781 247.286 151.276 247.917 151.634C248.556 151.991 249.281 152.17 250.09 152.17C250.908 152.17 251.633 151.991 252.263 151.634C252.894 151.276 253.388 150.781 253.746 150.151C254.104 149.511 254.283 148.787 254.283 147.977V131.818ZM271.877 131.818V158H264.77V131.818H271.877ZM297.9 131.818V158H291.968L282.507 144.244H282.354V158H275.246V131.818H281.28L290.587 145.523H290.792V131.818H297.9ZM326.625 144.909C326.625 147.824 326.059 150.283 324.925 152.286C323.792 154.28 322.262 155.793 320.336 156.824C318.409 157.847 316.262 158.358 313.892 158.358C311.506 158.358 309.35 157.842 307.424 156.811C305.506 155.771 303.98 154.254 302.847 152.26C301.722 150.257 301.159 147.807 301.159 144.909C301.159 141.994 301.722 139.54 302.847 137.545C303.98 135.543 305.506 134.03 307.424 133.007C309.35 131.976 311.506 131.46 313.892 131.46C316.262 131.46 318.409 131.976 320.336 133.007C322.262 134.03 323.792 135.543 324.925 137.545C326.059 139.54 326.625 141.994 326.625 144.909ZM319.313 144.909C319.313 143.341 319.104 142.02 318.686 140.946C318.277 139.864 317.668 139.045 316.858 138.491C316.057 137.929 315.069 137.648 313.892 137.648C312.716 137.648 311.723 137.929 310.914 138.491C310.113 139.045 309.503 139.864 309.086 140.946C308.676 142.02 308.472 143.341 308.472 144.909C308.472 146.477 308.676 147.803 309.086 148.885C309.503 149.959 310.113 150.777 310.914 151.339C311.723 151.893 312.716 152.17 313.892 152.17C315.069 152.17 316.057 151.893 316.858 151.339C317.668 150.777 318.277 149.959 318.686 148.885C319.104 147.803 319.313 146.477 319.313 144.909ZM352.58 131.818H359.688V148.591C359.688 150.585 359.211 152.311 358.256 153.768C357.31 155.217 355.989 156.338 354.293 157.131C352.597 157.915 350.629 158.307 348.387 158.307C346.129 158.307 344.151 157.915 342.455 157.131C340.759 156.338 339.438 155.217 338.492 153.768C337.555 152.311 337.086 150.585 337.086 148.591V131.818H344.194V147.977C344.194 148.787 344.373 149.511 344.731 150.151C345.089 150.781 345.583 151.276 346.214 151.634C346.853 151.991 347.577 152.17 348.387 152.17C349.205 152.17 349.93 151.991 350.56 151.634C351.191 151.276 351.685 150.781 352.043 150.151C352.401 149.511 352.58 148.787 352.58 147.977V131.818ZM385.72 131.818V158H379.788L370.328 144.244H370.174V158H363.066V131.818H369.1L378.407 145.523H378.612V131.818H385.72ZM414.446 144.909C414.446 147.824 413.879 150.283 412.745 152.286C411.612 154.28 410.082 155.793 408.156 156.824C406.23 157.847 404.082 158.358 401.713 158.358C399.326 158.358 397.17 157.842 395.244 156.811C393.326 155.771 391.801 154.254 390.667 152.26C389.542 150.257 388.98 147.807 388.98 144.909C388.98 141.994 389.542 139.54 390.667 137.545C391.801 135.543 393.326 134.03 395.244 133.007C397.17 131.976 399.326 131.46 401.713 131.46C404.082 131.46 406.23 131.976 408.156 133.007C410.082 134.03 411.612 135.543 412.745 137.545C413.879 139.54 414.446 141.994 414.446 144.909ZM407.133 144.909C407.133 143.341 406.924 142.02 406.507 140.946C406.098 139.864 405.488 139.045 404.679 138.491C403.877 137.929 402.889 137.648 401.713 137.648C400.537 137.648 399.544 137.929 398.734 138.491C397.933 139.045 397.324 139.864 396.906 140.946C396.497 142.02 396.292 143.341 396.292 144.909C396.292 146.477 396.497 147.803 396.906 148.885C397.324 149.959 397.933 150.777 398.734 151.339C399.544 151.893 400.537 152.17 401.713 152.17C402.889 152.17 403.877 151.893 404.679 151.339C405.488 150.777 406.098 149.959 406.507 148.885C406.924 147.803 407.133 146.477 407.133 144.909ZM424.906 158V131.818H436.207C438.151 131.818 439.851 132.172 441.308 132.879C442.766 133.587 443.899 134.605 444.709 135.935C445.518 137.264 445.923 138.858 445.923 140.716C445.923 142.591 445.506 144.172 444.67 145.459C443.844 146.746 442.68 147.717 441.18 148.374C439.689 149.03 437.946 149.358 435.952 149.358H429.202V143.835H434.52C435.355 143.835 436.067 143.733 436.655 143.528C437.251 143.315 437.707 142.979 438.023 142.518C438.347 142.058 438.509 141.457 438.509 140.716C438.509 139.966 438.347 139.357 438.023 138.888C437.707 138.411 437.251 138.061 436.655 137.839C436.067 137.609 435.355 137.494 434.52 137.494H432.014V158H424.906ZM440.247 145.983L446.793 158H439.071L432.679 145.983H440.247ZM459.232 158.358C457.169 158.358 455.337 158.004 453.734 157.297C452.141 156.581 450.888 155.597 449.976 154.344C449.064 153.091 448.604 151.651 448.595 150.023H455.754C455.763 150.526 455.916 150.977 456.214 151.378C456.521 151.77 456.939 152.077 457.467 152.298C457.996 152.52 458.601 152.631 459.283 152.631C459.939 152.631 460.518 152.516 461.021 152.286C461.524 152.047 461.916 151.719 462.197 151.301C462.479 150.884 462.615 150.406 462.607 149.869C462.615 149.341 462.453 148.872 462.121 148.463C461.797 148.054 461.341 147.734 460.753 147.504C460.165 147.274 459.487 147.159 458.72 147.159H456.061V142.25H458.72C459.428 142.25 460.05 142.135 460.587 141.905C461.132 141.675 461.554 141.355 461.852 140.946C462.159 140.537 462.308 140.068 462.3 139.54C462.308 139.028 462.185 138.577 461.929 138.185C461.673 137.793 461.315 137.486 460.855 137.264C460.403 137.043 459.879 136.932 459.283 136.932C458.635 136.932 458.055 137.047 457.544 137.277C457.041 137.507 456.645 137.827 456.355 138.236C456.065 138.645 455.916 139.114 455.908 139.642H449.107C449.115 138.04 449.554 136.625 450.423 135.398C451.301 134.17 452.503 133.207 454.028 132.509C455.554 131.81 457.305 131.46 459.283 131.46C461.217 131.46 462.926 131.788 464.409 132.445C465.901 133.101 467.064 134.004 467.899 135.155C468.743 136.297 469.161 137.605 469.152 139.08C469.169 140.545 468.666 141.747 467.643 142.685C466.629 143.622 465.342 144.176 463.783 144.347V144.551C465.896 144.781 467.486 145.429 468.551 146.494C469.616 147.551 470.141 148.881 470.124 150.483C470.132 152.017 469.672 153.376 468.743 154.561C467.822 155.746 466.54 156.675 464.895 157.348C463.259 158.021 461.371 158.358 459.232 158.358Z" fill="#404040"/>
<path d="M141.711 280.641C141.677 280.503 141.624 280.382 141.551 280.277C141.478 280.171 141.387 280.081 141.277 280.008C141.171 279.932 141.046 279.876 140.902 279.84C140.762 279.801 140.607 279.781 140.438 279.781C140.073 279.781 139.762 279.868 139.504 280.043C139.249 280.217 139.053 280.469 138.918 280.797C138.785 281.125 138.719 281.521 138.719 281.984C138.719 282.453 138.783 282.854 138.91 283.188C139.038 283.521 139.228 283.776 139.48 283.953C139.733 284.13 140.047 284.219 140.422 284.219C140.753 284.219 141.027 284.171 141.246 284.074C141.467 283.978 141.633 283.841 141.742 283.664C141.852 283.487 141.906 283.279 141.906 283.039L142.281 283.078H140.453V281.531H144V282.641C144 283.37 143.845 283.993 143.535 284.512C143.228 285.027 142.803 285.423 142.262 285.699C141.723 285.973 141.104 286.109 140.406 286.109C139.628 286.109 138.944 285.944 138.355 285.613C137.767 285.283 137.307 284.811 136.977 284.199C136.648 283.587 136.484 282.859 136.484 282.016C136.484 281.354 136.585 280.768 136.785 280.258C136.988 279.747 137.27 279.316 137.629 278.965C137.988 278.611 138.404 278.344 138.875 278.164C139.346 277.982 139.852 277.891 140.391 277.891C140.865 277.891 141.305 277.958 141.711 278.094C142.12 278.227 142.48 278.417 142.793 278.664C143.108 278.909 143.362 279.199 143.555 279.535C143.747 279.871 143.865 280.24 143.906 280.641H141.711ZM151.935 278V286H150.122L147.231 281.797H147.185V286H145.013V278H146.856L149.7 282.188H149.763V278H151.935ZM156.04 286H152.962V278H156.009C156.832 278 157.543 278.16 158.142 278.48C158.743 278.798 159.207 279.257 159.532 279.855C159.86 280.452 160.024 281.167 160.024 282C160.024 282.833 159.862 283.549 159.536 284.148C159.211 284.745 158.75 285.203 158.153 285.523C157.557 285.841 156.853 286 156.04 286ZM155.134 284.156H155.962C156.358 284.156 156.695 284.092 156.974 283.965C157.255 283.837 157.468 283.617 157.614 283.305C157.763 282.992 157.837 282.557 157.837 282C157.837 281.443 157.761 281.008 157.61 280.695C157.462 280.383 157.243 280.163 156.954 280.035C156.668 279.908 156.316 279.844 155.899 279.844H155.134V284.156Z" fill="#404040"/>
<path d="M401.195 281.188V282.812H397.445V281.188H401.195ZM405.666 286.109C405.051 286.109 404.505 286.001 404.029 285.785C403.555 285.566 403.181 285.266 402.908 284.883C402.637 284.5 402.499 284.06 402.494 283.562H404.603C404.611 283.839 404.718 284.059 404.923 284.223C405.132 284.387 405.379 284.469 405.666 284.469C405.887 284.469 406.082 284.422 406.251 284.328C406.421 284.232 406.554 284.096 406.65 283.922C406.746 283.747 406.793 283.544 406.791 283.312C406.793 283.078 406.746 282.875 406.65 282.703C406.554 282.529 406.421 282.395 406.251 282.301C406.082 282.204 405.887 282.156 405.666 282.156C405.436 282.156 405.224 282.212 405.029 282.324C404.836 282.434 404.694 282.586 404.603 282.781L402.697 282.406L403.009 278H408.384V279.734H404.791L404.634 281.5H404.681C404.806 281.258 405.022 281.057 405.33 280.898C405.637 280.737 405.994 280.656 406.4 280.656C406.876 280.656 407.301 280.767 407.673 280.988C408.048 281.21 408.344 281.516 408.56 281.906C408.779 282.294 408.887 282.742 408.884 283.25C408.887 283.807 408.754 284.302 408.486 284.734C408.22 285.164 407.847 285.501 407.365 285.746C406.883 285.988 406.317 286.109 405.666 286.109Z" fill="#404040"/>
<path d="M499.976 286V284.438L502.96 281.969C503.158 281.805 503.327 281.651 503.468 281.508C503.611 281.362 503.72 281.212 503.796 281.059C503.874 280.905 503.913 280.734 503.913 280.547C503.913 280.341 503.869 280.165 503.78 280.02C503.694 279.874 503.575 279.762 503.421 279.684C503.267 279.603 503.09 279.562 502.89 279.562C502.689 279.562 502.512 279.603 502.358 279.684C502.207 279.764 502.09 279.883 502.007 280.039C501.924 280.195 501.882 280.385 501.882 280.609H499.819C499.819 280.047 499.946 279.562 500.198 279.156C500.451 278.75 500.808 278.438 501.269 278.219C501.729 278 502.27 277.891 502.89 277.891C503.53 277.891 504.085 277.993 504.554 278.199C505.025 278.402 505.388 278.689 505.644 279.059C505.901 279.428 506.03 279.862 506.03 280.359C506.03 280.667 505.966 280.973 505.839 281.277C505.711 281.579 505.482 281.914 505.151 282.281C504.821 282.648 504.351 283.086 503.741 283.594L502.991 284.219V284.266H506.116V286H499.976Z" fill="#404040"/>
<path d="M468.163 281.188V282.812H464.413V281.188H468.163ZM472.555 286.109C471.925 286.109 471.365 286.001 470.875 285.785C470.389 285.566 470.006 285.266 469.727 284.883C469.448 284.5 469.308 284.06 469.305 283.562H471.493C471.495 283.716 471.542 283.854 471.633 283.977C471.727 284.096 471.855 284.19 472.016 284.258C472.178 284.326 472.362 284.359 472.571 284.359C472.771 284.359 472.948 284.324 473.102 284.254C473.256 284.181 473.375 284.081 473.461 283.953C473.547 283.826 473.589 283.68 473.586 283.516C473.589 283.354 473.54 283.211 473.438 283.086C473.339 282.961 473.2 282.863 473.02 282.793C472.84 282.723 472.633 282.687 472.399 282.687H471.586V281.188H472.399C472.615 281.188 472.805 281.152 472.969 281.082C473.136 281.012 473.265 280.914 473.356 280.789C473.45 280.664 473.495 280.521 473.493 280.359C473.495 280.203 473.458 280.065 473.379 279.945C473.301 279.826 473.192 279.732 473.051 279.664C472.913 279.596 472.753 279.562 472.571 279.562C472.373 279.562 472.196 279.598 472.04 279.668C471.886 279.738 471.765 279.836 471.676 279.961C471.588 280.086 471.542 280.229 471.54 280.391H469.461C469.464 279.901 469.598 279.469 469.864 279.094C470.132 278.719 470.499 278.424 470.965 278.211C471.431 277.997 471.967 277.891 472.571 277.891C473.162 277.891 473.684 277.991 474.137 278.191C474.593 278.392 474.948 278.668 475.204 279.02C475.461 279.368 475.589 279.768 475.586 280.219C475.592 280.667 475.438 281.034 475.125 281.32C474.816 281.607 474.422 281.776 473.946 281.828V281.891C474.592 281.961 475.077 282.159 475.403 282.484C475.728 282.807 475.889 283.214 475.883 283.703C475.886 284.172 475.745 284.587 475.461 284.949C475.18 285.311 474.788 285.595 474.286 285.801C473.786 286.007 473.209 286.109 472.555 286.109Z" fill="#404040"/>
<path d="M433.591 284.75V283.062L436.81 278H438.341V280.25H437.466L435.732 283V283.062H440.482V284.75H433.591ZM437.482 286V284.234L437.529 283.5V278H439.56V286H437.482Z" fill="#404040"/>
<rect x="137" y="298" width="22" height="22" stroke="#404040" stroke-width="4"/>
<rect x="392" y="298" width="22" height="22" stroke="#404040" stroke-width="4"/>
<rect x="426" y="298" width="22" height="22" stroke="#404040" stroke-width="4"/>
<rect x="492" y="298" width="22" height="22" stroke="#404040" stroke-width="4"/>
<rect x="459" y="298" width="22" height="22" stroke="#404040" stroke-width="4"/>
<rect x="137" y="298" width="22" height="22" stroke="#404040" stroke-width="4"/>
<rect x="399" y="504" width="6" height="52" fill="#404040"/>
<rect x="141" y="302" width="14" height="14" fill="#404040"/>
<rect x="149" y="556" width="6" height="255" transform="rotate(-90 149 556)" fill="#404040"/>
<rect x="145" y="309" width="6" height="247" fill="#404040"/>
<rect x="400" y="309" width="6" height="77" fill="#EB5757"/>
<rect x="396" y="302" width="14" height="14" fill="#EB5757"/>
<rect x="399" y="418" width="6" height="46" fill="#EB5757"/>
<rect x="399" y="476" width="6" height="29" fill="#EB5757"/>
<rect x="400.209" y="386.243" width="6" height="16.4437" transform="rotate(-45 400.209 386.243)" fill="#EB5757"/>
<rect x="399" y="402.034" width="5.45605" height="16.739" transform="rotate(-45 399 402.034)" fill="#EB5757"/>
<rect x="410.836" y="390.128" width="6.13854" height="16.7103" transform="rotate(45 410.836 390.128)" fill="#EB5757"/>
<rect x="410.836" y="406.128" width="6" height="16.2633" transform="rotate(45 410.836 406.128)" fill="#EB5757"/>
<rect x="389" y="464" width="26" height="5" fill="#EB5757"/>
<path d="M402 464L413.258 482H390.742L402 464Z" fill="#EB5757"/>
<path d="M416.342 470.991C416.337 470.853 416.221 470.745 416.083 470.75L413.835 470.829C413.697 470.833 413.589 470.949 413.594 471.087C413.598 471.225 413.714 471.333 413.852 471.328L415.851 471.259L415.921 473.257C415.925 473.395 416.041 473.503 416.179 473.498C416.317 473.494 416.425 473.378 416.42 473.24L416.342 470.991ZM412.183 475.559L416.275 471.17L415.909 470.83L411.817 475.218L412.183 475.559Z" fill="#EB5757"/>
<path d="M417.272 474.963C417.267 474.825 417.151 474.717 417.013 474.722L414.764 474.8C414.626 474.805 414.518 474.921 414.523 475.059C414.528 475.197 414.644 475.305 414.782 475.3L416.781 475.23L416.85 477.229C416.855 477.367 416.971 477.475 417.109 477.47C417.247 477.465 417.355 477.35 417.35 477.212L417.272 474.963ZM413.113 479.53L417.205 475.142L416.839 474.801L412.747 479.189L413.113 479.53Z" fill="#EB5757"/>
<rect x="500" y="307" width="6" height="144" fill="#6C57EB"/>
<rect x="496" y="302" width="14" height="13" fill="#6C57EB"/>
<rect x="467" y="308" width="6" height="143" fill="#E857EB"/>
<rect x="463" y="302" width="14" height="13" fill="#E857EB"/>
<rect x="434" y="308.601" width="6" height="142.399" fill="#CDCDCD"/>
<rect x="430" y="302" width="14" height="13.2025" fill="#CDCDCD"/>
<path d="M686.5 160V136.727H696.591C698.364 136.727 699.852 136.966 701.057 137.443C702.269 137.92 703.182 138.595 703.795 139.466C704.417 140.337 704.727 141.364 704.727 142.545C704.727 143.402 704.538 144.182 704.159 144.886C703.788 145.591 703.265 146.182 702.591 146.659C701.917 147.129 701.129 147.455 700.227 147.636V147.864C701.227 147.902 702.136 148.155 702.955 148.625C703.773 149.087 704.424 149.727 704.909 150.545C705.394 151.356 705.636 152.311 705.636 153.409C705.636 154.682 705.303 155.814 704.636 156.807C703.977 157.799 703.038 158.58 701.818 159.148C700.598 159.716 699.144 160 697.455 160H686.5ZM692.818 154.955H695.773C696.833 154.955 697.629 154.758 698.159 154.364C698.689 153.962 698.955 153.371 698.955 152.591C698.955 152.045 698.83 151.583 698.58 151.205C698.33 150.826 697.973 150.538 697.511 150.341C697.057 150.144 696.508 150.045 695.864 150.045H692.818V154.955ZM692.818 146.136H695.409C695.962 146.136 696.451 146.049 696.875 145.875C697.299 145.701 697.629 145.451 697.864 145.125C698.106 144.792 698.227 144.386 698.227 143.909C698.227 143.189 697.97 142.64 697.455 142.261C696.939 141.875 696.288 141.682 695.5 141.682H692.818V146.136ZM707.875 160V136.727H717.92C719.648 136.727 721.159 137.042 722.455 137.67C723.75 138.299 724.758 139.205 725.477 140.386C726.197 141.568 726.557 142.985 726.557 144.636C726.557 146.303 726.186 147.708 725.443 148.852C724.708 149.996 723.674 150.86 722.341 151.443C721.015 152.027 719.466 152.318 717.693 152.318H711.693V147.409H716.42C717.163 147.409 717.795 147.318 718.318 147.136C718.848 146.947 719.254 146.648 719.534 146.239C719.822 145.83 719.966 145.295 719.966 144.636C719.966 143.97 719.822 143.428 719.534 143.011C719.254 142.587 718.848 142.277 718.318 142.08C717.795 141.875 717.163 141.773 716.42 141.773H714.193V160H707.875ZM721.511 149.318L727.33 160H720.466L714.784 149.318H721.511ZM735.568 136.727V160H729.25V136.727H735.568ZM753.676 144.409C753.578 144.008 753.422 143.655 753.21 143.352C752.998 143.042 752.733 142.78 752.415 142.568C752.104 142.348 751.741 142.186 751.324 142.08C750.915 141.966 750.464 141.909 749.972 141.909C748.911 141.909 748.006 142.163 747.256 142.67C746.513 143.178 745.945 143.909 745.551 144.864C745.165 145.818 744.972 146.97 744.972 148.318C744.972 149.682 745.157 150.848 745.528 151.818C745.9 152.788 746.453 153.53 747.188 154.045C747.922 154.561 748.835 154.818 749.926 154.818C750.888 154.818 751.688 154.678 752.324 154.398C752.968 154.117 753.449 153.72 753.767 153.205C754.085 152.689 754.244 152.083 754.244 151.386L755.335 151.5H750.017V147H760.335V150.227C760.335 152.348 759.884 154.163 758.983 155.67C758.089 157.17 756.854 158.322 755.278 159.125C753.71 159.92 751.911 160.318 749.881 160.318C747.616 160.318 745.627 159.837 743.915 158.875C742.203 157.913 740.866 156.542 739.903 154.761C738.949 152.981 738.472 150.864 738.472 148.409C738.472 146.485 738.763 144.78 739.347 143.295C739.938 141.811 740.756 140.557 741.801 139.534C742.847 138.504 744.055 137.727 745.426 137.205C746.797 136.674 748.267 136.409 749.835 136.409C751.214 136.409 752.494 136.606 753.676 137C754.866 137.386 755.915 137.939 756.824 138.659C757.741 139.371 758.479 140.216 759.04 141.193C759.6 142.17 759.941 143.242 760.062 144.409H753.676ZM763.281 160V136.727H769.599V145.818H777.963V136.727H784.281V160H777.963V150.909H769.599V160H763.281ZM786.645 141.818V136.727H806.872V141.818H799.872V160H793.645V141.818H786.645ZM829.386 136.727V160H824.114L815.705 147.773H815.568V160H809.25V136.727H814.614L822.886 148.909H823.068V136.727H829.386ZM832.375 160V136.727H849.148V141.818H838.693V145.818H848.284V150.909H838.693V154.909H849.102V160H832.375ZM864.827 144C864.766 143.242 864.482 142.652 863.974 142.227C863.474 141.803 862.713 141.591 861.69 141.591C861.039 141.591 860.505 141.67 860.088 141.83C859.679 141.981 859.376 142.189 859.179 142.455C858.982 142.72 858.88 143.023 858.872 143.364C858.857 143.644 858.906 143.898 859.02 144.125C859.141 144.345 859.33 144.545 859.588 144.727C859.846 144.902 860.175 145.061 860.577 145.205C860.978 145.348 861.455 145.477 862.009 145.591L863.918 146C865.205 146.273 866.308 146.633 867.224 147.08C868.141 147.527 868.891 148.053 869.474 148.659C870.058 149.258 870.486 149.932 870.759 150.682C871.039 151.432 871.183 152.25 871.19 153.136C871.183 154.667 870.8 155.962 870.043 157.023C869.285 158.083 868.202 158.89 866.793 159.443C865.391 159.996 863.705 160.273 861.736 160.273C859.713 160.273 857.948 159.973 856.44 159.375C854.94 158.777 853.774 157.856 852.94 156.614C852.115 155.364 851.698 153.765 851.69 151.818H857.69C857.728 152.53 857.906 153.129 858.224 153.614C858.543 154.098 858.99 154.466 859.565 154.716C860.149 154.966 860.842 155.091 861.645 155.091C862.319 155.091 862.884 155.008 863.338 154.841C863.793 154.674 864.137 154.443 864.372 154.148C864.607 153.852 864.728 153.515 864.736 153.136C864.728 152.78 864.611 152.47 864.384 152.205C864.164 151.932 863.8 151.689 863.293 151.477C862.785 151.258 862.099 151.053 861.236 150.864L858.918 150.364C856.857 149.917 855.232 149.17 854.043 148.125C852.861 147.072 852.274 145.636 852.281 143.818C852.274 142.341 852.668 141.049 853.463 139.943C854.266 138.83 855.376 137.962 856.793 137.341C858.217 136.72 859.849 136.409 861.69 136.409C863.569 136.409 865.194 136.723 866.565 137.352C867.937 137.981 868.993 138.867 869.736 140.011C870.486 141.148 870.865 142.477 870.872 144H864.827ZM886.139 144C886.079 143.242 885.795 142.652 885.287 142.227C884.787 141.803 884.026 141.591 883.003 141.591C882.351 141.591 881.817 141.67 881.401 141.83C880.991 141.981 880.688 142.189 880.491 142.455C880.295 142.72 880.192 143.023 880.185 143.364C880.17 143.644 880.219 143.898 880.332 144.125C880.454 144.345 880.643 144.545 880.901 144.727C881.158 144.902 881.488 145.061 881.889 145.205C882.291 145.348 882.768 145.477 883.321 145.591L885.23 146C886.518 146.273 887.62 146.633 888.537 147.08C889.454 147.527 890.204 148.053 890.787 148.659C891.37 149.258 891.798 149.932 892.071 150.682C892.351 151.432 892.495 152.25 892.503 153.136C892.495 154.667 892.113 155.962 891.355 157.023C890.598 158.083 889.514 158.89 888.105 159.443C886.704 159.996 885.018 160.273 883.048 160.273C881.026 160.273 879.26 159.973 877.753 159.375C876.253 158.777 875.086 157.856 874.253 156.614C873.427 155.364 873.01 153.765 873.003 151.818H879.003C879.041 152.53 879.219 153.129 879.537 153.614C879.855 154.098 880.302 154.466 880.878 154.716C881.461 154.966 882.154 155.091 882.957 155.091C883.632 155.091 884.196 155.008 884.651 154.841C885.105 154.674 885.45 154.443 885.685 154.148C885.92 153.852 886.041 153.515 886.048 153.136C886.041 152.78 885.923 152.47 885.696 152.205C885.476 151.932 885.113 151.689 884.605 151.477C884.098 151.258 883.412 151.053 882.548 150.864L880.23 150.364C878.17 149.917 876.545 149.17 875.355 148.125C874.173 147.072 873.586 145.636 873.594 143.818C873.586 142.341 873.98 141.049 874.776 139.943C875.579 138.83 876.688 137.962 878.105 137.341C879.529 136.72 881.162 136.409 883.003 136.409C884.882 136.409 886.507 136.723 887.878 137.352C889.249 137.981 890.306 138.867 891.048 140.011C891.798 141.148 892.177 142.477 892.185 144H886.139ZM923.009 145.455H916.599C916.554 144.924 916.433 144.443 916.236 144.011C916.046 143.58 915.781 143.208 915.44 142.898C915.107 142.58 914.702 142.337 914.224 142.17C913.747 141.996 913.205 141.909 912.599 141.909C911.539 141.909 910.641 142.167 909.906 142.682C909.179 143.197 908.626 143.936 908.247 144.898C907.876 145.86 907.69 147.015 907.69 148.364C907.69 149.788 907.88 150.981 908.259 151.943C908.645 152.898 909.202 153.617 909.929 154.102C910.656 154.58 911.531 154.818 912.554 154.818C913.137 154.818 913.66 154.746 914.122 154.602C914.584 154.451 914.986 154.235 915.327 153.955C915.668 153.674 915.944 153.337 916.156 152.943C916.376 152.542 916.524 152.091 916.599 151.591L923.009 151.636C922.933 152.621 922.656 153.625 922.179 154.648C921.702 155.663 921.024 156.602 920.145 157.466C919.274 158.322 918.194 159.011 916.906 159.534C915.618 160.057 914.122 160.318 912.418 160.318C910.281 160.318 908.365 159.86 906.668 158.943C904.978 158.027 903.641 156.678 902.656 154.898C901.679 153.117 901.19 150.939 901.19 148.364C901.19 145.773 901.69 143.591 902.69 141.818C903.69 140.038 905.039 138.693 906.736 137.784C908.433 136.867 910.327 136.409 912.418 136.409C913.887 136.409 915.24 136.61 916.474 137.011C917.709 137.413 918.793 138 919.724 138.773C920.656 139.538 921.406 140.481 921.974 141.602C922.543 142.723 922.887 144.008 923.009 145.455ZM948.42 148.364C948.42 150.955 947.917 153.14 946.909 154.92C945.902 156.693 944.542 158.038 942.83 158.955C941.117 159.864 939.208 160.318 937.102 160.318C934.981 160.318 933.064 159.86 931.352 158.943C929.648 158.019 928.292 156.67 927.284 154.898C926.284 153.117 925.784 150.939 925.784 148.364C925.784 145.773 926.284 143.591 927.284 141.818C928.292 140.038 929.648 138.693 931.352 137.784C933.064 136.867 934.981 136.409 937.102 136.409C939.208 136.409 941.117 136.867 942.83 137.784C944.542 138.693 945.902 140.038 946.909 141.818C947.917 143.591 948.42 145.773 948.42 148.364ZM941.92 148.364C941.92 146.97 941.735 145.795 941.364 144.841C941 143.879 940.458 143.152 939.739 142.659C939.027 142.159 938.148 141.909 937.102 141.909C936.057 141.909 935.174 142.159 934.455 142.659C933.742 143.152 933.201 143.879 932.83 144.841C932.466 145.795 932.284 146.97 932.284 148.364C932.284 149.758 932.466 150.936 932.83 151.898C933.201 152.852 933.742 153.58 934.455 154.08C935.174 154.572 936.057 154.818 937.102 154.818C938.148 154.818 939.027 154.572 939.739 154.08C940.458 153.58 941 152.852 941.364 151.898C941.735 150.936 941.92 149.758 941.92 148.364ZM971.48 136.727V160H966.207L957.798 147.773H957.662V160H951.344V136.727H956.707L964.98 148.909H965.162V136.727H971.48ZM973.832 141.818V136.727H994.06V141.818H987.06V160H980.832V141.818H973.832ZM996.438 160V136.727H1006.48C1008.21 136.727 1009.72 137.042 1011.02 137.67C1012.31 138.299 1013.32 139.205 1014.04 140.386C1014.76 141.568 1015.12 142.985 1015.12 144.636C1015.12 146.303 1014.75 147.708 1014.01 148.852C1013.27 149.996 1012.24 150.86 1010.9 151.443C1009.58 152.027 1008.03 152.318 1006.26 152.318H1000.26V147.409H1004.98C1005.73 147.409 1006.36 147.318 1006.88 147.136C1007.41 146.947 1007.82 146.648 1008.1 146.239C1008.38 145.83 1008.53 145.295 1008.53 144.636C1008.53 143.97 1008.38 143.428 1008.1 143.011C1007.82 142.587 1007.41 142.277 1006.88 142.08C1006.36 141.875 1005.73 141.773 1004.98 141.773H1002.76V160H996.438ZM1010.07 149.318L1015.89 160H1009.03L1003.35 149.318H1010.07ZM1040.36 148.364C1040.36 150.955 1039.85 153.14 1038.85 154.92C1037.84 156.693 1036.48 158.038 1034.77 158.955C1033.05 159.864 1031.15 160.318 1029.04 160.318C1026.92 160.318 1025 159.86 1023.29 158.943C1021.59 158.019 1020.23 156.67 1019.22 154.898C1018.22 153.117 1017.72 150.939 1017.72 148.364C1017.72 145.773 1018.22 143.591 1019.22 141.818C1020.23 140.038 1021.59 138.693 1023.29 137.784C1025 136.867 1026.92 136.409 1029.04 136.409C1031.15 136.409 1033.05 136.867 1034.77 137.784C1036.48 138.693 1037.84 140.038 1038.85 141.818C1039.85 143.591 1040.36 145.773 1040.36 148.364ZM1033.86 148.364C1033.86 146.97 1033.67 145.795 1033.3 144.841C1032.94 143.879 1032.4 143.152 1031.68 142.659C1030.96 142.159 1030.09 141.909 1029.04 141.909C1027.99 141.909 1027.11 142.159 1026.39 142.659C1025.68 143.152 1025.14 143.879 1024.77 144.841C1024.4 145.795 1024.22 146.97 1024.22 148.364C1024.22 149.758 1024.4 150.936 1024.77 151.898C1025.14 152.852 1025.68 153.58 1026.39 154.08C1027.11 154.572 1027.99 154.818 1029.04 154.818C1030.09 154.818 1030.96 154.572 1031.68 154.08C1032.4 153.58 1032.94 152.852 1033.3 151.898C1033.67 150.936 1033.86 149.758 1033.86 148.364ZM1043.28 160V136.727H1049.6V154.909H1059.01V160H1043.28ZM699.045 183C698.985 182.242 698.701 181.652 698.193 181.227C697.693 180.803 696.932 180.591 695.909 180.591C695.258 180.591 694.723 180.67 694.307 180.83C693.898 180.981 693.595 181.189 693.398 181.455C693.201 181.72 693.098 182.023 693.091 182.364C693.076 182.644 693.125 182.898 693.239 183.125C693.36 183.345 693.549 183.545 693.807 183.727C694.064 183.902 694.394 184.061 694.795 184.205C695.197 184.348 695.674 184.477 696.227 184.591L698.136 185C699.424 185.273 700.527 185.633 701.443 186.08C702.36 186.527 703.11 187.053 703.693 187.659C704.277 188.258 704.705 188.932 704.977 189.682C705.258 190.432 705.402 191.25 705.409 192.136C705.402 193.667 705.019 194.962 704.261 196.023C703.504 197.083 702.42 197.89 701.011 198.443C699.61 198.996 697.924 199.273 695.955 199.273C693.932 199.273 692.167 198.973 690.659 198.375C689.159 197.777 687.992 196.856 687.159 195.614C686.333 194.364 685.917 192.765 685.909 190.818H691.909C691.947 191.53 692.125 192.129 692.443 192.614C692.761 193.098 693.208 193.466 693.784 193.716C694.367 193.966 695.061 194.091 695.864 194.091C696.538 194.091 697.102 194.008 697.557 193.841C698.011 193.674 698.356 193.443 698.591 193.148C698.826 192.852 698.947 192.515 698.955 192.136C698.947 191.78 698.83 191.47 698.602 191.205C698.383 190.932 698.019 190.689 697.511 190.477C697.004 190.258 696.318 190.053 695.455 189.864L693.136 189.364C691.076 188.917 689.451 188.17 688.261 187.125C687.08 186.072 686.492 184.636 686.5 182.818C686.492 181.341 686.886 180.049 687.682 178.943C688.485 177.83 689.595 176.962 691.011 176.341C692.436 175.72 694.068 175.409 695.909 175.409C697.788 175.409 699.413 175.723 700.784 176.352C702.155 176.981 703.212 177.867 703.955 179.011C704.705 180.148 705.083 181.477 705.091 183H699.045ZM713.722 199L706.858 175.727H713.903L717.085 190.045H717.267L721.04 175.727H726.585L730.358 190.091H730.54L733.722 175.727H740.767L733.903 199H727.858L723.903 186H723.722L719.767 199H713.722ZM749.131 175.727V199H742.812V175.727H749.131ZM773.852 184.455H767.443C767.398 183.924 767.277 183.443 767.08 183.011C766.89 182.58 766.625 182.208 766.284 181.898C765.951 181.58 765.545 181.337 765.068 181.17C764.591 180.996 764.049 180.909 763.443 180.909C762.383 180.909 761.485 181.167 760.75 181.682C760.023 182.197 759.47 182.936 759.091 183.898C758.72 184.86 758.534 186.015 758.534 187.364C758.534 188.788 758.723 189.981 759.102 190.943C759.489 191.898 760.045 192.617 760.773 193.102C761.5 193.58 762.375 193.818 763.398 193.818C763.981 193.818 764.504 193.746 764.966 193.602C765.428 193.451 765.83 193.235 766.17 192.955C766.511 192.674 766.788 192.337 767 191.943C767.22 191.542 767.367 191.091 767.443 190.591L773.852 190.636C773.777 191.621 773.5 192.625 773.023 193.648C772.545 194.663 771.867 195.602 770.989 196.466C770.117 197.322 769.038 198.011 767.75 198.534C766.462 199.057 764.966 199.318 763.261 199.318C761.125 199.318 759.208 198.86 757.511 197.943C755.822 197.027 754.485 195.678 753.5 193.898C752.523 192.117 752.034 189.939 752.034 187.364C752.034 184.773 752.534 182.591 753.534 180.818C754.534 179.038 755.883 177.693 757.58 176.784C759.277 175.867 761.17 175.409 763.261 175.409C764.731 175.409 766.083 175.61 767.318 176.011C768.553 176.413 769.636 177 770.568 177.773C771.5 178.538 772.25 179.481 772.818 180.602C773.386 181.723 773.731 183.008 773.852 184.455ZM776.082 180.818V175.727H796.31V180.818H789.31V199H783.082V180.818H776.082ZM798.688 199V175.727H805.006V184.818H813.369V175.727H819.688V199H813.369V189.909H805.006V199H798.688ZM822.688 199V175.727H839.46V180.818H829.006V184.818H838.597V189.909H829.006V193.909H839.415V199H822.688ZM855.139 183C855.079 182.242 854.795 181.652 854.287 181.227C853.787 180.803 853.026 180.591 852.003 180.591C851.351 180.591 850.817 180.67 850.401 180.83C849.991 180.981 849.688 181.189 849.491 181.455C849.295 181.72 849.192 182.023 849.185 182.364C849.17 182.644 849.219 182.898 849.332 183.125C849.454 183.345 849.643 183.545 849.901 183.727C850.158 183.902 850.488 184.061 850.889 184.205C851.291 184.348 851.768 184.477 852.321 184.591L854.23 185C855.518 185.273 856.62 185.633 857.537 186.08C858.454 186.527 859.204 187.053 859.787 187.659C860.37 188.258 860.798 188.932 861.071 189.682C861.351 190.432 861.495 191.25 861.503 192.136C861.495 193.667 861.113 194.962 860.355 196.023C859.598 197.083 858.514 197.89 857.105 198.443C855.704 198.996 854.018 199.273 852.048 199.273C850.026 199.273 848.26 198.973 846.753 198.375C845.253 197.777 844.086 196.856 843.253 195.614C842.427 194.364 842.01 192.765 842.003 190.818H848.003C848.041 191.53 848.219 192.129 848.537 192.614C848.855 193.098 849.302 193.466 849.878 193.716C850.461 193.966 851.154 194.091 851.957 194.091C852.632 194.091 853.196 194.008 853.651 193.841C854.105 193.674 854.45 193.443 854.685 193.148C854.92 192.852 855.041 192.515 855.048 192.136C855.041 191.78 854.923 191.47 854.696 191.205C854.476 190.932 854.113 190.689 853.605 190.477C853.098 190.258 852.412 190.053 851.548 189.864L849.23 189.364C847.17 188.917 845.545 188.17 844.355 187.125C843.173 186.072 842.586 184.636 842.594 182.818C842.586 181.341 842.98 180.049 843.776 178.943C844.579 177.83 845.688 176.962 847.105 176.341C848.529 175.72 850.162 175.409 852.003 175.409C853.882 175.409 855.507 175.723 856.878 176.352C858.249 176.981 859.306 177.867 860.048 179.011C860.798 180.148 861.177 181.477 861.185 183H855.139Z" fill="#4F4F4F"/>
<rect x="676" y="167" width="420" height="3" rx="1.5" fill="#404040"/>
</svg>
